<?xml version="1.0" standalone="no"?>
<!DOCTYPE svg PUBLIC "-//W3C//DTD SVG 1.1//EN" "http://www.w3.org/Graphics/SVG/1.1/DTD/svg11.dtd" >
<svg>
<metadata>
Created by FontForge 20120731 at Sat Jun 29 17:59:24 2019
 By www
2013 published by FontShop International GmbH
</metadata>
<defs>
<font id="MarkWebW03-Regular" horiz-adv-x="1" >
  <font-face 
    font-family="MarkWebW03-Regular"
    font-weight="400"
    font-stretch="normal"
    units-per-em="2000"
    panose-1="2 11 5 4 2 1 1 1 1 2"
    ascent="1600"
    descent="-400"
    x-height="947"
    cap-height="1400"
    bbox="-1349 -477 3132 2206"
    underline-thickness="100"
    underline-position="-150"
    unicode-range="U+0020-FEFF"
  />
<missing-glyph horiz-adv-x="1201" 
d="M175 1400h851v-1400h-851v1400zM890 136v1128h-579v-1128h579z" />
    <glyph glyph-name=".notdef" horiz-adv-x="1201" 
d="M175 1400h851v-1400h-851v1400zM890 136v1128h-579v-1128h579z" />
    <glyph glyph-name="glyph1" horiz-adv-x="0" 
 />
    <glyph glyph-name="glyph1" horiz-adv-x="0" 
 />
    <glyph glyph-name="glyph2" horiz-adv-x="534" 
 />
    <glyph glyph-name="space" unicode=" " horiz-adv-x="534" 
 />
    <glyph glyph-name="exclam" unicode="!" horiz-adv-x="524" 
d="M329 445h-135l-24 955h183zM262 233q25 0 47.5 -10t40 -27.5t27.5 -40t10 -47.5t-10 -48t-27.5 -40t-40 -27.5t-47.5 -10.5t-47.5 10.5t-40 27.5t-27.5 40t-10 48t10 47.5t27.5 40t40 27.5t47.5 10z" />
    <glyph glyph-name="quotedbl" unicode="&#x22;" horiz-adv-x="1049" 
d="M432 1440v-507h-149v507h149zM766 1440v-507h-149v507h149z" />
    <glyph glyph-name="numbersign" unicode="#" horiz-adv-x="1465" 
d="M492 1032l78 368h139l-78 -368h346l78 368h139l-78 -368h228l-29 -133h-228l-83 -391h227l-28 -133h-227l-80 -375h-139l80 375h-346l-80 -375h-139l80 375h-231l29 133h230l83 391h-230l28 133h231zM519 508h346l83 391h-346z" />
    <glyph glyph-name="dollar" unicode="$" horiz-adv-x="1400" 
d="M782 1580v-190q134 -9 241.5 -49t193.5 -98l-79 -125q-71 48 -161.5 82t-194.5 43v-474l32 -4q89 -11 166.5 -37t134 -69.5t88.5 -105.5t31 -146q-1 -90 -36.5 -160t-96.5 -119.5t-143 -78.5t-176 -38v-198h-138v196q-66 4 -133 18.5t-129.5 36t-117.5 50.5t-98 63
l83 123q32 -26 76 -50t95.5 -43.5t108.5 -33t115 -18.5v479l-37 5q-89 12 -163.5 39t-127.5 71t-82.5 106t-28.5 144q1 86 35 154.5t93 118t138.5 79t172.5 38.5v191h138zM1079 400q1 88 -76 141.5t-221 76.5v-461q64 7 118 25.5t93.5 49t62 72.5t23.5 96zM362 1003
q-1 -86 67 -141t215 -77v457q-63 -7 -114.5 -26.5t-88.5 -50t-58 -71.5t-21 -91z" />
    <glyph glyph-name="percent" unicode="%" horiz-adv-x="1938" 
d="M463 1419q79 0 147 -27.5t117.5 -76t77.5 -115t28 -143.5q0 -78 -28 -144.5t-77.5 -115.5t-117.5 -76.5t-147 -27.5q-78 0 -145 27.5t-116 76.5t-77 115.5t-28 144.5q0 77 28 143.5t77 115t116 76t145 27.5zM463 1287q-48 0 -89.5 -17t-71.5 -47.5t-47.5 -73t-17.5 -92.5
q0 -51 17.5 -93.5t47.5 -73.5t71.5 -48t89.5 -17q49 0 91 17t73 48t48 73.5t17 93.5q0 50 -17 92.5t-48 73t-73 47.5t-91 17zM605 0h-156l883 1400h156zM1471 707q79 0 147 -28t117.5 -76.5t77.5 -115t28 -143.5q0 -78 -28 -144.5t-77.5 -115t-117.5 -76t-147 -27.5
q-78 0 -145 27.5t-116 76t-77 115t-28 144.5q0 77 28 143.5t77 115t116 76.5t145 28zM1471 575q-48 0 -89.5 -17t-71.5 -48t-47.5 -73t-17.5 -93t17.5 -93t47.5 -73t71.5 -48t89.5 -17q49 0 91.5 17t73 48t48 73t17.5 93t-17.5 93t-48 73t-73 48t-91.5 17z" />
    <glyph glyph-name="ampersand" unicode="&#x26;" horiz-adv-x="1406" 
d="M1154 0l-213 207q-39 -47 -83 -88.5t-96.5 -72t-115 -48t-136.5 -17.5q-92 0 -165.5 24t-125.5 69.5t-80 110.5t-28 146q0 68 23 126t61 108t88 94t103 84q-52 51 -90.5 94.5t-64 86t-38 86t-12.5 94.5q0 66 26 123t72.5 100t111.5 67.5t143 24.5q77 0 141.5 -23t111 -64
t72 -97t25.5 -123q0 -60 -22.5 -111.5t-60.5 -97t-87 -86.5t-102 -80l314 -305l217 324l120 -76l-232 -350l339 -330h-216zM519 122q52 0 95 12.5t81.5 36t73 58t68.5 78.5l-350 338q-44 -33 -83.5 -68t-69 -72.5t-46.5 -79.5t-17 -89q0 -48 18 -87t51 -67.5t78.5 -44
t100.5 -15.5zM342 1095q0 -32 8.5 -59t28.5 -56t52 -64t80 -82q44 32 83 64t68 65t46 68t17 74q0 38 -13.5 70t-38.5 55t-60.5 35.5t-78.5 12.5q-44 0 -79.5 -13.5t-60.5 -38t-38.5 -58t-13.5 -73.5z" />
    <glyph glyph-name="quotesingle" unicode="'" horiz-adv-x="715" 
d="M432 1440v-507h-149v507h149z" />
    <glyph glyph-name="parenleft" unicode="(" horiz-adv-x="817" 
d="M736 1293q-99 -41 -178.5 -113.5t-136 -167.5t-86.5 -208.5t-30 -235.5t30 -235.5t86.5 -208.5t136 -167.5t178.5 -112.5l-52 -138q-120 46 -219.5 130t-170.5 196.5t-110 249t-39 286.5q0 151 39 287t110 248.5t170.5 196.5t219.5 130z" />
    <glyph glyph-name="parenright" unicode=")" horiz-adv-x="817" 
d="M81 -155q99 40 178.5 112.5t136 168t86.5 209t30 235.5t-30 235.5t-86.5 208.5t-136 167t-178.5 113l52 138q120 -46 219.5 -130t170.5 -196.5t110 -249t39 -286.5q0 -151 -39 -287t-110 -248.5t-170.5 -196.5t-219.5 -130z" />
    <glyph glyph-name="asterisk" unicode="*" horiz-adv-x="897" 
d="M392 1171v269h114v-269l255 84l35 -110l-255 -83l158 -217l-93 -67l-158 217l-157 -217l-93 67l158 217l-255 83l35 110z" />
    <glyph glyph-name="plus" unicode="+" horiz-adv-x="1200" 
d="M529 96v365h-364v136h364v368h139v-368h367v-136h-367v-365h-139z" />
    <glyph glyph-name="comma" unicode="," horiz-adv-x="494" 
d="M361 248l-105 -507h-129l60 507h174z" />
    <glyph glyph-name="hyphen" unicode="-" horiz-adv-x="838" 
d="M697 461h-556v136h556v-136z" />
    <glyph glyph-name="period" unicode="." horiz-adv-x="523" 
d="M262 232q25 0 47.5 -10t40 -27.5t27.5 -40t10 -47.5t-10 -48t-27.5 -40t-40 -27.5t-47.5 -10.5t-47.5 10.5t-40 27.5t-27.5 40t-10 48t10 47.5t27.5 40t40 27.5t47.5 10z" />
    <glyph glyph-name="slash" unicode="/" horiz-adv-x="992" 
d="M156 -200h-165l849 1740h165z" />
    <glyph glyph-name="zero" unicode="0" horiz-adv-x="1419" 
d="M709 1418q120 0 225 -49t184 -141.5t124.5 -226t45.5 -301.5t-45.5 -301t-124.5 -226t-184 -142t-225 -49q-119 0 -224.5 49t-184 142t-124 226t-45.5 301t45.5 301.5t124 226t184 141.5t224.5 49zM709 1270q-86 0 -161.5 -37.5t-132 -110t-89.5 -178.5t-33 -244t33 -244
t89.5 -178.5t132 -110t161.5 -37.5q87 0 163 37.5t132.5 110t89.5 178.5t33 244t-33 244t-89.5 178.5t-132.5 110t-163 37.5z" />
    <glyph glyph-name="one" unicode="1" horiz-adv-x="844" 
d="M634 0h-154v1193l-414 -179v161l568 242v-1417z" />
    <glyph glyph-name="two" unicode="2" horiz-adv-x="1099" 
d="M85 1186q25 37 61 77.5t88 75t121 57t159 22.5q106 0 189.5 -33t140.5 -91t87 -137t30 -172q0 -65 -16.5 -121.5t-43.5 -105.5t-60.5 -91t-67.5 -78l-418 -442h652v-147h-881v121l529 558q64 67 104 141.5t40 164.5q0 60 -19 112.5t-56 91t-91 60.5t-124 22
q-60 0 -106.5 -14.5t-84 -38.5t-67 -56t-54.5 -66z" />
    <glyph glyph-name="three" unicode="3" horiz-adv-x="1113" 
d="M507 1418q103 0 188.5 -28t146.5 -78.5t94.5 -121t33.5 -155.5q0 -124 -60 -205t-159 -123q55 -20 101 -51.5t79 -73t51.5 -93.5t18.5 -114q0 -100 -40.5 -174t-107.5 -122.5t-153.5 -72.5t-179.5 -24q-147 0 -262 48.5t-192 135.5l99 103q66 -68 157 -105.5t195 -37.5
q65 0 123.5 15.5t103 47t70.5 80t26 113.5q0 61 -26.5 108t-72.5 79.5t-107.5 49.5t-131.5 17h-184v141h183q64 0 120.5 15.5t98 47t65.5 78.5t24 109q0 57 -24 102.5t-65.5 77.5t-98.5 49.5t-123 17.5q-53 0 -99 -13t-85 -34.5t-70.5 -50.5t-54.5 -61l-111 95
q30 45 72.5 83t96.5 65.5t119 43.5t141 16z" />
    <glyph glyph-name="four" unicode="4" horiz-adv-x="1152" 
d="M860 440h239v-146h-239v-294h-154v294h-654v119l523 986h175l-513 -959h469v390h154v-390z" />
    <glyph glyph-name="five" unicode="5" horiz-adv-x="1156" 
d="M974 1254h-618l-13 -414h206q124 0 215.5 -33t152.5 -89t91 -131t30 -159q0 -107 -37.5 -190.5t-102.5 -140.5t-152.5 -86.5t-186.5 -29.5q-295 0 -474 218l103 100q69 -82 166.5 -126.5t204.5 -44.5q77 0 136.5 22.5t100 61.5t61.5 91.5t21 111.5q0 57 -20 108t-65 89
t-116.5 60t-174.5 22h-305l18 706h759v-146z" />
    <glyph glyph-name="six" unicode="6" horiz-adv-x="1157" 
d="M425 853q33 17 76.5 28.5t100.5 11.5q98 0 183.5 -34.5t149.5 -95.5t100.5 -144.5t36.5 -181.5t-37.5 -181t-103.5 -144t-157 -95.5t-198 -34.5t-198 34.5t-157.5 95.5t-104 144t-37.5 181q0 82 26.5 156.5t77.5 153.5l417 653h188zM576 750q-73 0 -134.5 -23
t-106.5 -64.5t-71 -99t-26 -126.5q0 -68 25.5 -125.5t70.5 -99t107 -64.5t135 -23t134.5 23t106.5 64.5t70.5 99t25.5 125.5q0 69 -25.5 126.5t-70.5 99t-106.5 64.5t-134.5 23z" />
    <glyph glyph-name="seven" unicode="7" horiz-adv-x="1095" 
d="M1029 1279l-633 -1279h-180l627 1254h-764v146h950v-121z" />
    <glyph glyph-name="eight" unicode="8" horiz-adv-x="1261" 
d="M630 1418q100 0 188.5 -25.5t154.5 -74.5t104.5 -120.5t38.5 -162.5q0 -65 -19 -117t-52 -92.5t-77.5 -70t-95.5 -48.5q57 -19 107.5 -48.5t88 -70.5t59.5 -94.5t22 -120.5q0 -94 -41 -167t-111.5 -123t-165 -76t-201.5 -26t-201.5 26t-165 76t-111.5 123t-41 167
q0 67 22 120.5t59.5 94.5t88 70.5t107.5 48.5q-51 19 -95.5 48.5t-77.5 70t-52 92.5t-19 117q0 91 38.5 162.5t104.5 120.5t154.5 74.5t188.5 25.5zM630 638q-74 0 -138.5 -16.5t-113 -49t-76.5 -80t-28 -110.5t28 -111.5t76.5 -80.5t113.5 -48.5t138 -16.5t137.5 16.5
t113 48.5t76.5 80.5t28 111.5t-28 110.5t-76.5 80t-113 49t-137.5 16.5zM630 1274q-66 0 -125 -16t-103 -47t-69.5 -77.5t-25.5 -106.5q0 -63 25.5 -110.5t69.5 -79.5t103 -48t125 -16t125 16t103 48t69.5 79.5t25.5 110.5q0 60 -25.5 106.5t-69.5 77.5t-103 47t-125 16z
" />
    <glyph glyph-name="nine" unicode="9" horiz-adv-x="1157" 
d="M711 529q-34 -11 -70 -16.5t-74 -5.5q-104 0 -192 34.5t-152.5 95.5t-101 144.5t-36.5 181.5q0 97 37.5 180.5t103.5 144.5t157 95.5t198 34.5t198 -34.5t157.5 -95.5t104 -144.5t37.5 -180.5q0 -82 -26.5 -156.5t-77.5 -153.5l-417 -653h-188zM581 650q73 0 134.5 23
t106.5 64.5t70.5 99t25.5 126.5q0 68 -25.5 125.5t-70.5 99t-106.5 64.5t-134.5 23t-134.5 -23.5t-106.5 -65t-70.5 -98.5t-25.5 -125t25.5 -125.5t70.5 -99t106.5 -65t134.5 -23.5z" />
    <glyph glyph-name="colon" unicode=":" horiz-adv-x="523" 
d="M262 966q25 0 47.5 -10t40 -27t27.5 -40t10 -48t-10 -48t-27.5 -40t-40 -27.5t-47.5 -10.5t-47.5 10.5t-40 27.5t-27.5 40t-10 48t10 48t27.5 40t40 27t47.5 10zM262 233q25 0 47.5 -10t40 -27.5t27.5 -40t10 -47.5t-10 -48t-27.5 -40t-40 -27.5t-47.5 -10.5t-47.5 10.5
t-40 27.5t-27.5 40t-10 48t10 47.5t27.5 40t40 27.5t47.5 10z" />
    <glyph glyph-name="semicolon" unicode=";" horiz-adv-x="494" 
d="M257 966q25 0 47.5 -10t40 -27t27.5 -40t10 -48t-10 -48t-27.5 -40t-40 -27.5t-47.5 -10.5t-47.5 10.5t-40 27.5t-27.5 40t-10 48t10 48t27.5 40t40 27t47.5 10zM361 248l-105 -507h-129l60 507h174z" />
    <glyph glyph-name="less" unicode="&#x3c;" horiz-adv-x="1200" 
d="M994 84l-787 372v147l787 372v-159l-636 -286l636 -287v-159z" />
    <glyph glyph-name="equal" unicode="=" horiz-adv-x="1200" 
d="M1035 276h-870v136h870v-136zM1035 646h-870v136h870v-136z" />
    <glyph glyph-name="greater" unicode="&#x3e;" horiz-adv-x="1200" 
d="M207 975l787 -372v-147l-787 -372v159l636 286l-636 287v159z" />
    <glyph glyph-name="question" unicode="?" horiz-adv-x="864" 
d="M210 445v314h64q85 0 153 17.5t114.5 51.5t71.5 82t25 110q0 58 -25 103.5t-71.5 77.5t-113 49t-148.5 17q-37 0 -72.5 -2.5t-64.5 -4.5l-13 153q33 5 76.5 8t81.5 3q119 0 214.5 -28.5t162.5 -80t103 -125t36 -163.5q0 -87 -30 -157t-88 -122t-141.5 -84.5t-191.5 -43.5
l-8 -175h-135zM278 232q25 0 47.5 -10t39.5 -27.5t27 -40t10 -47.5t-10 -48t-27 -40t-39.5 -27.5t-47.5 -10.5t-48 10.5t-40 27.5t-27.5 40t-10.5 48t10.5 47.5t27.5 40t40 27.5t48 10z" />
    <glyph glyph-name="at" unicode="@" horiz-adv-x="1976" 
d="M1365 422q0 -109 29.5 -158t89.5 -49q40 0 74 20t59 59.5t39 99.5t14 140q0 145 -52 265t-143.5 206t-216.5 133.5t-271 47.5t-270.5 -51.5t-216 -143t-143.5 -217t-52 -274.5q0 -151 52 -278t143.5 -219.5t216 -144t270.5 -51.5q121 0 229.5 35.5t202.5 100.5l70 -96
q-109 -80 -235.5 -120t-266.5 -40q-177 0 -326.5 62t-259 171t-171 258t-61.5 322q0 114 28 218.5t79.5 194t125 162t164 124t197 79.5t224.5 28t224.5 -26.5t197.5 -75t164.5 -118t125 -155t79.5 -186t28 -211.5q0 -93 -22.5 -173t-64.5 -138.5t-103 -92t-139 -33.5
q-94 0 -149 42t-76 107q-46 -65 -119 -105t-176 -40q-81 0 -151 30t-122 83t-81.5 126.5t-29.5 159.5t29.5 159t81.5 126.5t122 83.5t151 30q97 0 166.5 -37t114.5 -97v119h127v-462zM974 778q-60 0 -109.5 -21.5t-85 -59t-55 -88.5t-19.5 -109q0 -59 19.5 -109.5t55 -88
t85 -59t109.5 -21.5q59 0 108.5 21t85.5 58.5t56 88t20 110.5t-20 110.5t-56 88t-85.5 58.5t-108.5 21z" />
    <glyph glyph-name="A" unicode="A" horiz-adv-x="1421" 
d="M1385 0h-172l-159 390h-693l-158 -390h-167l575 1400h199zM423 542h570l-285 699z" />
    <glyph glyph-name="B" unicode="B" horiz-adv-x="1402" 
d="M744 1400q110 0 203 -20.5t160.5 -64.5t105 -114t37.5 -170q0 -59 -15.5 -109t-43 -89t-66.5 -67.5t-86 -44.5q52 -17 96.5 -46.5t76.5 -71.5t50 -95.5t18 -118.5q0 -102 -36 -175.5t-102.5 -121t-161 -70t-210.5 -22.5h-568v1400h542zM363 635v-484h400q79 0 143 11.5
t109.5 39.5t70.5 74.5t25 117.5q0 70 -25 116t-70.5 74t-109.5 39.5t-143 11.5h-400zM363 1249v-464h376q72 0 134.5 10t108.5 36.5t72.5 71.5t26.5 116q0 69 -26.5 113.5t-72.5 70.5t-109 36t-135 10h-375z" />
    <glyph glyph-name="C" unicode="C" horiz-adv-x="1530" 
d="M844 1420q91 0 176.5 -20t159.5 -57.5t134 -91.5t101 -121l-134 -90q-35 52 -81.5 93.5t-102.5 71t-120 45t-133 15.5q-118 0 -219 -41t-175.5 -115t-117 -178.5t-42.5 -230.5t42.5 -230.5t117 -178.5t175.5 -115t219 -41q140 0 253 59t184 165l130 -96
q-44 -66 -104 -118t-132.5 -89t-156.5 -56.5t-174 -19.5q-156 0 -288.5 53.5t-229 149t-151 227.5t-54.5 290q0 157 54.5 289.5t151 228t229 149t288.5 53.5z" />
    <glyph glyph-name="D" unicode="D" horiz-adv-x="1598" 
d="M729 1400q171 0 309.5 -49.5t235.5 -140.5t149.5 -220.5t52.5 -289.5t-52.5 -289.5t-149.5 -220.5t-235.5 -140.5t-309.5 -49.5h-527v1400h527zM363 1248v-1096h366q142 0 250 39.5t181 111.5t110 173t37 224q0 124 -37 225t-110 173t-181 111t-250 39h-366z" />
    <glyph glyph-name="E" unicode="E" horiz-adv-x="1348" 
d="M1187 0h-985v1400h976v-151h-815v-469h790v-150h-790v-479h824v-151z" />
    <glyph glyph-name="F" unicode="F" horiz-adv-x="1292" 
d="M1133 629h-770v-629h-161v1400h969v-152h-808v-467h770v-152z" />
    <glyph glyph-name="G" unicode="G" horiz-adv-x="1639" 
d="M844 1420q168 0 307 -62t236 -173l-119 -114q-75 91 -184 142.5t-240 51.5q-118 0 -219 -41t-175.5 -115t-117 -178.5t-42.5 -230.5t42.5 -230.5t116 -178.5t173.5 -115t215 -41q111 0 200 32t153.5 92t103 145.5t47.5 193.5h-436v150h610q1 -11 1.5 -21t0.5 -20
q0 -153 -47 -285.5t-135 -230.5t-214 -154t-284 -56q-138 0 -267 48.5t-229 141t-160 226t-60 303.5q0 105 25 199.5t71 174.5t111 144t145 109t174 69t197 24z" />
    <glyph glyph-name="H" unicode="H" horiz-adv-x="1573" 
d="M363 781h847v619h161v-1400h-161v629h-847v-629h-161v1400h161v-619z" />
    <glyph glyph-name="I" unicode="I" horiz-adv-x="565" 
d="M363 0h-161v1400h161v-1400z" />
    <glyph glyph-name="J" unicode="J" horiz-adv-x="1150" 
d="M958 499q0 -125 -37 -221.5t-102 -162.5t-154 -100t-193 -34q-84 0 -151 17.5t-120 46t-92.5 63.5t-68.5 70l108 110q25 -31 57 -59t72 -49t88.5 -33t105.5 -12q73 0 133.5 24t103.5 72t66.5 119t23.5 165v885h160v-901z" />
    <glyph glyph-name="K" unicode="K" horiz-adv-x="1388" 
d="M529 628h-166v-628h-161v1400h161v-620h169l581 620h208l-658 -687l701 -713h-219z" />
    <glyph glyph-name="L" unicode="L" horiz-adv-x="1213" 
d="M1173 0h-971v1400h161v-1248h810v-152z" />
    <glyph glyph-name="M" unicode="M" horiz-adv-x="1870" 
d="M1668 0h-161v1220l-488 -1065h-169l-487 1057v-1212h-161v1400h244l489 -1058l488 1058h245v-1400z" />
    <glyph glyph-name="N" unicode="N" horiz-adv-x="1577" 
d="M1375 0h-145l-867 1124v-1124h-161v1400h145l867 -1124v1124h161v-1400z" />
    <glyph glyph-name="O" unicode="O" horiz-adv-x="1689" 
d="M844 1420q156 0 288.5 -53.5t229 -149t151 -228t54.5 -289.5q0 -158 -54.5 -290t-151 -227.5t-229 -149t-288.5 -53.5t-288.5 53.5t-229 149t-151 227.5t-54.5 290q0 157 54.5 289.5t151 228t229 149t288.5 53.5zM844 1265q-118 0 -219 -41t-175.5 -115t-117 -178.5
t-42.5 -230.5t42.5 -230.5t117 -178.5t175.5 -115t219 -41t219.5 41t176 115t117 178.5t42.5 230.5t-42.5 230.5t-117 178.5t-176 115t-219.5 41z" />
    <glyph glyph-name="P" unicode="P" horiz-adv-x="1328" 
d="M363 563v-563h-161v1400h529q118 0 210 -28.5t155.5 -82.5t96.5 -132t33 -176t-33 -175.5t-96.5 -131.5t-155.5 -82.5t-210 -28.5h-368zM363 1248v-534h363q163 0 248 66.5t85 200.5t-85 200.5t-248 66.5h-363z" />
    <glyph glyph-name="Q" unicode="Q" horiz-adv-x="1689" 
d="M844 1420q156 0 288.5 -53.5t229 -149t151 -228t54.5 -289.5q0 -137 -41 -253.5t-115 -207.5l185 -239h-189l-105 131q-92 -72 -208 -111.5t-250 -39.5q-156 0 -288.5 53.5t-229 149t-151 227.5t-54.5 290q0 157 54.5 289.5t151 228t229 149t288.5 53.5zM844 1265
q-118 0 -219 -41t-175.5 -115t-117 -178.5t-42.5 -230.5t42.5 -230.5t117 -178.5t175.5 -115t219 -41q105 0 196 31.5t163 91.5l-324 415h192l235 -300q45 67 69 149t24 178q0 126 -42.5 230.5t-117 178.5t-176 115t-219.5 41z" />
    <glyph glyph-name="R" unicode="R" horiz-adv-x="1353" 
d="M751 1400q118 0 209 -26t153.5 -76.5t94.5 -124t32 -168.5q0 -91 -34 -164t-97.5 -124.5t-153.5 -79.5t-202 -28h-23l503 -609h-200l-493 609h-177v-609h-161v1400h549zM363 1249v-494h386q161 0 242.5 63.5t81.5 186.5q0 122 -83 183t-241 61h-386z" />
    <glyph glyph-name="S" unicode="S" horiz-adv-x="1346" 
d="M1116 1135q-85 58 -190 94.5t-232 36.5q-79 0 -145.5 -17.5t-114.5 -50t-75 -79.5t-27 -106q0 -98 79.5 -153t243.5 -74l133 -16q87 -11 166 -35.5t139 -68t96 -108.5t36 -156q0 -104 -44 -182.5t-119.5 -131.5t-176.5 -80t-214 -27q-76 0 -153 13t-148.5 36.5
t-135.5 56.5t-113 74l88 128q36 -31 87 -59t111.5 -49.5t127.5 -34.5t135 -13q81 0 152 16.5t123.5 48.5t82.5 79.5t30 110.5q0 102 -86.5 156t-252.5 73l-141 16q-90 10 -165.5 36.5t-130.5 71.5t-86 110t-31 152q0 100 41.5 177t113.5 130t168.5 80.5t206.5 27.5
q80 0 150.5 -11.5t132.5 -31.5t117 -48t103 -62z" />
    <glyph glyph-name="T" unicode="T" horiz-adv-x="1212" 
d="M1172 1248h-486v-1248h-160v1248h-486v152h1132v-152z" />
    <glyph glyph-name="U" unicode="U" horiz-adv-x="1517" 
d="M1335 548q0 -143 -45 -249t-123.5 -177t-183.5 -106t-225 -35t-225 35t-183 106t-123 177t-45 249v852h160v-840q0 -110 31.5 -190t87 -132.5t131.5 -77.5t166 -25t166 25t131.5 77.5t87 132.5t31.5 190v840h161v-852z" />
    <glyph glyph-name="V" unicode="V" horiz-adv-x="1394" 
d="M797 0h-199l-562 1400h171l492 -1240l493 1240h166z" />
    <glyph glyph-name="W" unicode="W" horiz-adv-x="2197" 
d="M1684 0h-198l-388 1186l-388 -1186h-197l-455 1400h168l387 -1218l396 1218h182l395 -1219l388 1219h165z" />
    <glyph glyph-name="X" unicode="X" horiz-adv-x="1367" 
d="M782 716l525 -716h-194l-431 593l-432 -593h-190l525 716l-501 684h194l407 -561l408 561h191z" />
    <glyph glyph-name="Y" unicode="Y" horiz-adv-x="1287" 
d="M725 587v-587h-160v589l-554 811h192l443 -664l443 664h187z" />
    <glyph glyph-name="Z" unicode="Z" horiz-adv-x="1314" 
d="M1190 1276l-855 -1124h858v-152h-1072v124l856 1124h-846v152h1059v-124z" />
    <glyph glyph-name="bracketleft" unicode="[" horiz-adv-x="752" 
d="M671 -263h-469v1663h469v-138h-315v-1387h315v-138z" />
    <glyph glyph-name="backslash" unicode="\" horiz-adv-x="992" 
d="M-13 1540h165l849 -1740h-165z" />
    <glyph glyph-name="bracketright" unicode="]" horiz-adv-x="752" 
d="M81 1400h469v-1663h-469v138h315v1387h-315v138z" />
    <glyph glyph-name="asciicircum" unicode="^" horiz-adv-x="1200" 
d="M171 648l356 752h146l356 -752h-162l-269 596l-269 -596h-158z" />
    <glyph glyph-name="underscore" unicode="_" horiz-adv-x="937" 
d="M942 -272h-947v136h947v-136z" />
    <glyph glyph-name="grave" unicode="`" horiz-adv-x="939" 
d="M522 1092l-251 300h189l209 -300h-147z" />
    <glyph glyph-name="a" unicode="a" horiz-adv-x="1246" 
d="M1071 0h-149v141q-57 -73 -142.5 -116.5t-203.5 -43.5q-100 0 -186.5 37t-150 102.5t-100 156t-36.5 197.5q0 106 36.5 196.5t100 156t150 102.5t186.5 37q118 0 203.5 -44t142.5 -116v141h149v-947zM594 826q-76 0 -138.5 -27.5t-107 -75.5t-69 -112t-24.5 -137
q0 -74 24.5 -138t69.5 -112t107.5 -75.5t137.5 -27.5q74 0 136 27t106.5 74t69.5 112t25 140t-25 139.5t-69.5 111.5t-106.5 74t-136 27z" />
    <glyph glyph-name="b" unicode="b" horiz-adv-x="1246" 
d="M670 966q100 0 186 -37t150 -102.5t100.5 -156t36.5 -196.5q0 -107 -36.5 -197.5t-100.5 -156t-150 -102.5t-186 -37q-118 0 -203 43.5t-142 115.5v-140h-150v1440h150v-633q57 72 142 115.5t203 43.5zM652 826q-74 0 -136 -27t-106.5 -74t-69.5 -111.5t-25 -139.5
t25 -140t69.5 -112t106.5 -74t136 -27q76 0 138.5 27.5t106.5 75.5t68.5 112t24.5 138q0 73 -24.5 137t-69 112t-107 75.5t-137.5 27.5z" />
    <glyph glyph-name="c" unicode="c" horiz-adv-x="1024" 
d="M593 966q106 0 196.5 -38t154.5 -111l-96 -101q-54 52 -117.5 81t-141.5 29q-71 0 -132 -26.5t-106 -73t-70.5 -111.5t-25.5 -141q0 -77 25.5 -141.5t70.5 -111.5t106 -73.5t132 -26.5q78 0 144.5 31t117.5 80l93 -102q-65 -73 -155 -111t-196 -38q-109 0 -199.5 37.5
t-155 103.5t-100 156.5t-35.5 195.5t35.5 195t100 156t155 103.5t199.5 37.5z" />
    <glyph glyph-name="d" unicode="d" horiz-adv-x="1246" 
d="M576 966q118 0 203.5 -44t142.5 -116v634h149v-1440h-149v141q-57 -73 -142.5 -116.5t-203.5 -43.5q-100 0 -186.5 37t-150 102.5t-100 156t-36.5 197.5q0 106 36.5 196.5t100 156t150 102.5t186.5 37zM594 826q-76 0 -138.5 -27.5t-107 -75.5t-69 -112t-24.5 -137
q0 -74 24.5 -138t69.5 -112t107.5 -75.5t137.5 -27.5q74 0 136 27t106.5 74t69.5 112t25 140t-25 139.5t-69.5 111.5t-106.5 74t-136 27z" />
    <glyph glyph-name="e" unicode="e" horiz-adv-x="1121" 
d="M573 966q96 0 177.5 -36t140.5 -100.5t92.5 -154.5t34.5 -198q0 -31 -3 -56h-759q8 -77 37 -134.5t74 -96.5t102.5 -58.5t121.5 -19.5q88 0 163.5 31.5t136.5 87.5l80 -102q-44 -42 -91 -70.5t-95.5 -46t-99.5 -24.5t-103 -7q-105 0 -193 35.5t-151.5 100.5t-99 155.5
t-35.5 200.5q0 109 35.5 199.5t98.5 155.5t149 101.5t187 36.5zM570 833q-66 0 -119.5 -21.5t-93 -60t-65 -92t-34.5 -117.5h608q-7 66 -31.5 120t-63 92t-90 58.5t-111.5 20.5z" />
    <glyph glyph-name="f" unicode="f" horiz-adv-x="863" 
d="M796 812h-377v-812h-150v812h-216v135h216v162q0 76 17.5 140t56 110.5t98 73t143.5 26.5q81 0 144.5 -20t114.5 -51l-54 -125q-38 23 -89.5 39.5t-105.5 16.5q-92 0 -133.5 -55t-41.5 -155v-162h377v-135z" />
    <glyph glyph-name="g" unicode="g" horiz-adv-x="1235" 
d="M572 966q115 0 199.5 -43.5t138.5 -117.5v142h150v-882q0 -116 -37 -205.5t-103.5 -150.5t-158.5 -92.5t-202 -31.5q-57 0 -112.5 8.5t-107.5 25t-97.5 40t-81.5 53.5l66 120q68 -51 152 -81t181 -30q77 0 141.5 21.5t111 64.5t72.5 106t26 146v97q-54 -75 -138.5 -118
t-199.5 -43q-100 0 -185.5 35.5t-148.5 100t-99 153.5t-36 197q0 107 36 196.5t99 153.5t148.5 99.5t185.5 35.5zM589 826q-75 0 -137 -27t-105.5 -74t-67.5 -109.5t-24 -134.5t24 -135t67.5 -110t105.5 -74t137 -27q73 0 134.5 26.5t105.5 73t69 109.5t25 137q0 73 -25 136
t-69 109.5t-105.5 73t-134.5 26.5z" />
    <glyph glyph-name="h" unicode="h" horiz-adv-x="1201" 
d="M325 815q29 41 66 70t78.5 47t85.5 26t87 8q88 0 160.5 -27t124.5 -76.5t81 -119.5t29 -156v-587h-149v538q0 136 -71 211t-202 75q-60 0 -112.5 -20t-92 -57.5t-62.5 -91.5t-23 -121v-534h-150v1440h150v-625z" />
    <glyph glyph-name="i" unicode="i" horiz-adv-x="500" 
d="M325 0h-150v947h150v-947zM250 1389q22 0 41.5 -8t33.5 -22.5t22.5 -34t8.5 -41.5q0 -23 -8.5 -42t-22.5 -33t-33.5 -22t-41.5 -8q-45 0 -75 30t-30 75t30 75.5t75 30.5z" />
    <glyph glyph-name="j" unicode="j" horiz-adv-x="504" 
d="M329 -156q0 -63 -17 -111.5t-47.5 -81t-74 -49.5t-97.5 -17q-37 0 -73.5 9t-62.5 23l36 129q18 -9 40.5 -14.5t46.5 -5.5q46 0 72.5 29.5t26.5 95.5v1096h150v-1103zM253 1389q22 0 41.5 -8t33.5 -22.5t22.5 -34t8.5 -41.5q0 -23 -8.5 -42t-22.5 -33t-33.5 -22t-41.5 -8
q-45 0 -75 30t-30 75t30 75.5t75 30.5z" />
    <glyph glyph-name="k" unicode="k" horiz-adv-x="1058" 
d="M325 563h137l365 384h187l-430 -446l437 -501h-189l-371 427h-136v-427h-150v1440h150v-877z" />
    <glyph glyph-name="l" unicode="l" horiz-adv-x="500" 
d="M325 0h-150v1440h150v-1440z" />
    <glyph glyph-name="m" unicode="m" horiz-adv-x="1914" 
d="M1354 966q88 0 161 -27t125 -76.5t81 -119.5t29 -156v-587h-149v538q0 136 -71.5 211t-202.5 75q-60 0 -112.5 -20t-92 -57.5t-62.5 -91.5t-23 -121v-534h-149v538q0 136 -71 211t-202 75q-60 0 -112.5 -20t-92 -57.5t-62.5 -91.5t-23 -121v-534h-150v947h148v-135
q29 42 66 71.5t79 48t86 26.5t88 8q125 0 217 -52.5t138 -146.5q28 55 69 93t88 61.5t98.5 34t101.5 10.5z" />
    <glyph glyph-name="n" unicode="n" horiz-adv-x="1201" 
d="M642 966q88 0 160.5 -27t124.5 -76.5t81 -119.5t29 -156v-587h-149v538q0 136 -71 211t-202 75q-60 0 -112.5 -20t-92 -57.5t-62.5 -91.5t-23 -121v-534h-150v947h148v-135q29 42 66 71.5t79 48t86 26.5t88 8z" />
    <glyph glyph-name="o" unicode="o" horiz-adv-x="1203" 
d="M601 966q107 0 198.5 -37.5t158 -103.5t104.5 -156t38 -195t-38 -195.5t-104.5 -156.5t-158 -103.5t-198.5 -37.5t-198 37.5t-158 103.5t-104.5 156.5t-37.5 195.5t37.5 195t104.5 156t158 103.5t198 37.5zM601 826q-74 0 -137 -26.5t-109.5 -73t-73 -111.5t-26.5 -141
q0 -77 26.5 -141.5t73 -111.5t109.5 -73.5t137 -26.5q73 0 136.5 26.5t110 73.5t73 111.5t26.5 141.5q0 76 -26.5 141t-73 111.5t-110 73t-136.5 26.5z" />
    <glyph glyph-name="p" unicode="p" horiz-adv-x="1246" 
d="M670 966q100 0 186 -37t150 -102.5t100.5 -156t36.5 -196.5q0 -107 -36.5 -197.5t-100.5 -156t-150 -102.5t-186 -37q-118 0 -203 43.5t-142 115.5v-540h-150v1347h150v-140q57 72 142 115.5t203 43.5zM652 826q-74 0 -136 -27t-106.5 -74t-69.5 -111.5t-25 -139.5
t25 -140t69.5 -112t106.5 -74t136 -27q76 0 138.5 27.5t106.5 75.5t68.5 112t24.5 138q0 73 -24.5 137t-69 112t-107 75.5t-137.5 27.5z" />
    <glyph glyph-name="q" unicode="q" horiz-adv-x="1246" 
d="M576 966q118 0 203.5 -44t142.5 -116v141h149v-1347h-149v541q-57 -73 -142.5 -116.5t-203.5 -43.5q-100 0 -186.5 37t-150 102.5t-100 156t-36.5 197.5q0 106 36.5 196.5t100 156t150 102.5t186.5 37zM594 826q-76 0 -138.5 -27.5t-107 -75.5t-69 -112t-24.5 -137
q0 -74 24.5 -138t69.5 -112t107.5 -75.5t137.5 -27.5q74 0 136 27t106.5 74t69.5 112t25 140t-25 139.5t-69.5 111.5t-106.5 74t-136 27z" />
    <glyph glyph-name="r" unicode="r" horiz-adv-x="830" 
d="M604 966q51 0 93.5 -7.5t80.5 -24.5l-36 -147q-35 19 -78.5 28.5t-85.5 9.5q-56 0 -102.5 -21t-80 -59.5t-52.5 -93t-19 -121.5v-530h-149v947h148v-133q49 73 121 112.5t160 39.5z" />
    <glyph glyph-name="s" unicode="s" horiz-adv-x="987" 
d="M811 746q-23 16 -56 31.5t-73.5 28.5t-86.5 21t-94 8q-51 0 -92 -10.5t-70.5 -29.5t-45.5 -47t-16 -62q0 -60 49.5 -91t143.5 -42l112 -14q151 -20 234.5 -84t83.5 -180q0 -68 -29.5 -122t-83.5 -92t-131 -58.5t-173 -20.5q-46 0 -96.5 6t-102 20.5t-101.5 37.5t-95 57
l69 112q27 -21 59 -39.5t72 -33t88.5 -22.5t108.5 -8q120 0 190.5 39t70.5 114q0 57 -48.5 91.5t-149.5 46.5l-113 13q-161 20 -237 88t-76 174q0 67 27 120.5t76.5 90.5t119.5 56.5t155 19.5q112 0 209.5 -28.5t166.5 -74.5z" />
    <glyph glyph-name="t" unicode="t" horiz-adv-x="906" 
d="M818 812h-409v-478q0 -56 14 -96t39 -66t59.5 -38.5t75.5 -12.5q55 0 106 18.5t93 48.5l70 -113q-54 -41 -123.5 -67.5t-157.5 -26.5q-77 0 -137 21t-102 64.5t-64 109.5t-22 155v481h-207v135h207v301h149v-301h409v-135z" />
    <glyph glyph-name="u" unicode="u" horiz-adv-x="1188" 
d="M1024 395q0 -105 -35 -183t-94.5 -129.5t-137.5 -76.5t-163 -25q-86 0 -164 25t-137 76.5t-94 129.5t-35 183v552h149v-538q0 -74 21 -128t58.5 -89.5t89 -53t112.5 -17.5t112 17.5t88.5 53t58.5 89.5t21 128v538h150v-552z" />
    <glyph glyph-name="v" unicode="v" horiz-adv-x="1042" 
d="M609 -2h-175l-404 949h162l331 -797l331 797h158z" />
    <glyph glyph-name="w" unicode="w" horiz-adv-x="1706" 
d="M1221 155l285 792h155l-350 -947h-177l-283 787l-282 -787h-174l-350 947h159l283 -791l282 791h168z" />
    <glyph glyph-name="x" unicode="x" horiz-adv-x="1023" 
d="M607 485l381 -485h-183l-299 374l-296 -374h-175l380 484l-370 463h183l286 -359l287 359h176z" />
    <glyph glyph-name="y" unicode="y" horiz-adv-x="1054" 
d="M268 -404h-165l353 609l-435 742h167l353 -594l334 594h164z" />
    <glyph glyph-name="z" unicode="z" horiz-adv-x="1055" 
d="M924 838l-604 -703h613v-135h-811v108l610 704h-592v135h784v-109z" />
    <glyph glyph-name="braceleft" unicode="{" horiz-adv-x="854" 
d="M714 1262q-51 0 -92.5 -14.5t-71 -44t-44 -74t-11.5 -104.5l8 -134q7 -127 -46.5 -207.5t-157.5 -114.5q104 -34 157.5 -114.5t46.5 -207.5l-8 -134q-3 -60 11.5 -104.5t44 -74t71 -44t92.5 -14.5h59v-138h-59q-92 0 -163.5 26t-119.5 76t-71 123t-18 166l7 134
q3 60 -12 104.5t-45 74t-73.5 44t-97.5 14.5v138q54 0 97.5 14.5t73.5 44t45 74t12 104.5l-7 134q-5 93 18 166t71 123t119.5 76t163.5 26h59v-138h-59z" />
    <glyph glyph-name="bar" unicode="|" horiz-adv-x="715" 
d="M432 -265h-149v1665h149v-1665z" />
    <glyph glyph-name="braceright" unicode="}" horiz-adv-x="854" 
d="M140 -124q51 0 92.5 14.5t71 44t44 74t11.5 104.5l-8 134q-7 127 46.5 207.5t157.5 114.5q-104 34 -157.5 114.5t-46.5 207.5l8 134q3 60 -11.5 104.5t-44 74t-71 44t-92.5 14.5h-59v138h59q92 0 163.5 -26t119.5 -76t71 -123t18 -166l-7 -134q-3 -60 12 -104.5t45 -74
t73.5 -44t97.5 -14.5v-138q-54 0 -97.5 -14.5t-73.5 -44t-45 -74t-12 -104.5l7 -134q5 -93 -18 -166t-71 -123t-119.5 -76t-163.5 -26h-59v138h59z" />
    <glyph glyph-name="asciitilde" unicode="~" horiz-adv-x="1200" 
d="M1048 539q-55 -60 -116.5 -89t-147.5 -29q-47 0 -82.5 6.5t-65 16t-55 20.5t-52.5 20.5t-56.5 16t-67.5 6.5q-49 0 -88.5 -20.5t-83.5 -62.5l-81 94q54 60 115.5 89t147.5 29q47 0 82.5 -6.5t65 -16t55.5 -20.5t52.5 -20.5t56 -16t67.5 -6.5q49 0 88.5 20.5t83.5 62.5z
" />
    <glyph glyph-name="uni00A0" unicode="&#xa0;" horiz-adv-x="534" 
 />
    <glyph glyph-name="exclamdown" unicode="&#xa1;" horiz-adv-x="524" 
d="M195 502h135l24 -955h-183zM262 714q-25 0 -47.5 10t-40 27.5t-27.5 40t-10 47.5t10 48t27.5 40t40 27.5t47.5 10.5t47.5 -10.5t40 -27.5t27.5 -40t10 -48t-10 -47.5t-27.5 -40t-40 -27.5t-47.5 -10z" />
    <glyph glyph-name="cent" unicode="&#xa2;" horiz-adv-x="1400" 
d="M817 1400v-211q96 -7 178 -44t142 -102l-88 -97q-50 45 -107 72.5t-125 34.5v-707q69 8 129 37t107 72l84 -98q-61 -66 -143 -103t-177 -44v-210h-138v216q-94 15 -170.5 57.5t-130.5 106t-83.5 145.5t-29.5 175t29.5 174.5t83.5 145t130.5 106t170.5 57.5v217h138z
M412 700q0 -65 19.5 -122t55 -101.5t84.5 -76t108 -45.5v690q-59 -14 -108 -45.5t-84.5 -76t-55 -101.5t-19.5 -122z" />
    <glyph glyph-name="sterling" unicode="&#xa3;" horiz-adv-x="1400" 
d="M1216 0h-1032v147h179v485h-179v136h179v137q0 128 37.5 224.5t101.5 160.5t149.5 96t181.5 32q112 0 206 -40.5t161 -121.5l-113 -100q-46 58 -110.5 86.5t-143.5 28.5q-68 0 -125.5 -22.5t-100 -68.5t-66.5 -117.5t-24 -168.5v-126h528v-136h-528v-485h699v-147z" />
    <glyph glyph-name="currency" unicode="&#xa4;" horiz-adv-x="1400" 
d="M292 1196l146 -145q55 41 122 64t142 23q74 0 141 -22.5t122 -64.5l143 145l88 -88l-144 -144q42 -56 65.5 -122.5t23.5 -141.5t-23 -142t-65 -123l144 -143l-88 -88l-144 144q-55 -42 -121.5 -64.5t-141.5 -22.5t-142.5 23t-122.5 65l-144 -145l-87 88l144 144
q-42 55 -65 122t-23 142t22.5 141.5t64.5 121.5l-144 145zM702 383q66 0 123 24.5t100 67.5t67.5 101t24.5 124t-24.5 123.5t-67.5 100.5t-100 67.5t-123 24.5t-124 -24.5t-100.5 -67.5t-67 -100.5t-24.5 -123.5t24.5 -124t67 -101t100.5 -67.5t124 -24.5z" />
    <glyph glyph-name="yen" unicode="&#xa5;" horiz-adv-x="1400" 
d="M1179 317h-397v-317h-154v317h-397v123h397v197h-397v123h330l-454 640h184l414 -593l408 593h181l-448 -640h333v-123h-397v-197h397v-123z" />
    <glyph glyph-name="brokenbar" unicode="&#xa6;" horiz-adv-x="715" 
d="M432 706h-149v694h149v-694zM432 -265h-149v694h149v-694z" />
    <glyph glyph-name="section" unicode="&#xa7;" horiz-adv-x="1309" 
d="M1057 1160q-74 50 -170 84.5t-208 34.5q-71 0 -131.5 -14t-104 -41t-68 -65t-24.5 -86q0 -83 78 -127t224 -60l116 -13q79 -9 150.5 -31t126 -59.5t86.5 -92t32 -129.5q0 -86 -43 -150t-116 -107q63 -38 100.5 -95.5t37.5 -138.5q0 -91 -40 -158.5t-108.5 -112.5
t-159.5 -67.5t-192 -22.5q-72 0 -142 11.5t-134.5 32.5t-120.5 49.5t-101 63.5l80 121q34 -27 79 -51.5t98.5 -44t114 -31t126.5 -11.5q73 0 136.5 13t110.5 39t74 65t27 92q0 42 -22.5 73.5t-63.5 54t-98 36.5t-126 22l-126 14q-80 9 -148.5 31.5t-119.5 61t-80 93
t-29 128.5q0 83 41 146.5t113 106.5q-62 38 -98 96.5t-36 141.5q0 84 37.5 150t102.5 111.5t152.5 69.5t187.5 24q70 0 133.5 -10.5t120 -28.5t106 -43t92.5 -54zM577 749q-28 3 -54.5 8t-52.5 11q-66 -26 -103 -73.5t-37 -112.5q0 -83 78.5 -127t223.5 -60l118 -13
q31 -4 60.5 -9t58.5 -13q66 26 104.5 73t38.5 116q0 42 -22.5 73t-63.5 53.5t-98 37t-126 22.5z" />
    <glyph glyph-name="dieresis" unicode="&#xa8;" horiz-adv-x="953" 
d="M273 1343q22 0 41.5 -8.5t33.5 -22.5t22.5 -34t8.5 -42q0 -23 -8.5 -42t-22.5 -33t-33.5 -22t-41.5 -8q-45 0 -75.5 30t-30.5 75q0 22 8 42t22.5 34t33.5 22.5t42 8.5zM679 1343q22 0 41.5 -8.5t33.5 -22.5t22.5 -34t8.5 -42q0 -23 -8.5 -42t-22.5 -33t-33.5 -22
t-41.5 -8q-45 0 -75 30t-30 75q0 22 8 42t22 34t33 22.5t42 8.5z" />
    <glyph glyph-name="copyright" unicode="&#xa9;" horiz-adv-x="1903" 
d="M951 1508q111 0 214 -28.5t192.5 -81t163 -125.5t126 -161.5t81.5 -191t29 -212.5t-29 -212.5t-81.5 -191.5t-126 -162.5t-163 -126t-192.5 -81t-214 -28.5t-214.5 28.5t-193 81t-163 126t-126 162.5t-81 191t-28.5 213q0 110 28.5 212.5t81 191t126 161.5t163 125.5
t192.5 81t215 28.5zM951 1376q-139 0 -261 -52.5t-213 -143t-143.5 -212t-52.5 -260.5t52.5 -261t143.5 -213t213 -143.5t261 -52.5q92 0 178 24t160.5 67.5t135.5 104.5t104.5 135.5t67.5 160t24 178.5q0 92 -24 177.5t-67.5 160t-104.5 135.5t-135.5 104t-160.5 67
t-178 24zM1203 884q-38 57 -98 89.5t-134 32.5q-60 0 -112 -22t-90 -61.5t-60 -94t-22 -120.5q0 -70 22.5 -125.5t61.5 -94t90.5 -59t109.5 -20.5q74 0 134.5 32.5t99.5 89.5l105 -82q-55 -79 -142 -124.5t-196 -45.5q-91 0 -169 31.5t-135 88.5t-89.5 136t-32.5 173
t32.5 173t89.5 136t135 88.5t169 31.5q109 0 198.5 -47t143.5 -131z" />
    <glyph glyph-name="ordfeminine" unicode="&#xaa;" horiz-adv-x="785" 
d="M373 1292q67 0 121 -17t92.5 -52t59.5 -87.5t21 -122.5v-396h-121v89q-39 -44 -97 -73.5t-136 -29.5q-54 0 -97.5 15t-74 42.5t-46.5 65t-16 82.5q0 91 71 144t202 53h191q-2 91 -49 134t-135 43q-63 0 -112 -21t-85 -50l-49 95q52 40 117 63t143 23zM341 705
q61 0 113.5 28t90.5 72v113h-175q-44 0 -74.5 -8.5t-50 -23t-28.5 -34t-9 -41.5q0 -43 33.5 -74.5t99.5 -31.5z" />
    <glyph glyph-name="guillemotleft" unicode="&#xab;" horiz-adv-x="1021" 
d="M874 159h-160l-192 370l192 370h160l-191 -370zM478 159h-160l-192 370l192 370h160l-191 -370z" />
    <glyph glyph-name="logicalnot" unicode="&#xac;" horiz-adv-x="1200" 
d="M1035 147h-138v314h-732v136h870v-450z" />
    <glyph glyph-name="uni00AD" unicode="&#xad;" horiz-adv-x="838" 
d="M697 461h-556v136h556v-136z" />
    <glyph glyph-name="registered" unicode="&#xae;" horiz-adv-x="930" 
d="M466 1435q86 0 161.5 -32t132 -87.5t89 -130t32.5 -158.5t-32.5 -158t-89 -129.5t-132 -88t-161.5 -32.5q-88 0 -164.5 32.5t-132.5 88t-88.5 129.5t-32.5 158t32.5 158.5t88.5 130t132.5 87.5t164.5 32zM466 709q66 0 123 25t100 68t67.5 101t24.5 124t-24.5 124
t-67.5 101t-100 67.5t-123 24.5q-67 0 -125.5 -24.5t-101.5 -67.5t-67.5 -101t-24.5 -124t24.5 -124t67.5 -101t101.5 -68t125.5 -25zM490 1218q73 0 112.5 -32.5t39.5 -88.5q0 -47 -31.5 -77.5t-89.5 -37.5l124 -143h-97l-115 142h-37v-142h-81v379h175zM396 1147v-101h93
q32 0 51 12.5t19 38.5q0 25 -19 37.5t-51 12.5h-93z" />
    <glyph glyph-name="macron" unicode="&#xaf;" horiz-adv-x="939" 
d="M171 1296h598v-121h-598v121z" />
    <glyph glyph-name="degree" unicode="&#xb0;" horiz-adv-x="795" 
d="M397 728q-72 0 -136 27t-111 74t-74.5 110t-27.5 135t27.5 134.5t74.5 109.5t111 74t136 27t135.5 -27t111 -74t75 -109.5t27.5 -134.5t-27.5 -135t-75 -110t-111 -74t-135.5 -27zM397 850q45 0 85 17.5t70 47.5t47.5 71t17.5 88q0 46 -17.5 87t-47.5 71t-70 47.5
t-85 17.5t-85.5 -17.5t-70.5 -47.5t-47.5 -71t-17.5 -87q0 -47 17.5 -88t47.5 -71t70.5 -47.5t85.5 -17.5z" />
    <glyph glyph-name="plusminus" unicode="&#xb1;" horiz-adv-x="1200" 
d="M529 293v303h-364v135h364v348h139v-348h367v-135h-367v-303h-139zM1035 45h-870v136h870v-136z" />
    <glyph glyph-name="uni00B2" unicode="&#xb2;" horiz-adv-x="681" 
d="M65 1277q16 22 39 45.5t55 43t73.5 32t94.5 12.5q61 0 109.5 -18t82 -50.5t51 -77.5t17.5 -98q0 -71 -31.5 -125t-83.5 -106l-201 -203h340v-115h-517v97l291 291q34 34 54 70.5t20 80.5q0 59 -38 97.5t-105 38.5q-31 0 -56 -7.5t-45.5 -20.5t-37.5 -29.5t-32 -34.5z" />
    <glyph glyph-name="uni00B3" unicode="&#xb3;" horiz-adv-x="685" 
d="M308 1410q61 0 111.5 -15.5t86.5 -44t56 -68.5t20 -88q0 -67 -34.5 -113.5t-93.5 -69.5q66 -23 105.5 -69.5t39.5 -112.5q0 -57 -24 -98.5t-64 -69.5t-91 -41.5t-106 -13.5q-86 0 -152.5 27.5t-111.5 78.5l72 82q35 -37 82.5 -57t103.5 -20q33 0 62.5 7.5t52 22.5
t35.5 38t13 54q0 28 -13.5 50t-37 37t-54.5 23t-66 8h-100v110h100q33 0 61 7.5t48.5 22t32.5 36.5t12 51q0 54 -42.5 84.5t-109.5 30.5q-59 0 -102.5 -24.5t-71.5 -58.5l-74 79q40 51 102 83t152 32z" />
    <glyph glyph-name="acute" unicode="&#xb4;" horiz-adv-x="939" 
d="M271 1092l209 300h189l-251 -300h-147z" />
    <glyph glyph-name="uni00B5" unicode="&#xb5;" horiz-adv-x="1201" 
d="M164 -400v1347h149v-538q0 -136 71 -211t202 -75q60 0 112.5 20t92 57.5t62.5 91t23 121.5v534h150v-947h-148v135q-29 -42 -66 -71.5t-79 -48t-86.5 -26.5t-87.5 -8q-73 0 -139 24t-108 69v-474h-148z" />
    <glyph glyph-name="paragraph" unicode="&#xb6;" horiz-adv-x="1172" 
d="M547 705q-97 0 -172 24t-126.5 69t-78.5 109t-27 145t27 145.5t78.5 109.5t126.5 69t172 24h119v-1400h-119v705zM770 1400h119v-1400h-119v1400z" />
    <glyph glyph-name="periodcentered" unicode="&#xb7;" horiz-adv-x="715" 
d="M359 654q25 0 47.5 -10t39.5 -27t27 -39.5t10 -47.5q0 -26 -10 -48.5t-27 -40t-39.5 -27.5t-47.5 -10t-48 10t-40 27.5t-27.5 40t-10.5 48.5q0 25 10.5 47.5t27.5 39.5t40 27t48 10z" />
    <glyph glyph-name="cedilla" unicode="&#xb8;" horiz-adv-x="988" 
d="M520 -323h-156l109 329l150 -1z" />
    <glyph glyph-name="uni00B9" unicode="&#xb9;" horiz-adv-x="550" 
d="M391 617h-124v620l-217 -87v122l341 137v-792z" />
    <glyph glyph-name="ordmasculine" unicode="&#xba;" horiz-adv-x="856" 
d="M428 1292q75 0 139 -26t110.5 -72t73 -109t26.5 -137t-26.5 -137t-73 -109.5t-110.5 -72.5t-139 -26t-139 26t-110.5 72.5t-73 109.5t-26.5 137t26.5 137t73 109t110.5 72t139 26zM428 1177q-48 0 -88.5 -17t-70.5 -47.5t-47 -72.5t-17 -92t17 -92t47 -72.5t70.5 -47.5
t88.5 -17t89 17t71 47.5t47 72.5t17 92t-17 92t-47 72.5t-71 47.5t-89 17z" />
    <glyph glyph-name="guillemotright" unicode="&#xbb;" horiz-adv-x="1021" 
d="M147 899h160l192 -370l-192 -370h-160l191 370zM543 899h160l192 -370l-192 -370h-160l191 370z" />
    <glyph glyph-name="onequarter" unicode="&#xbc;" horiz-adv-x="1626" 
d="M425 0h-149l883 1400h149zM1465 265h121v-113h-121v-152h-124v152h-365v89l276 541h137l-267 -517h219v217h124v-217zM391 617h-124v620l-217 -87v122l341 137v-792z" />
    <glyph glyph-name="onehalf" unicode="&#xbd;" horiz-adv-x="1691" 
d="M425 0h-149l883 1400h149zM1075 660q16 22 39 45.5t55 43t73.5 32t94.5 12.5q61 0 109.5 -18t82 -50.5t51 -77.5t17.5 -98q0 -71 -31.5 -125t-83.5 -106l-201 -203h340v-115h-517v97l291 291q34 34 54 70.5t20 80.5q0 59 -38 97.5t-105 38.5q-31 0 -56 -7.5t-45.5 -20.5
t-37.5 -29.5t-32 -34.5zM391 617h-124v620l-217 -87v122l341 137v-792z" />
    <glyph glyph-name="threequarters" unicode="&#xbe;" horiz-adv-x="1736" 
d="M536 0h-149l883 1400h149zM1575 265h121v-113h-121v-152h-124v152h-365v89l276 541h137l-267 -517h219v217h124v-217zM308 1410q61 0 111.5 -15.5t86.5 -44t56 -68.5t20 -88q0 -67 -34.5 -113.5t-93.5 -69.5q66 -23 105.5 -69.5t39.5 -112.5q0 -57 -24 -98.5t-64 -69.5
t-91 -41.5t-106 -13.5q-86 0 -152.5 27.5t-111.5 78.5l72 82q35 -37 82.5 -57t103.5 -20q33 0 62.5 7.5t52 22.5t35.5 38t13 54q0 28 -13.5 50t-37 37t-54.5 23t-66 8h-100v110h100q33 0 61 7.5t48.5 22t32.5 36.5t12 51q0 54 -42.5 84.5t-109.5 30.5q-59 0 -102.5 -24.5
t-71.5 -58.5l-74 79q40 51 102 83t152 32z" />
    <glyph glyph-name="questiondown" unicode="&#xbf;" horiz-adv-x="864" 
d="M654 502v-314h-64q-86 0 -153.5 -17.5t-114 -51.5t-71.5 -82.5t-25 -109.5q0 -58 25 -103.5t71.5 -77.5t113 -49t148.5 -17q37 0 72.5 2.5t64.5 4.5l13 -153q-33 -5 -76.5 -8t-81.5 -3q-119 0 -214.5 28.5t-162.5 80t-103 125t-36 163.5q0 87 30 157t87.5 121.5t141 84
t191.5 43.5l9 176h135zM586 715q-25 0 -47.5 10t-39.5 27.5t-27 40t-10 47.5t10 48t27 40t39.5 27.5t47.5 10.5t48 -10.5t40 -27.5t27.5 -40t10.5 -48t-10.5 -47.5t-27.5 -40t-40 -27.5t-48 -10z" />
    <glyph glyph-name="Agrave" unicode="&#xc0;" horiz-adv-x="1421" 
d="M1385 0h-172l-159 390h-693l-158 -390h-167l575 1400h199zM423 542h570l-285 699zM443 1807h189l210 -300h-148z" />
    <glyph glyph-name="Aacute" unicode="&#xc1;" horiz-adv-x="1421" 
d="M1385 0h-172l-159 390h-693l-158 -390h-167l575 1400h199zM423 542h570l-285 699zM570 1507l209 300h190l-251 -300h-148z" />
    <glyph glyph-name="Acircumflex" unicode="&#xc2;" horiz-adv-x="1421" 
d="M1385 0h-172l-159 390h-693l-158 -390h-167l575 1400h199zM423 542h570l-285 699zM885 1508l-174 189l-175 -189h-160l235 288h200l234 -288h-160z" />
    <glyph glyph-name="Atilde" unicode="&#xc3;" horiz-adv-x="1421" 
d="M1385 0h-172l-159 390h-693l-158 -390h-167l575 1400h199zM423 542h570l-285 699zM359 1649q45 56 96 83.5t123 27.5q51 0 86.5 -12.5t65 -27t56 -27t58.5 -12.5q38 0 68 16.5t62 50.5l89 -85q-45 -56 -96.5 -83.5t-122.5 -27.5q-50 0 -86 12.5t-65 27.5t-56 27.5
t-59 12.5q-38 0 -68.5 -17t-62.5 -51z" />
    <glyph glyph-name="Adieresis" unicode="&#xc4;" horiz-adv-x="1421" 
d="M1385 0h-172l-159 390h-693l-158 -390h-167l575 1400h199zM423 542h570l-285 699zM508 1758q22 0 41.5 -8.5t33.5 -22.5t22.5 -34t8.5 -42q0 -23 -8.5 -42t-22.5 -33t-33.5 -22t-41.5 -8q-45 0 -75.5 30t-30.5 75q0 22 8 42t22.5 34t33.5 22.5t42 8.5zM914 1758
q22 0 41.5 -8.5t33.5 -22.5t22.5 -34t8.5 -42q0 -23 -8.5 -42t-22.5 -33t-33.5 -22t-41.5 -8q-45 0 -75 30t-30 75q0 22 8 42t22 34t33 22.5t42 8.5z" />
    <glyph glyph-name="Aring" unicode="&#xc5;" horiz-adv-x="1421" 
d="M1385 0h-172l-159 390h-693l-158 -390h-167l575 1400h199zM423 542h570l-285 699zM711 1487q-47 0 -88 17.5t-72 48.5t-49 71.5t-18 87.5q0 46 18 87t49 71.5t72 48t88 17.5t88.5 -17.5t72.5 -48t49 -71.5t18 -87q0 -47 -18 -87.5t-49 -71.5t-72.5 -48.5t-88.5 -17.5z
M711 1582q26 0 49.5 10t41 27.5t27.5 41.5t10 51t-10 50.5t-27.5 41t-41 27.5t-49.5 10t-49.5 -10t-40.5 -27.5t-27 -41t-10 -50.5t10 -51t27 -41.5t40.5 -27.5t49.5 -10z" />
    <glyph glyph-name="AE" unicode="&#xc6;" horiz-adv-x="2283" 
d="M2122 0h-985v365h-638l-276 -365h-194l1064 1400h1020v-151h-815v-469h790v-150h-790v-479h824v-151zM1137 517v690l-523 -690h523z" />
    <glyph glyph-name="Ccedilla" unicode="&#xc7;" horiz-adv-x="1530" 
d="M844 1420q91 0 176.5 -20t159.5 -57.5t134 -91.5t101 -121l-134 -90q-35 52 -81.5 93.5t-102.5 71t-120 45t-133 15.5q-118 0 -219 -41t-175.5 -115t-117 -178.5t-42.5 -230.5t42.5 -230.5t117 -178.5t175.5 -115t219 -41q140 0 253 59t184 165l130 -96
q-44 -66 -104 -118t-132.5 -89t-156.5 -56.5t-174 -19.5q-156 0 -288.5 53.5t-229 149t-151 227.5t-54.5 290q0 157 54.5 289.5t151 228t229 149t288.5 53.5zM829 -323h-163l111 329l155 -1z" />
    <glyph glyph-name="Egrave" unicode="&#xc8;" horiz-adv-x="1348" 
d="M1187 0h-985v1400h976v-151h-815v-469h790v-150h-790v-479h824v-151zM417 1807h189l210 -300h-148z" />
    <glyph glyph-name="Eacute" unicode="&#xc9;" horiz-adv-x="1348" 
d="M1187 0h-985v1400h976v-151h-815v-469h790v-150h-790v-479h824v-151zM544 1507l209 300h190l-251 -300h-148z" />
    <glyph glyph-name="Ecircumflex" unicode="&#xca;" horiz-adv-x="1348" 
d="M1187 0h-985v1400h976v-151h-815v-469h790v-150h-790v-479h824v-151zM859 1508l-174 189l-175 -189h-160l235 288h200l234 -288h-160z" />
    <glyph glyph-name="Edieresis" unicode="&#xcb;" horiz-adv-x="1348" 
d="M1187 0h-985v1400h976v-151h-815v-469h790v-150h-790v-479h824v-151zM482 1758q22 0 41.5 -8.5t33.5 -22.5t22.5 -34t8.5 -42q0 -23 -8.5 -42t-22.5 -33t-33.5 -22t-41.5 -8q-45 0 -75.5 30t-30.5 75q0 22 8 42t22.5 34t33.5 22.5t42 8.5zM888 1758q22 0 41.5 -8.5
t33.5 -22.5t22.5 -34t8.5 -42q0 -23 -8.5 -42t-22.5 -33t-33.5 -22t-41.5 -8q-45 0 -75 30t-30 75q0 22 8 42t22 34t33 22.5t42 8.5z" />
    <glyph glyph-name="Igrave" unicode="&#xcc;" horiz-adv-x="565" 
d="M363 0h-161v1400h161v-1400zM14 1807h189l210 -300h-148z" />
    <glyph glyph-name="Iacute" unicode="&#xcd;" horiz-adv-x="565" 
d="M363 0h-161v1400h161v-1400zM141 1507l209 300h190l-251 -300h-148z" />
    <glyph glyph-name="Icircumflex" unicode="&#xce;" horiz-adv-x="565" 
d="M363 0h-161v1400h161v-1400zM456 1508l-174 189l-175 -189h-160l235 288h200l234 -288h-160z" />
    <glyph glyph-name="Idieresis" unicode="&#xcf;" horiz-adv-x="565" 
d="M363 0h-161v1400h161v-1400zM79 1758q22 0 41.5 -8.5t33.5 -22.5t22.5 -34t8.5 -42q0 -23 -8.5 -42t-22.5 -33t-33.5 -22t-41.5 -8q-45 0 -75.5 30t-30.5 75q0 22 8 42t22.5 34t33.5 22.5t42 8.5zM485 1758q22 0 41.5 -8.5t33.5 -22.5t22.5 -34t8.5 -42q0 -23 -8.5 -42
t-22.5 -33t-33.5 -22t-41.5 -8q-45 0 -75 30t-30 75q0 22 8 42t22 34t33 22.5t42 8.5z" />
    <glyph glyph-name="Eth" unicode="&#xd0;" horiz-adv-x="1749" 
d="M880 1400q171 0 309.5 -49.5t235.5 -140.5t149.5 -220.5t52.5 -289.5t-52.5 -289.5t-149.5 -220.5t-235.5 -140.5t-309.5 -49.5h-527v629h-232v152h232v619h527zM917 629h-403v-477h366q142 0 250 39.5t181 111.5t110 173t37 224q0 124 -37 225t-110 173t-181 111
t-250 39h-366v-467h403v-152z" />
    <glyph glyph-name="Ntilde" unicode="&#xd1;" horiz-adv-x="1577" 
d="M1375 0h-145l-867 1124v-1124h-161v1400h145l867 -1124v1124h161v-1400zM436 1649q45 56 96 83.5t123 27.5q51 0 86.5 -12.5t65 -27t56 -27t58.5 -12.5q38 0 68 16.5t62 50.5l89 -85q-45 -56 -96.5 -83.5t-122.5 -27.5q-50 0 -86 12.5t-65 27.5t-56 27.5t-59 12.5
q-38 0 -68.5 -17t-62.5 -51z" />
    <glyph glyph-name="Ograve" unicode="&#xd2;" horiz-adv-x="1689" 
d="M844 1420q156 0 288.5 -53.5t229 -149t151 -228t54.5 -289.5q0 -158 -54.5 -290t-151 -227.5t-229 -149t-288.5 -53.5t-288.5 53.5t-229 149t-151 227.5t-54.5 290q0 157 54.5 289.5t151 228t229 149t288.5 53.5zM844 1265q-118 0 -219 -41t-175.5 -115t-117 -178.5
t-42.5 -230.5t42.5 -230.5t117 -178.5t175.5 -115t219 -41t219.5 41t176 115t117 178.5t42.5 230.5t-42.5 230.5t-117 178.5t-176 115t-219.5 41zM576 1807h189l210 -300h-148z" />
    <glyph glyph-name="Oacute" unicode="&#xd3;" horiz-adv-x="1689" 
d="M844 1420q156 0 288.5 -53.5t229 -149t151 -228t54.5 -289.5q0 -158 -54.5 -290t-151 -227.5t-229 -149t-288.5 -53.5t-288.5 53.5t-229 149t-151 227.5t-54.5 290q0 157 54.5 289.5t151 228t229 149t288.5 53.5zM844 1265q-118 0 -219 -41t-175.5 -115t-117 -178.5
t-42.5 -230.5t42.5 -230.5t117 -178.5t175.5 -115t219 -41t219.5 41t176 115t117 178.5t42.5 230.5t-42.5 230.5t-117 178.5t-176 115t-219.5 41zM703 1507l209 300h190l-251 -300h-148z" />
    <glyph glyph-name="Ocircumflex" unicode="&#xd4;" horiz-adv-x="1689" 
d="M844 1420q156 0 288.5 -53.5t229 -149t151 -228t54.5 -289.5q0 -158 -54.5 -290t-151 -227.5t-229 -149t-288.5 -53.5t-288.5 53.5t-229 149t-151 227.5t-54.5 290q0 157 54.5 289.5t151 228t229 149t288.5 53.5zM844 1265q-118 0 -219 -41t-175.5 -115t-117 -178.5
t-42.5 -230.5t42.5 -230.5t117 -178.5t175.5 -115t219 -41t219.5 41t176 115t117 178.5t42.5 230.5t-42.5 230.5t-117 178.5t-176 115t-219.5 41zM1018 1508l-174 189l-175 -189h-160l235 288h200l234 -288h-160z" />
    <glyph glyph-name="Otilde" unicode="&#xd5;" horiz-adv-x="1689" 
d="M844 1420q156 0 288.5 -53.5t229 -149t151 -228t54.5 -289.5q0 -158 -54.5 -290t-151 -227.5t-229 -149t-288.5 -53.5t-288.5 53.5t-229 149t-151 227.5t-54.5 290q0 157 54.5 289.5t151 228t229 149t288.5 53.5zM844 1265q-118 0 -219 -41t-175.5 -115t-117 -178.5
t-42.5 -230.5t42.5 -230.5t117 -178.5t175.5 -115t219 -41t219.5 41t176 115t117 178.5t42.5 230.5t-42.5 230.5t-117 178.5t-176 115t-219.5 41zM492 1649q45 56 96 83.5t123 27.5q51 0 86.5 -12.5t65 -27t56 -27t58.5 -12.5q38 0 68 16.5t62 50.5l89 -85
q-45 -56 -96.5 -83.5t-122.5 -27.5q-50 0 -86 12.5t-65 27.5t-56 27.5t-59 12.5q-38 0 -68.5 -17t-62.5 -51z" />
    <glyph glyph-name="Odieresis" unicode="&#xd6;" horiz-adv-x="1689" 
d="M844 1420q156 0 288.5 -53.5t229 -149t151 -228t54.5 -289.5q0 -158 -54.5 -290t-151 -227.5t-229 -149t-288.5 -53.5t-288.5 53.5t-229 149t-151 227.5t-54.5 290q0 157 54.5 289.5t151 228t229 149t288.5 53.5zM844 1265q-118 0 -219 -41t-175.5 -115t-117 -178.5
t-42.5 -230.5t42.5 -230.5t117 -178.5t175.5 -115t219 -41t219.5 41t176 115t117 178.5t42.5 230.5t-42.5 230.5t-117 178.5t-176 115t-219.5 41zM641 1758q22 0 41.5 -8.5t33.5 -22.5t22.5 -34t8.5 -42q0 -23 -8.5 -42t-22.5 -33t-33.5 -22t-41.5 -8q-45 0 -75.5 30
t-30.5 75q0 22 8 42t22.5 34t33.5 22.5t42 8.5zM1047 1758q22 0 41.5 -8.5t33.5 -22.5t22.5 -34t8.5 -42q0 -23 -8.5 -42t-22.5 -33t-33.5 -22t-41.5 -8q-45 0 -75 30t-30 75q0 22 8 42t22 34t33 22.5t42 8.5z" />
    <glyph glyph-name="multiply" unicode="&#xd7;" horiz-adv-x="1200" 
d="M209 235l292 292l-293 294l99 99l293 -294l295 295l96 -96l-295 -295l296 -295l-99 -99l-296 295l-291 -292z" />
    <glyph glyph-name="Oslash" unicode="&#xd8;" horiz-adv-x="1689" 
d="M844 1420q135 0 251.5 -40t209.5 -113l152 152l106 -106l-152 -152q74 -92 115 -208t41 -253q0 -158 -54.5 -290t-151 -227.5t-229 -149t-288.5 -53.5q-136 0 -252 40t-209 113l-151 -151l-107 105l151 151q-74 92 -114.5 208.5t-40.5 253.5q0 157 54.5 289.5t151 228
t229 149t288.5 53.5zM1399 700q0 102 -27.5 188.5t-77.5 155.5l-796 -796q70 -55 158 -84t188 -29q118 0 219.5 41t176 115t117 178.5t42.5 230.5zM844 1265q-118 0 -219 -41t-175.5 -115t-117 -178.5t-42.5 -230.5q0 -102 27 -188.5t77 -155.5l796 796q-71 54 -158.5 83.5
t-187.5 29.5z" />
    <glyph glyph-name="Ugrave" unicode="&#xd9;" horiz-adv-x="1517" 
d="M1335 548q0 -143 -45 -249t-123.5 -177t-183.5 -106t-225 -35t-225 35t-183 106t-123 177t-45 249v852h160v-840q0 -110 31.5 -190t87 -132.5t131.5 -77.5t166 -25t166 25t131.5 77.5t87 132.5t31.5 190v840h161v-852zM490 1807h189l210 -300h-148z" />
    <glyph glyph-name="Uacute" unicode="&#xda;" horiz-adv-x="1517" 
d="M1335 548q0 -143 -45 -249t-123.5 -177t-183.5 -106t-225 -35t-225 35t-183 106t-123 177t-45 249v852h160v-840q0 -110 31.5 -190t87 -132.5t131.5 -77.5t166 -25t166 25t131.5 77.5t87 132.5t31.5 190v840h161v-852zM617 1507l209 300h190l-251 -300h-148z" />
    <glyph glyph-name="Ucircumflex" unicode="&#xdb;" horiz-adv-x="1517" 
d="M1335 548q0 -143 -45 -249t-123.5 -177t-183.5 -106t-225 -35t-225 35t-183 106t-123 177t-45 249v852h160v-840q0 -110 31.5 -190t87 -132.5t131.5 -77.5t166 -25t166 25t131.5 77.5t87 132.5t31.5 190v840h161v-852zM932 1508l-174 189l-175 -189h-160l235 288h200
l234 -288h-160z" />
    <glyph glyph-name="Udieresis" unicode="&#xdc;" horiz-adv-x="1517" 
d="M1335 548q0 -143 -45 -249t-123.5 -177t-183.5 -106t-225 -35t-225 35t-183 106t-123 177t-45 249v852h160v-840q0 -110 31.5 -190t87 -132.5t131.5 -77.5t166 -25t166 25t131.5 77.5t87 132.5t31.5 190v840h161v-852zM555 1758q22 0 41.5 -8.5t33.5 -22.5t22.5 -34
t8.5 -42q0 -23 -8.5 -42t-22.5 -33t-33.5 -22t-41.5 -8q-45 0 -75.5 30t-30.5 75q0 22 8 42t22.5 34t33.5 22.5t42 8.5zM961 1758q22 0 41.5 -8.5t33.5 -22.5t22.5 -34t8.5 -42q0 -23 -8.5 -42t-22.5 -33t-33.5 -22t-41.5 -8q-45 0 -75 30t-30 75q0 22 8 42t22 34t33 22.5
t42 8.5z" />
    <glyph glyph-name="Yacute" unicode="&#xdd;" horiz-adv-x="1287" 
d="M725 587v-587h-160v589l-554 811h192l443 -664l443 664h187zM505 1507l209 300h190l-251 -300h-148z" />
    <glyph glyph-name="Thorn" unicode="&#xde;" horiz-adv-x="1328" 
d="M363 1134h368q118 0 210 -28.5t155.5 -82.5t96.5 -132t33 -176t-33 -176t-96.5 -132t-155.5 -82.5t-210 -28.5h-368v-296h-161v1400h161v-266zM363 982v-534h363q163 0 248 66.5t85 200.5t-85 200.5t-248 66.5h-363z" />
    <glyph glyph-name="germandbls" unicode="&#xdf;" horiz-adv-x="1225" 
d="M166 1021q0 91 28.5 171t86 139t143.5 93.5t202 34.5q94 0 177 -27.5t145 -78t97.5 -121t35.5 -157.5q0 -65 -17 -119.5t-46 -97t-68 -73.5t-84 -49q52 -17 99 -48.5t81.5 -76t55 -101t20.5 -121.5q0 -96 -33.5 -171.5t-90.5 -128t-134 -80.5t-164 -28q-78 0 -133.5 11
t-102.5 31l36 135q38 -17 81.5 -27.5t95.5 -10.5q66 0 119.5 17.5t92 52t59.5 86t21 118.5q0 68 -24.5 118t-69.5 82.5t-108 48.5t-139 16h-56v136h31q63 0 122 12.5t104 42t72 79t27 124.5q0 66 -24 116t-65.5 83.5t-97 50t-118.5 16.5q-71 0 -128 -21.5t-97 -61.5
t-61.5 -97t-21.5 -127v-1012h-149v1021z" />
    <glyph glyph-name="agrave" unicode="&#xe0;" horiz-adv-x="1246" 
d="M1071 0h-149v141q-57 -73 -142.5 -116.5t-203.5 -43.5q-100 0 -186.5 37t-150 102.5t-100 156t-36.5 197.5q0 106 36.5 196.5t100 156t150 102.5t186.5 37q118 0 203.5 -44t142.5 -116v141h149v-947zM594 826q-76 0 -138.5 -27.5t-107 -75.5t-69 -112t-24.5 -137
q0 -74 24.5 -138t69.5 -112t107.5 -75.5t137.5 -27.5q74 0 136 27t106.5 74t69.5 112t25 140t-25 139.5t-69.5 111.5t-106.5 74t-136 27zM330 1392h189l210 -300h-148z" />
    <glyph glyph-name="aacute" unicode="&#xe1;" horiz-adv-x="1246" 
d="M1071 0h-149v141q-57 -73 -142.5 -116.5t-203.5 -43.5q-100 0 -186.5 37t-150 102.5t-100 156t-36.5 197.5q0 106 36.5 196.5t100 156t150 102.5t186.5 37q118 0 203.5 -44t142.5 -116v141h149v-947zM594 826q-76 0 -138.5 -27.5t-107 -75.5t-69 -112t-24.5 -137
q0 -74 24.5 -138t69.5 -112t107.5 -75.5t137.5 -27.5q74 0 136 27t106.5 74t69.5 112t25 140t-25 139.5t-69.5 111.5t-106.5 74t-136 27zM481 1092l209 300h190l-251 -300h-148z" />
    <glyph glyph-name="acircumflex" unicode="&#xe2;" horiz-adv-x="1246" 
d="M1071 0h-149v141q-57 -73 -142.5 -116.5t-203.5 -43.5q-100 0 -186.5 37t-150 102.5t-100 156t-36.5 197.5q0 106 36.5 196.5t100 156t150 102.5t186.5 37q118 0 203.5 -44t142.5 -116v141h149v-947zM594 826q-76 0 -138.5 -27.5t-107 -75.5t-69 -112t-24.5 -137
q0 -74 24.5 -138t69.5 -112t107.5 -75.5t137.5 -27.5q74 0 136 27t106.5 74t69.5 112t25 140t-25 139.5t-69.5 111.5t-106.5 74t-136 27zM785 1093l-174 189l-175 -189h-160l235 288h200l234 -288h-160z" />
    <glyph glyph-name="atilde" unicode="&#xe3;" horiz-adv-x="1246" 
d="M1071 0h-149v141q-57 -73 -142.5 -116.5t-203.5 -43.5q-100 0 -186.5 37t-150 102.5t-100 156t-36.5 197.5q0 106 36.5 196.5t100 156t150 102.5t186.5 37q118 0 203.5 -44t142.5 -116v141h149v-947zM594 826q-76 0 -138.5 -27.5t-107 -75.5t-69 -112t-24.5 -137
q0 -74 24.5 -138t69.5 -112t107.5 -75.5t137.5 -27.5q74 0 136 27t106.5 74t69.5 112t25 140t-25 139.5t-69.5 111.5t-106.5 74t-136 27zM267 1234q45 56 96 83.5t123 27.5q51 0 86.5 -12.5t65 -27t56 -27t58.5 -12.5q38 0 68 16.5t62 50.5l89 -85q-45 -56 -96.5 -83.5
t-122.5 -27.5q-50 0 -86 12.5t-65 27.5t-56 27.5t-59 12.5q-38 0 -68.5 -17t-62.5 -51z" />
    <glyph glyph-name="adieresis" unicode="&#xe4;" horiz-adv-x="1246" 
d="M1071 0h-149v141q-57 -73 -142.5 -116.5t-203.5 -43.5q-100 0 -186.5 37t-150 102.5t-100 156t-36.5 197.5q0 106 36.5 196.5t100 156t150 102.5t186.5 37q118 0 203.5 -44t142.5 -116v141h149v-947zM594 826q-76 0 -138.5 -27.5t-107 -75.5t-69 -112t-24.5 -137
q0 -74 24.5 -138t69.5 -112t107.5 -75.5t137.5 -27.5q74 0 136 27t106.5 74t69.5 112t25 140t-25 139.5t-69.5 111.5t-106.5 74t-136 27zM408 1343q22 0 41.5 -8.5t33.5 -22.5t22.5 -34t8.5 -42q0 -23 -8.5 -42t-22.5 -33t-33.5 -22t-41.5 -8q-45 0 -75.5 30t-30.5 75
q0 22 8 42t22.5 34t33.5 22.5t42 8.5zM814 1343q22 0 41.5 -8.5t33.5 -22.5t22.5 -34t8.5 -42q0 -23 -8.5 -42t-22.5 -33t-33.5 -22t-41.5 -8q-45 0 -75 30t-30 75q0 22 8 42t22 34t33 22.5t42 8.5z" />
    <glyph glyph-name="aring" unicode="&#xe5;" horiz-adv-x="1246" 
d="M1071 0h-149v141q-57 -73 -142.5 -116.5t-203.5 -43.5q-100 0 -186.5 37t-150 102.5t-100 156t-36.5 197.5q0 106 36.5 196.5t100 156t150 102.5t186.5 37q118 0 203.5 -44t142.5 -116v141h149v-947zM594 826q-76 0 -138.5 -27.5t-107 -75.5t-69 -112t-24.5 -137
q0 -74 24.5 -138t69.5 -112t107.5 -75.5t137.5 -27.5q74 0 136 27t106.5 74t69.5 112t25 140t-25 139.5t-69.5 111.5t-106.5 74t-136 27zM610 1072q-47 0 -88 17.5t-72 48.5t-49 71.5t-18 87.5q0 46 18 87t49 71.5t72 48t88 17.5t88.5 -17.5t72.5 -48t49 -71.5t18 -87
q0 -47 -18 -87.5t-49 -71.5t-72.5 -48.5t-88.5 -17.5zM610 1167q26 0 49.5 10t41 27.5t27.5 41.5t10 51t-10 50.5t-27.5 41t-41 27.5t-49.5 10t-49.5 -10t-40.5 -27.5t-27 -41t-10 -50.5t10 -51t27 -41.5t40.5 -27.5t49.5 -10z" />
    <glyph glyph-name="ae" unicode="&#xe6;" horiz-adv-x="1800" 
d="M1252 965q96 0 177.5 -36t140.5 -100.5t92.5 -154t34.5 -197.5q0 -15 -1 -29t-2 -27h-759q8 -77 37 -134.5t74 -96.5t102 -58.5t122 -19.5q88 0 164 32t136 87l79 -102q-44 -42 -90.5 -70.5t-95.5 -46t-99.5 -24.5t-102.5 -7q-125 0 -224.5 49t-163.5 137
q-32 -39 -73.5 -73t-91.5 -59t-109.5 -39.5t-128.5 -14.5q-86 0 -154.5 21t-115.5 59t-72 90.5t-25 114.5q0 61 25.5 112.5t75 88.5t122 57.5t167.5 20.5h290v7q0 143 -73 211t-209 68q-43 0 -81.5 -8t-73 -21t-64.5 -30t-55 -36l-70 111q80 60 171 89.5t192 29.5
q128 0 221.5 -46.5t138.5 -152.5q28 45 68 82t88 62.5t102.5 39.5t113.5 14zM493 113q44 0 89 11t87 32t79 51.5t67 68.5q-13 34 -20.5 70t-11.5 75h-274q-68 0 -115 -12.5t-76.5 -33.5t-42.5 -49t-13 -60t14.5 -59.5t44 -48.5t72.5 -33t100 -12zM1249 833
q-66 0 -119.5 -21.5t-93 -60t-65 -92t-34.5 -117.5h607q-7 66 -31.5 119.5t-63 92t-89.5 59t-111 20.5z" />
    <glyph glyph-name="ccedilla" unicode="&#xe7;" horiz-adv-x="1024" 
d="M593 966q106 0 196.5 -38t154.5 -111l-96 -101q-54 52 -117.5 81t-141.5 29q-71 0 -132 -26.5t-106 -73t-70.5 -111.5t-25.5 -141q0 -77 25.5 -141.5t70.5 -111.5t106 -73.5t132 -26.5q78 0 144.5 31t117.5 80l93 -102q-65 -73 -155 -111t-196 -38q-109 0 -199.5 37.5
t-155 103.5t-100 156.5t-35.5 195.5t35.5 195t100 156t155 103.5t199.5 37.5zM558 -323h-156l109 329l150 -1z" />
    <glyph glyph-name="egrave" unicode="&#xe8;" horiz-adv-x="1121" 
d="M573 966q96 0 177.5 -36t140.5 -100.5t92.5 -154.5t34.5 -198q0 -31 -3 -56h-759q8 -77 37 -134.5t74 -96.5t102.5 -58.5t121.5 -19.5q88 0 163.5 31.5t136.5 87.5l80 -102q-44 -42 -91 -70.5t-95.5 -46t-99.5 -24.5t-103 -7q-105 0 -193 35.5t-151.5 100.5t-99 155.5
t-35.5 200.5q0 109 35.5 199.5t98.5 155.5t149 101.5t187 36.5zM570 833q-66 0 -119.5 -21.5t-93 -60t-65 -92t-34.5 -117.5h608q-7 66 -31.5 120t-63 92t-90 58.5t-111.5 20.5zM288 1392h189l210 -300h-148z" />
    <glyph glyph-name="eacute" unicode="&#xe9;" horiz-adv-x="1121" 
d="M573 966q96 0 177.5 -36t140.5 -100.5t92.5 -154.5t34.5 -198q0 -31 -3 -56h-759q8 -77 37 -134.5t74 -96.5t102.5 -58.5t121.5 -19.5q88 0 163.5 31.5t136.5 87.5l80 -102q-44 -42 -91 -70.5t-95.5 -46t-99.5 -24.5t-103 -7q-105 0 -193 35.5t-151.5 100.5t-99 155.5
t-35.5 200.5q0 109 35.5 199.5t98.5 155.5t149 101.5t187 36.5zM570 833q-66 0 -119.5 -21.5t-93 -60t-65 -92t-34.5 -117.5h608q-7 66 -31.5 120t-63 92t-90 58.5t-111.5 20.5zM439 1092l209 300h190l-251 -300h-148z" />
    <glyph glyph-name="ecircumflex" unicode="&#xea;" horiz-adv-x="1121" 
d="M573 966q96 0 177.5 -36t140.5 -100.5t92.5 -154.5t34.5 -198q0 -31 -3 -56h-759q8 -77 37 -134.5t74 -96.5t102.5 -58.5t121.5 -19.5q88 0 163.5 31.5t136.5 87.5l80 -102q-44 -42 -91 -70.5t-95.5 -46t-99.5 -24.5t-103 -7q-105 0 -193 35.5t-151.5 100.5t-99 155.5
t-35.5 200.5q0 109 35.5 199.5t98.5 155.5t149 101.5t187 36.5zM570 833q-66 0 -119.5 -21.5t-93 -60t-65 -92t-34.5 -117.5h608q-7 66 -31.5 120t-63 92t-90 58.5t-111.5 20.5zM743 1093l-174 189l-175 -189h-160l235 288h200l234 -288h-160z" />
    <glyph glyph-name="edieresis" unicode="&#xeb;" horiz-adv-x="1121" 
d="M573 966q96 0 177.5 -36t140.5 -100.5t92.5 -154.5t34.5 -198q0 -31 -3 -56h-759q8 -77 37 -134.5t74 -96.5t102.5 -58.5t121.5 -19.5q88 0 163.5 31.5t136.5 87.5l80 -102q-44 -42 -91 -70.5t-95.5 -46t-99.5 -24.5t-103 -7q-105 0 -193 35.5t-151.5 100.5t-99 155.5
t-35.5 200.5q0 109 35.5 199.5t98.5 155.5t149 101.5t187 36.5zM570 833q-66 0 -119.5 -21.5t-93 -60t-65 -92t-34.5 -117.5h608q-7 66 -31.5 120t-63 92t-90 58.5t-111.5 20.5zM366 1343q22 0 41.5 -8.5t33.5 -22.5t22.5 -34t8.5 -42q0 -23 -8.5 -42t-22.5 -33t-33.5 -22
t-41.5 -8q-45 0 -75.5 30t-30.5 75q0 22 8 42t22.5 34t33.5 22.5t42 8.5zM772 1343q22 0 41.5 -8.5t33.5 -22.5t22.5 -34t8.5 -42q0 -23 -8.5 -42t-22.5 -33t-33.5 -22t-41.5 -8q-45 0 -75 30t-30 75q0 22 8 42t22 34t33 22.5t42 8.5z" />
    <glyph glyph-name="igrave" unicode="&#xec;" horiz-adv-x="500" 
d="M325 0h-150v947h150v-947zM-31 1392h189l210 -300h-148z" />
    <glyph glyph-name="iacute" unicode="&#xed;" horiz-adv-x="500" 
d="M325 0h-150v947h150v-947zM120 1092l209 300h190l-251 -300h-148z" />
    <glyph glyph-name="icircumflex" unicode="&#xee;" horiz-adv-x="500" 
d="M325 0h-150v947h150v-947zM424 1093l-174 189l-175 -189h-160l235 288h200l234 -288h-160z" />
    <glyph glyph-name="idieresis" unicode="&#xef;" horiz-adv-x="500" 
d="M325 0h-150v947h150v-947zM47 1343q22 0 41.5 -8.5t33.5 -22.5t22.5 -34t8.5 -42q0 -23 -8.5 -42t-22.5 -33t-33.5 -22t-41.5 -8q-45 0 -75.5 30t-30.5 75q0 22 8 42t22.5 34t33.5 22.5t42 8.5zM453 1343q22 0 41.5 -8.5t33.5 -22.5t22.5 -34t8.5 -42q0 -23 -8.5 -42
t-22.5 -33t-33.5 -22t-41.5 -8q-45 0 -75 30t-30 75q0 22 8 42t22 34t33 22.5t42 8.5z" />
    <glyph glyph-name="eth" unicode="&#xf0;" horiz-adv-x="1199" 
d="M928 1343l-197 -117q79 -68 145.5 -151.5t115.5 -178.5t76.5 -199t27.5 -214q0 -107 -38 -199t-104.5 -159.5t-157 -105.5t-195.5 -38q-107 0 -198 37t-158 101.5t-104.5 152.5t-37.5 191q0 104 36 193t99.5 154t149.5 102t185 37q93 0 171 -32.5t135 -92.5
q-42 86 -109.5 169t-164.5 158l-251 -149l-56 91l211 125q-48 30 -101 58t-113 54l67 120q79 -32 148.5 -70.5t130.5 -82.5l231 137zM601 808q-74 0 -137 -25.5t-109.5 -71t-73 -108.5t-26.5 -139q0 -75 26.5 -138t73 -108.5t109.5 -71t137 -25.5q73 0 136.5 25.5t110 71
t73 108.5t26.5 138q0 76 -26.5 139t-73 108.5t-110 71t-136.5 25.5z" />
    <glyph glyph-name="ntilde" unicode="&#xf1;" horiz-adv-x="1201" 
d="M642 966q88 0 160.5 -27t124.5 -76.5t81 -119.5t29 -156v-587h-149v538q0 136 -71 211t-202 75q-60 0 -112.5 -20t-92 -57.5t-62.5 -91.5t-23 -121v-534h-150v947h148v-135q29 42 66 71.5t79 48t86 26.5t88 8zM273 1234q45 56 96 83.5t123 27.5q51 0 86.5 -12.5t65 -27
t56 -27t58.5 -12.5q38 0 68 16.5t62 50.5l89 -85q-45 -56 -96.5 -83.5t-122.5 -27.5q-50 0 -86 12.5t-65 27.5t-56 27.5t-59 12.5q-38 0 -68.5 -17t-62.5 -51z" />
    <glyph glyph-name="ograve" unicode="&#xf2;" horiz-adv-x="1203" 
d="M601 966q107 0 198.5 -37.5t158 -103.5t104.5 -156t38 -195t-38 -195.5t-104.5 -156.5t-158 -103.5t-198.5 -37.5t-198 37.5t-158 103.5t-104.5 156.5t-37.5 195.5t37.5 195t104.5 156t158 103.5t198 37.5zM601 826q-74 0 -137 -26.5t-109.5 -73t-73 -111.5t-26.5 -141
q0 -77 26.5 -141.5t73 -111.5t109.5 -73.5t137 -26.5q73 0 136.5 26.5t110 73.5t73 111.5t26.5 141.5q0 76 -26.5 141t-73 111.5t-110 73t-136.5 26.5zM320 1392h189l210 -300h-148z" />
    <glyph glyph-name="oacute" unicode="&#xf3;" horiz-adv-x="1203" 
d="M601 966q107 0 198.5 -37.5t158 -103.5t104.5 -156t38 -195t-38 -195.5t-104.5 -156.5t-158 -103.5t-198.5 -37.5t-198 37.5t-158 103.5t-104.5 156.5t-37.5 195.5t37.5 195t104.5 156t158 103.5t198 37.5zM601 826q-74 0 -137 -26.5t-109.5 -73t-73 -111.5t-26.5 -141
q0 -77 26.5 -141.5t73 -111.5t109.5 -73.5t137 -26.5q73 0 136.5 26.5t110 73.5t73 111.5t26.5 141.5q0 76 -26.5 141t-73 111.5t-110 73t-136.5 26.5zM471 1092l209 300h190l-251 -300h-148z" />
    <glyph glyph-name="ocircumflex" unicode="&#xf4;" horiz-adv-x="1203" 
d="M601 966q107 0 198.5 -37.5t158 -103.5t104.5 -156t38 -195t-38 -195.5t-104.5 -156.5t-158 -103.5t-198.5 -37.5t-198 37.5t-158 103.5t-104.5 156.5t-37.5 195.5t37.5 195t104.5 156t158 103.5t198 37.5zM601 826q-74 0 -137 -26.5t-109.5 -73t-73 -111.5t-26.5 -141
q0 -77 26.5 -141.5t73 -111.5t109.5 -73.5t137 -26.5q73 0 136.5 26.5t110 73.5t73 111.5t26.5 141.5q0 76 -26.5 141t-73 111.5t-110 73t-136.5 26.5zM775 1093l-174 189l-175 -189h-160l235 288h200l234 -288h-160z" />
    <glyph glyph-name="otilde" unicode="&#xf5;" horiz-adv-x="1203" 
d="M601 966q107 0 198.5 -37.5t158 -103.5t104.5 -156t38 -195t-38 -195.5t-104.5 -156.5t-158 -103.5t-198.5 -37.5t-198 37.5t-158 103.5t-104.5 156.5t-37.5 195.5t37.5 195t104.5 156t158 103.5t198 37.5zM601 826q-74 0 -137 -26.5t-109.5 -73t-73 -111.5t-26.5 -141
q0 -77 26.5 -141.5t73 -111.5t109.5 -73.5t137 -26.5q73 0 136.5 26.5t110 73.5t73 111.5t26.5 141.5q0 76 -26.5 141t-73 111.5t-110 73t-136.5 26.5zM257 1234q45 56 96 83.5t123 27.5q51 0 86.5 -12.5t65 -27t56 -27t58.5 -12.5q38 0 68 16.5t62 50.5l89 -85
q-45 -56 -96.5 -83.5t-122.5 -27.5q-50 0 -86 12.5t-65 27.5t-56 27.5t-59 12.5q-38 0 -68.5 -17t-62.5 -51z" />
    <glyph glyph-name="odieresis" unicode="&#xf6;" horiz-adv-x="1203" 
d="M601 966q107 0 198.5 -37.5t158 -103.5t104.5 -156t38 -195t-38 -195.5t-104.5 -156.5t-158 -103.5t-198.5 -37.5t-198 37.5t-158 103.5t-104.5 156.5t-37.5 195.5t37.5 195t104.5 156t158 103.5t198 37.5zM601 826q-74 0 -137 -26.5t-109.5 -73t-73 -111.5t-26.5 -141
q0 -77 26.5 -141.5t73 -111.5t109.5 -73.5t137 -26.5q73 0 136.5 26.5t110 73.5t73 111.5t26.5 141.5q0 76 -26.5 141t-73 111.5t-110 73t-136.5 26.5zM398 1343q22 0 41.5 -8.5t33.5 -22.5t22.5 -34t8.5 -42q0 -23 -8.5 -42t-22.5 -33t-33.5 -22t-41.5 -8q-45 0 -75.5 30
t-30.5 75q0 22 8 42t22.5 34t33.5 22.5t42 8.5zM804 1343q22 0 41.5 -8.5t33.5 -22.5t22.5 -34t8.5 -42q0 -23 -8.5 -42t-22.5 -33t-33.5 -22t-41.5 -8q-45 0 -75 30t-30 75q0 22 8 42t22 34t33 22.5t42 8.5z" />
    <glyph glyph-name="divide" unicode="&#xf7;" horiz-adv-x="1200" 
d="M1035 461h-870v136h870v-136zM601 953q21 0 39.5 -8t32.5 -22.5t22.5 -33.5t8.5 -40t-8.5 -39.5t-22.5 -33t-32.5 -23t-39.5 -8.5t-40 8.5t-33.5 23t-23 33t-8.5 39.5t8.5 40t23 33.5t33.5 22.5t40 8zM601 313q21 0 39.5 -8t32.5 -22.5t22.5 -33t8.5 -39.5t-8.5 -40
t-22.5 -33.5t-32.5 -23t-39.5 -8.5t-40 8.5t-33.5 23t-23 33.5t-8.5 40t8.5 39.5t23 33t33.5 22.5t40 8z" />
    <glyph glyph-name="oslash" unicode="&#xf8;" horiz-adv-x="1203" 
d="M601 966q88 0 165.5 -25.5t140.5 -72.5l111 111l90 -90l-110 -110q48 -63 75 -140t27 -165q0 -105 -38 -195.5t-104.5 -156.5t-158 -103.5t-198.5 -37.5q-88 0 -164.5 25t-139.5 72l-111 -111l-91 89l110 110q-49 63 -75.5 141t-26.5 167q0 105 37.5 195t104.5 156
t158 103.5t198 37.5zM601 826q-74 0 -137 -26.5t-109.5 -73t-73 -111.5t-26.5 -141q0 -58 15 -108.5t42 -92.5l491 491q-43 29 -94 45.5t-108 16.5zM947 474q0 57 -15 106.5t-41 91.5l-491 -491q42 -29 93 -44.5t108 -15.5q73 0 136.5 26.5t110 73.5t73 111.5t26.5 141.5z
" />
    <glyph glyph-name="ugrave" unicode="&#xf9;" horiz-adv-x="1188" 
d="M1024 395q0 -105 -35 -183t-94.5 -129.5t-137.5 -76.5t-163 -25q-86 0 -164 25t-137 76.5t-94 129.5t-35 183v552h149v-538q0 -74 21 -128t58.5 -89.5t89 -53t112.5 -17.5t112 17.5t88.5 53t58.5 89.5t21 128v538h150v-552zM313 1392h189l210 -300h-148z" />
    <glyph glyph-name="uacute" unicode="&#xfa;" horiz-adv-x="1188" 
d="M1024 395q0 -105 -35 -183t-94.5 -129.5t-137.5 -76.5t-163 -25q-86 0 -164 25t-137 76.5t-94 129.5t-35 183v552h149v-538q0 -74 21 -128t58.5 -89.5t89 -53t112.5 -17.5t112 17.5t88.5 53t58.5 89.5t21 128v538h150v-552zM464 1092l209 300h190l-251 -300h-148z" />
    <glyph glyph-name="ucircumflex" unicode="&#xfb;" horiz-adv-x="1188" 
d="M1024 395q0 -105 -35 -183t-94.5 -129.5t-137.5 -76.5t-163 -25q-86 0 -164 25t-137 76.5t-94 129.5t-35 183v552h149v-538q0 -74 21 -128t58.5 -89.5t89 -53t112.5 -17.5t112 17.5t88.5 53t58.5 89.5t21 128v538h150v-552zM768 1093l-174 189l-175 -189h-160l235 288
h200l234 -288h-160z" />
    <glyph glyph-name="udieresis" unicode="&#xfc;" horiz-adv-x="1188" 
d="M1024 395q0 -105 -35 -183t-94.5 -129.5t-137.5 -76.5t-163 -25q-86 0 -164 25t-137 76.5t-94 129.5t-35 183v552h149v-538q0 -74 21 -128t58.5 -89.5t89 -53t112.5 -17.5t112 17.5t88.5 53t58.5 89.5t21 128v538h150v-552zM391 1343q22 0 41.5 -8.5t33.5 -22.5t22.5 -34
t8.5 -42q0 -23 -8.5 -42t-22.5 -33t-33.5 -22t-41.5 -8q-45 0 -75.5 30t-30.5 75q0 22 8 42t22.5 34t33.5 22.5t42 8.5zM797 1343q22 0 41.5 -8.5t33.5 -22.5t22.5 -34t8.5 -42q0 -23 -8.5 -42t-22.5 -33t-33.5 -22t-41.5 -8q-45 0 -75 30t-30 75q0 22 8 42t22 34t33 22.5
t42 8.5z" />
    <glyph glyph-name="yacute" unicode="&#xfd;" horiz-adv-x="1054" 
d="M268 -404h-165l353 609l-435 742h167l353 -594l334 594h164zM402 1092l209 300h190l-251 -300h-148z" />
    <glyph glyph-name="thorn" unicode="&#xfe;" horiz-adv-x="1246" 
d="M670 966q100 0 186 -37t150 -102.5t100.5 -156t36.5 -196.5q0 -107 -36.5 -197.5t-100.5 -156t-150 -102.5t-186 -37q-118 0 -203 43.5t-142 115.5v-540h-150v1840h150v-633q57 72 142 115.5t203 43.5zM652 826q-74 0 -136 -27t-106.5 -74t-69.5 -111.5t-25 -139.5
t25 -140t69.5 -112t106.5 -74t136 -27q76 0 138.5 27.5t106.5 75.5t68.5 112t24.5 138q0 73 -24.5 137t-69.5 112t-107 75.5t-137 27.5z" />
    <glyph glyph-name="ydieresis" unicode="&#xff;" horiz-adv-x="1054" 
d="M268 -404h-165l353 609l-435 742h167l353 -594l334 594h164zM329 1343q22 0 41.5 -8.5t33.5 -22.5t22.5 -34t8.5 -42q0 -23 -8.5 -42t-22.5 -33t-33.5 -22t-41.5 -8q-45 0 -75.5 30t-30.5 75q0 22 8 42t22.5 34t33.5 22.5t42 8.5zM735 1343q22 0 41.5 -8.5t33.5 -22.5
t22.5 -34t8.5 -42q0 -23 -8.5 -42t-22.5 -33t-33.5 -22t-41.5 -8q-45 0 -75 30t-30 75q0 22 8 42t22 34t33 22.5t42 8.5z" />
    <glyph glyph-name="Amacron" unicode="&#x100;" horiz-adv-x="1421" 
d="M1385 0h-172l-159 390h-693l-158 -390h-167l575 1400h199zM423 542h570l-285 699zM412 1711h598v-121h-598v121z" />
    <glyph glyph-name="amacron" unicode="&#x101;" horiz-adv-x="1246" 
d="M1071 0h-149v141q-57 -73 -142.5 -116.5t-203.5 -43.5q-100 0 -186.5 37t-150 102.5t-100 156t-36.5 197.5q0 106 36.5 196.5t100 156t150 102.5t186.5 37q118 0 203.5 -44t142.5 -116v141h149v-947zM594 826q-76 0 -138.5 -27.5t-107 -75.5t-69 -112t-24.5 -137
q0 -74 24.5 -138t69.5 -112t107.5 -75.5t137.5 -27.5q74 0 136 27t106.5 74t69.5 112t25 140t-25 139.5t-69.5 111.5t-106.5 74t-136 27zM312 1296h598v-121h-598v121z" />
    <glyph glyph-name="Abreve" unicode="&#x102;" horiz-adv-x="1421" 
d="M1385 0h-172l-159 390h-693l-158 -390h-167l575 1400h199zM423 542h570l-285 699zM490 1818q29 -97 84.5 -144t136.5 -47t137 47t85 144l120 -37q-38 -139 -127 -209.5t-215 -70.5q-125 0 -214 70.5t-127 209.5z" />
    <glyph glyph-name="abreve" unicode="&#x103;" horiz-adv-x="1246" 
d="M1071 0h-149v141q-57 -73 -142.5 -116.5t-203.5 -43.5q-100 0 -186.5 37t-150 102.5t-100 156t-36.5 197.5q0 106 36.5 196.5t100 156t150 102.5t186.5 37q118 0 203.5 -44t142.5 -116v141h149v-947zM594 826q-76 0 -138.5 -27.5t-107 -75.5t-69 -112t-24.5 -137
q0 -74 24.5 -138t69.5 -112t107.5 -75.5t137.5 -27.5q74 0 136 27t106.5 74t69.5 112t25 140t-25 139.5t-69.5 111.5t-106.5 74t-136 27zM390 1403q29 -97 84.5 -144t136.5 -47t137 47t85 144l120 -37q-38 -139 -127 -209.5t-215 -70.5q-125 0 -214 70.5t-127 209.5z" />
    <glyph glyph-name="Aogonek" unicode="&#x104;" horiz-adv-x="1421" 
d="M1385 0h-172l-159 390h-693l-158 -390h-167l575 1400h199zM423 542h570l-285 699zM1388 -332q-43 -43 -91 -63t-103 -20q-47 0 -86 12.5t-67 35t-44 55t-16 73.5q0 47 21.5 87t63 75t102 68t138.5 67l35 -58q-113 -55 -166 -105t-53 -104q0 -35 23.5 -56t61.5 -21
q29 0 54 13t48 37z" />
    <glyph glyph-name="aogonek" unicode="&#x105;" horiz-adv-x="1246" 
d="M1071 0h-149v141q-57 -73 -142.5 -116.5t-203.5 -43.5q-100 0 -186.5 37t-150 102.5t-100 156t-36.5 197.5q0 106 36.5 196.5t100 156t150 102.5t186.5 37q118 0 203.5 -44t142.5 -116v141h149v-947zM594 826q-76 0 -138.5 -27.5t-107 -75.5t-69 -112t-24.5 -137
q0 -74 24.5 -138t69.5 -112t107.5 -75.5t137.5 -27.5q74 0 136 27t106.5 74t69.5 112t25 140t-25 139.5t-69.5 111.5t-106.5 74t-136 27zM1118 -332q-43 -43 -91 -63t-103 -20q-47 0 -86 12.5t-67 35t-44 55t-16 73.5q0 47 21.5 87t63 75t102 68t138.5 67l35 -58
q-113 -55 -166 -105t-53 -104q0 -35 23.5 -56t61.5 -21q29 0 54 13t48 37z" />
    <glyph glyph-name="Cacute" unicode="&#x106;" horiz-adv-x="1530" 
d="M844 1420q91 0 176.5 -20t159.5 -57.5t134 -91.5t101 -121l-134 -90q-35 52 -81.5 93.5t-102.5 71t-120 45t-133 15.5q-118 0 -219 -41t-175.5 -115t-117 -178.5t-42.5 -230.5t42.5 -230.5t117 -178.5t175.5 -115t219 -41q140 0 253 59t184 165l130 -96
q-44 -66 -104 -118t-132.5 -89t-156.5 -56.5t-174 -19.5q-156 0 -288.5 53.5t-229 149t-151 227.5t-54.5 290q0 157 54.5 289.5t151 228t229 149t288.5 53.5zM697 1507l209 300h190l-251 -300h-148z" />
    <glyph glyph-name="cacute" unicode="&#x107;" horiz-adv-x="1024" 
d="M593 966q106 0 196.5 -38t154.5 -111l-96 -101q-54 52 -117.5 81t-141.5 29q-71 0 -132 -26.5t-106 -73t-70.5 -111.5t-25.5 -141q0 -77 25.5 -141.5t70.5 -111.5t106 -73.5t132 -26.5q78 0 144.5 31t117.5 80l93 -102q-65 -73 -155 -111t-196 -38q-109 0 -199.5 37.5
t-155 103.5t-100 156.5t-35.5 195.5t35.5 195t100 156t155 103.5t199.5 37.5zM453 1092l209 300h190l-251 -300h-148z" />
    <glyph glyph-name="Ccircumflex" unicode="&#x108;" horiz-adv-x="1530" 
d="M844 1420q91 0 176.5 -20t159.5 -57.5t134 -91.5t101 -121l-134 -90q-35 52 -81.5 93.5t-102.5 71t-120 45t-133 15.5q-118 0 -219 -41t-175.5 -115t-117 -178.5t-42.5 -230.5t42.5 -230.5t117 -178.5t175.5 -115t219 -41q140 0 253 59t184 165l130 -96
q-44 -66 -104 -118t-132.5 -89t-156.5 -56.5t-174 -19.5q-156 0 -288.5 53.5t-229 149t-151 227.5t-54.5 290q0 157 54.5 289.5t151 228t229 149t288.5 53.5zM1012 1508l-174 189l-175 -189h-160l235 288h200l234 -288h-160z" />
    <glyph glyph-name="ccircumflex" unicode="&#x109;" horiz-adv-x="1024" 
d="M593 966q106 0 196.5 -38t154.5 -111l-96 -101q-54 52 -117.5 81t-141.5 29q-71 0 -132 -26.5t-106 -73t-70.5 -111.5t-25.5 -141q0 -77 25.5 -141.5t70.5 -111.5t106 -73.5t132 -26.5q78 0 144.5 31t117.5 80l93 -102q-65 -73 -155 -111t-196 -38q-109 0 -199.5 37.5
t-155 103.5t-100 156.5t-35.5 195.5t35.5 195t100 156t155 103.5t199.5 37.5zM757 1093l-174 189l-175 -189h-160l235 288h200l234 -288h-160z" />
    <glyph glyph-name="Cdotaccent" unicode="&#x10a;" horiz-adv-x="1530" 
d="M844 1420q91 0 176.5 -20t159.5 -57.5t134 -91.5t101 -121l-134 -90q-35 52 -81.5 93.5t-102.5 71t-120 45t-133 15.5q-118 0 -219 -41t-175.5 -115t-117 -178.5t-42.5 -230.5t42.5 -230.5t117 -178.5t175.5 -115t219 -41q140 0 253 59t184 165l130 -96
q-44 -66 -104 -118t-132.5 -89t-156.5 -56.5t-174 -19.5q-156 0 -288.5 53.5t-229 149t-151 227.5t-54.5 290q0 157 54.5 289.5t151 228t229 149t288.5 53.5zM824.02 1764.41q22.7666 0 42.9463 -8.2793q20.1797 -8.27832 34.668 -23.2832
q14.4873 -15.0059 23.2842 -35.1855q8.7959 -20.1797 8.7959 -42.9463q0 -23.8018 -8.7959 -43.4639q-8.79688 -19.6621 -23.2842 -34.1504q-14.4883 -14.4873 -34.668 -22.7666q-20.1797 -8.27832 -42.9463 -8.27832q-46.5684 0 -77.6133 31.0449
q-31.0459 31.0459 -31.0459 77.6143t31.0459 78.1318q31.0449 31.5625 77.6133 31.5625z" />
    <glyph glyph-name="cdotaccent" unicode="&#x10b;" horiz-adv-x="1024" 
d="M593 966q106 0 196.5 -38t154.5 -111l-96 -101q-54 52 -117.5 81t-141.5 29q-71 0 -132 -26.5t-106 -73t-70.5 -111.5t-25.5 -141q0 -77 25.5 -141.5t70.5 -111.5t106 -73.5t132 -26.5q78 0 144.5 31t117.5 80l93 -102q-65 -73 -155 -111t-196 -38q-109 0 -199.5 37.5
t-155 103.5t-100 156.5t-35.5 195.5t35.5 195t100 156t155 103.5t199.5 37.5zM583 1389q22 0 41.5 -8t33.5 -22.5t22.5 -34t8.5 -41.5q0 -23 -8.5 -42t-22.5 -33t-33.5 -22t-41.5 -8q-45 0 -75 30t-30 75t30 75.5t75 30.5z" />
    <glyph glyph-name="Ccaron" unicode="&#x10c;" horiz-adv-x="1530" 
d="M844 1420q91 0 176.5 -20t159.5 -57.5t134 -91.5t101 -121l-134 -90q-35 52 -81.5 93.5t-102.5 71t-120 45t-133 15.5q-118 0 -219 -41t-175.5 -115t-117 -178.5t-42.5 -230.5t42.5 -230.5t117 -178.5t175.5 -115t219 -41q140 0 253 59t184 165l130 -96
q-44 -66 -104 -118t-132.5 -89t-156.5 -56.5t-174 -19.5q-156 0 -288.5 53.5t-229 149t-151 227.5t-54.5 290q0 157 54.5 289.5t151 228t229 149t288.5 53.5zM663 1794l175 -189l174 189h160l-234 -288h-200l-235 288h160z" />
    <glyph glyph-name="ccaron" unicode="&#x10d;" horiz-adv-x="1024" 
d="M593 966q106 0 196.5 -38t154.5 -111l-96 -101q-54 52 -117.5 81t-141.5 29q-71 0 -132 -26.5t-106 -73t-70.5 -111.5t-25.5 -141q0 -77 25.5 -141.5t70.5 -111.5t106 -73.5t132 -26.5q78 0 144.5 31t117.5 80l93 -102q-65 -73 -155 -111t-196 -38q-109 0 -199.5 37.5
t-155 103.5t-100 156.5t-35.5 195.5t35.5 195t100 156t155 103.5t199.5 37.5zM408 1379l175 -189l174 189h160l-234 -288h-200l-235 288h160z" />
    <glyph glyph-name="Dcaron" unicode="&#x10e;" horiz-adv-x="1598" 
d="M729 1400q171 0 309.5 -49.5t235.5 -140.5t149.5 -220.5t52.5 -289.5t-52.5 -289.5t-149.5 -220.5t-235.5 -140.5t-309.5 -49.5h-527v1400h527zM363 1248v-1096h366q142 0 250 39.5t181 111.5t110 173t37 224q0 124 -37 225t-110 173t-181 111t-250 39h-366zM563 1794
l175 -189l174 189h160l-234 -288h-200l-235 288h160z" />
    <glyph glyph-name="dcaron" unicode="&#x10f;" horiz-adv-x="1296" 
d="M576 966q118 0 203.5 -44t142.5 -116v634h149v-1440h-149v141q-57 -73 -142.5 -116.5t-203.5 -43.5q-100 0 -186.5 37t-150 102.5t-100 156t-36.5 197.5q0 106 36.5 196.5t100 156t150 102.5t186.5 37zM594 826q-76 0 -138.5 -27.5t-107 -75.5t-69 -112t-24.5 -137
q0 -74 24.5 -138t69.5 -112t107.5 -75.5t137.5 -27.5q74 0 136 27t106.5 74t69.5 112t25 140t-25 139.5t-69.5 111.5t-106.5 74t-136 27zM1189 1051l7 389h153l-34 -389h-126z" />
    <glyph glyph-name="Dcroat" unicode="&#x110;" horiz-adv-x="1749" 
d="M880 1400q171 0 309.5 -49.5t235.5 -140.5t149.5 -220.5t52.5 -289.5t-52.5 -289.5t-149.5 -220.5t-235.5 -140.5t-309.5 -49.5h-527v629h-232v152h232v619h527zM917 629h-403v-477h366q142 0 250 39.5t181 111.5t110 173t37 224q0 124 -37 225t-110 173t-181 111
t-250 39h-366v-467h403v-152z" />
    <glyph glyph-name="dcroat" unicode="&#x111;" horiz-adv-x="1246" 
d="M1221 1115h-150v-1115h-149v141q-57 -73 -142.5 -116.5t-203.5 -43.5q-100 0 -186.5 37t-150 102.5t-100 156t-36.5 197.5q0 106 36.5 196.5t100 156t150 102.5t186.5 37q118 0 203.5 -44t142.5 -116v309h-419v136h419v189h149v-189h150v-136zM594 826
q-76 0 -138.5 -27.5t-107 -75.5t-69 -112t-24.5 -137q0 -74 24.5 -138t69.5 -112t107.5 -75.5t137.5 -27.5q74 0 136 27t106.5 74t69.5 112t25 140t-25 139.5t-69.5 111.5t-106.5 74t-136 27z" />
    <glyph glyph-name="Emacron" unicode="&#x112;" horiz-adv-x="1348" 
d="M1187 0h-985v1400h976v-151h-815v-469h790v-150h-790v-479h824v-151zM386 1711h598v-121h-598v121z" />
    <glyph glyph-name="emacron" unicode="&#x113;" horiz-adv-x="1121" 
d="M573 966q96 0 177.5 -36t140.5 -100.5t92.5 -154.5t34.5 -198q0 -31 -3 -56h-759q8 -77 37 -134.5t74 -96.5t102.5 -58.5t121.5 -19.5q88 0 163.5 31.5t136.5 87.5l80 -102q-44 -42 -91 -70.5t-95.5 -46t-99.5 -24.5t-103 -7q-105 0 -193 35.5t-151.5 100.5t-99 155.5
t-35.5 200.5q0 109 35.5 199.5t98.5 155.5t149 101.5t187 36.5zM570 833q-66 0 -119.5 -21.5t-93 -60t-65 -92t-34.5 -117.5h608q-7 66 -31.5 120t-63 92t-90 58.5t-111.5 20.5zM270 1296h598v-121h-598v121z" />
    <glyph glyph-name="Ebreve" unicode="&#x114;" horiz-adv-x="1348" 
d="M1187 0h-985v1400h976v-151h-815v-469h790v-150h-790v-479h824v-151zM464 1818q29 -97 84.5 -144t136.5 -47t137 47t85 144l120 -37q-38 -139 -127 -209.5t-215 -70.5q-125 0 -214 70.5t-127 209.5z" />
    <glyph glyph-name="ebreve" unicode="&#x115;" horiz-adv-x="1121" 
d="M573 966q96 0 177.5 -36t140.5 -100.5t92.5 -154.5t34.5 -198q0 -31 -3 -56h-759q8 -77 37 -134.5t74 -96.5t102.5 -58.5t121.5 -19.5q88 0 163.5 31.5t136.5 87.5l80 -102q-44 -42 -91 -70.5t-95.5 -46t-99.5 -24.5t-103 -7q-105 0 -193 35.5t-151.5 100.5t-99 155.5
t-35.5 200.5q0 109 35.5 199.5t98.5 155.5t149 101.5t187 36.5zM570 833q-66 0 -119.5 -21.5t-93 -60t-65 -92t-34.5 -117.5h608q-7 66 -31.5 120t-63 92t-90 58.5t-111.5 20.5zM348 1403q29 -97 84.5 -144t136.5 -47t137 47t85 144l120 -37q-38 -139 -127 -209.5
t-215 -70.5q-125 0 -214 70.5t-127 209.5z" />
    <glyph glyph-name="Edotaccent" unicode="&#x116;" horiz-adv-x="1348" 
d="M1187 0h-985v1400h976v-151h-815v-469h790v-150h-790v-479h824v-151zM671.02 1764.41q22.7666 0 42.9463 -8.2793q20.1797 -8.27832 34.668 -23.2832q14.4873 -15.0059 23.2842 -35.1855q8.7959 -20.1797 8.7959 -42.9463q0 -23.8018 -8.7959 -43.4639
q-8.79688 -19.6621 -23.2842 -34.1504q-14.4883 -14.4873 -34.668 -22.7666q-20.1797 -8.27832 -42.9463 -8.27832q-46.5684 0 -77.6133 31.0449q-31.0459 31.0459 -31.0459 77.6143t31.0459 78.1318q31.0449 31.5625 77.6133 31.5625z" />
    <glyph glyph-name="edotaccent" unicode="&#x117;" horiz-adv-x="1121" 
d="M573 966q96 0 177.5 -36t140.5 -100.5t92.5 -154.5t34.5 -198q0 -31 -3 -56h-759q8 -77 37 -134.5t74 -96.5t102.5 -58.5t121.5 -19.5q88 0 163.5 31.5t136.5 87.5l80 -102q-44 -42 -91 -70.5t-95.5 -46t-99.5 -24.5t-103 -7q-105 0 -193 35.5t-151.5 100.5t-99 155.5
t-35.5 200.5q0 109 35.5 199.5t98.5 155.5t149 101.5t187 36.5zM570 833q-66 0 -119.5 -21.5t-93 -60t-65 -92t-34.5 -117.5h608q-7 66 -31.5 120t-63 92t-90 58.5t-111.5 20.5zM569 1389q22 0 41.5 -8t33.5 -22.5t22.5 -34t8.5 -41.5q0 -23 -8.5 -42t-22.5 -33t-33.5 -22
t-41.5 -8q-45 0 -75 30t-30 75t30 75.5t75 30.5z" />
    <glyph glyph-name="Eogonek" unicode="&#x118;" horiz-adv-x="1348" 
d="M1187 0h-985v1400h976v-151h-815v-469h790v-150h-790v-479h824v-151zM1035 16q-94 -46 -137 -93t-43 -105q0 -46 33.5 -75t90.5 -29q80 0 143 58l80 -97q-47 -45 -106.5 -67.5t-125.5 -22.5q-59 0 -107 15.5t-82.5 43t-53 65.5t-18.5 82q0 50 20 90.5t58 74t94.5 62
t130.5 54.5z" />
    <glyph glyph-name="eogonek" unicode="&#x119;" horiz-adv-x="1121" 
d="M573 966q96 0 177.5 -36t140.5 -100.5t92.5 -154.5t34.5 -198q0 -31 -3 -56h-759q8 -77 37 -134.5t74 -96.5t102.5 -58.5t121.5 -19.5q88 0 163.5 31.5t136.5 87.5l80 -102q-44 -42 -91 -70.5t-95.5 -46t-99.5 -24.5t-103 -7q-105 0 -193 35.5t-151.5 100.5t-99 155.5
t-35.5 200.5q0 109 35.5 199.5t98.5 155.5t149 101.5t187 36.5zM570 833q-66 0 -119.5 -21.5t-93 -60t-65 -92t-34.5 -117.5h608q-7 66 -31.5 120t-63 92t-90 58.5t-111.5 20.5zM967 -325q-47 -45 -106.5 -67.5t-125.5 -22.5q-59 0 -107 15.5t-82.5 43t-53 65.5t-18.5 82
q0 54 23 97t66 78.5t105 65.5t141 59l18 -59q-103 -51 -155 -100.5t-52 -113.5q0 -46 33.5 -75t90.5 -29q80 0 143 58z" />
    <glyph glyph-name="Ecaron" unicode="&#x11a;" horiz-adv-x="1348" 
d="M1187 0h-985v1400h976v-151h-815v-469h790v-150h-790v-479h824v-151zM510 1794l175 -189l174 189h160l-234 -288h-200l-235 288h160z" />
    <glyph glyph-name="ecaron" unicode="&#x11b;" horiz-adv-x="1121" 
d="M573 966q96 0 177.5 -36t140.5 -100.5t92.5 -154.5t34.5 -198q0 -31 -3 -56h-759q8 -77 37 -134.5t74 -96.5t102.5 -58.5t121.5 -19.5q88 0 163.5 31.5t136.5 87.5l80 -102q-44 -42 -91 -70.5t-95.5 -46t-99.5 -24.5t-103 -7q-105 0 -193 35.5t-151.5 100.5t-99 155.5
t-35.5 200.5q0 109 35.5 199.5t98.5 155.5t149 101.5t187 36.5zM570 833q-66 0 -119.5 -21.5t-93 -60t-65 -92t-34.5 -117.5h608q-7 66 -31.5 120t-63 92t-90 58.5t-111.5 20.5zM394 1379l175 -189l174 189h160l-234 -288h-200l-235 288h160z" />
    <glyph glyph-name="Gcircumflex" unicode="&#x11c;" horiz-adv-x="1639" 
d="M844 1420q168 0 307 -62t236 -173l-119 -114q-75 91 -184 142.5t-240 51.5q-118 0 -219 -41t-175.5 -115t-117 -178.5t-42.5 -230.5t42.5 -230.5t116 -178.5t173.5 -115t215 -41q111 0 200 32t153.5 92t103 145.5t47.5 193.5h-436v150h610q1 -11 1.5 -21t0.5 -20
q0 -153 -47 -285.5t-135 -230.5t-214 -154t-284 -56q-138 0 -267 48.5t-229 141t-160 226t-60 303.5q0 105 25 199.5t71 174.5t111 144t145 109t174 69t197 24zM996 1508l-174 189l-175 -189h-160l235 288h200l234 -288h-160z" />
    <glyph glyph-name="gcircumflex" unicode="&#x11d;" horiz-adv-x="1235" 
d="M572 966q115 0 199.5 -43.5t138.5 -117.5v142h150v-882q0 -116 -37 -205.5t-103.5 -150.5t-158.5 -92.5t-202 -31.5q-57 0 -112.5 8.5t-107.5 25t-97.5 40t-81.5 53.5l66 120q68 -51 152 -81t181 -30q77 0 141.5 21.5t111 64.5t72.5 106t26 146v97q-54 -75 -138.5 -118
t-199.5 -43q-100 0 -185.5 35.5t-148.5 100t-99 153.5t-36 197q0 107 36 196.5t99 153.5t148.5 99.5t185.5 35.5zM589 826q-75 0 -137 -27t-105.5 -74t-67.5 -109.5t-24 -134.5t24 -135t67.5 -110t105.5 -74t137 -27q73 0 134.5 26.5t105.5 73t69 109.5t25 137q0 73 -25 136
t-69 109.5t-105.5 73t-134.5 26.5zM778 1093l-174 189l-175 -189h-160l235 288h200l234 -288h-160z" />
    <glyph glyph-name="Gbreve" unicode="&#x11e;" horiz-adv-x="1639" 
d="M844 1420q168 0 307 -62t236 -173l-119 -114q-75 91 -184 142.5t-240 51.5q-118 0 -219 -41t-175.5 -115t-117 -178.5t-42.5 -230.5t42.5 -230.5t116 -178.5t173.5 -115t215 -41q111 0 200 32t153.5 92t103 145.5t47.5 193.5h-436v150h610q1 -11 1.5 -21t0.5 -20
q0 -153 -47 -285.5t-135 -230.5t-214 -154t-284 -56q-138 0 -267 48.5t-229 141t-160 226t-60 303.5q0 105 25 199.5t71 174.5t111 144t145 109t174 69t197 24zM601 1818q29 -97 84.5 -144t136.5 -47t137 47t85 144l120 -37q-38 -139 -127 -209.5t-215 -70.5
q-125 0 -214 70.5t-127 209.5z" />
    <glyph glyph-name="gbreve" unicode="&#x11f;" horiz-adv-x="1235" 
d="M572 966q115 0 199.5 -43.5t138.5 -117.5v142h150v-882q0 -116 -37 -205.5t-103.5 -150.5t-158.5 -92.5t-202 -31.5q-57 0 -112.5 8.5t-107.5 25t-97.5 40t-81.5 53.5l66 120q68 -51 152 -81t181 -30q77 0 141.5 21.5t111 64.5t72.5 106t26 146v97q-54 -75 -138.5 -118
t-199.5 -43q-100 0 -185.5 35.5t-148.5 100t-99 153.5t-36 197q0 107 36 196.5t99 153.5t148.5 99.5t185.5 35.5zM589 826q-75 0 -137 -27t-105.5 -74t-67.5 -109.5t-24 -134.5t24 -135t67.5 -110t105.5 -74t137 -27q73 0 134.5 26.5t105.5 73t69 109.5t25 137q0 73 -25 136
t-69 109.5t-105.5 73t-134.5 26.5zM383 1403q29 -97 84.5 -144t136.5 -47t137 47t85 144l120 -37q-38 -139 -127 -209.5t-215 -70.5q-125 0 -214 70.5t-127 209.5z" />
    <glyph glyph-name="Gdotaccent" unicode="&#x120;" horiz-adv-x="1639" 
d="M844 1420q168 0 307 -62t236 -173l-119 -114q-75 91 -184 142.5t-240 51.5q-118 0 -219 -41t-175.5 -115t-117 -178.5t-42.5 -230.5t42.5 -230.5t116 -178.5t173.5 -115t215 -41q111 0 200 32t153.5 92t103 145.5t47.5 193.5h-436v150h610q1 -11 1.5 -21t0.5 -20
q0 -153 -47 -285.5t-135 -230.5t-214 -154t-284 -56q-138 0 -267 48.5t-229 141t-160 226t-60 303.5q0 105 25 199.5t71 174.5t111 144t145 109t174 69t197 24zM808.02 1764.41q22.7666 0 42.9463 -8.2793q20.1797 -8.27832 34.668 -23.2832
q14.4873 -15.0059 23.2842 -35.1855q8.7959 -20.1797 8.7959 -42.9463q0 -23.8018 -8.7959 -43.4639q-8.79688 -19.6621 -23.2842 -34.1504q-14.4883 -14.4873 -34.668 -22.7666q-20.1797 -8.27832 -42.9463 -8.27832q-46.5684 0 -77.6133 31.0449
q-31.0459 31.0459 -31.0459 77.6143t31.0459 78.1318q31.0449 31.5625 77.6133 31.5625z" />
    <glyph glyph-name="gdotaccent" unicode="&#x121;" horiz-adv-x="1235" 
d="M572 966q115 0 199.5 -43.5t138.5 -117.5v142h150v-882q0 -116 -37 -205.5t-103.5 -150.5t-158.5 -92.5t-202 -31.5q-57 0 -112.5 8.5t-107.5 25t-97.5 40t-81.5 53.5l66 120q68 -51 152 -81t181 -30q77 0 141.5 21.5t111 64.5t72.5 106t26 146v97q-54 -75 -138.5 -118
t-199.5 -43q-100 0 -185.5 35.5t-148.5 100t-99 153.5t-36 197q0 107 36 196.5t99 153.5t148.5 99.5t185.5 35.5zM589 826q-75 0 -137 -27t-105.5 -74t-67.5 -109.5t-24 -134.5t24 -135t67.5 -110t105.5 -74t137 -27q73 0 134.5 26.5t105.5 73t69 109.5t25 137q0 73 -25 136
t-69 109.5t-105.5 73t-134.5 26.5zM604 1389q22 0 41.5 -8t33.5 -22.5t22.5 -34t8.5 -41.5q0 -23 -8.5 -42t-22.5 -33t-33.5 -22t-41.5 -8q-45 0 -75 30t-30 75t30 75.5t75 30.5z" />
    <glyph glyph-name="Gcommaaccent" unicode="&#x122;" horiz-adv-x="1639" 
d="M844 1420q168 0 307 -62t236 -173l-119 -114q-75 91 -184 142.5t-240 51.5q-118 0 -219 -41t-175.5 -115t-117 -178.5t-42.5 -230.5t42.5 -230.5t116 -178.5t173.5 -115t215 -41q111 0 200 32t153.5 92t103 145.5t47.5 193.5h-436v150h610q1 -11 1.5 -21t0.5 -20
q0 -153 -47 -285.5t-135 -230.5t-214 -154t-284 -56q-138 0 -267 48.5t-229 141t-160 226t-60 303.5q0 105 25 199.5t71 174.5t111 144t145 109t174 69t197 24zM922 -88l-74 -350h-132l42 350h164z" />
    <glyph glyph-name="gcommaaccent" unicode="&#x123;" horiz-adv-x="1235" 
d="M572 966q115 0 199.5 -43.5t138.5 -117.5v142h150v-882q0 -116 -37 -205.5t-103.5 -150.5t-158.5 -92.5t-202 -31.5q-57 0 -112.5 8.5t-107.5 25t-97.5 40t-81.5 53.5l66 120q68 -51 152 -81t181 -30q77 0 141.5 21.5t111 64.5t72.5 106t26 146v97q-54 -75 -138.5 -118
t-199.5 -43q-100 0 -185.5 35.5t-148.5 100t-99 153.5t-36 197q0 107 36 196.5t99 153.5t148.5 99.5t185.5 35.5zM589 826q-75 0 -137 -27t-105.5 -74t-67.5 -109.5t-24 -134.5t24 -135t67.5 -110t105.5 -74t137 -27q73 0 134.5 26.5t105.5 73t69 109.5t25 137q0 73 -25 136
t-69 109.5t-105.5 73t-134.5 26.5zM513 1092l74 351h132l-42 -351h-164z" />
    <glyph glyph-name="Hcircumflex" unicode="&#x124;" horiz-adv-x="1573" 
d="M363 781h847v619h161v-1400h-161v629h-847v-629h-161v1400h161v-619zM960 1508l-174 189l-175 -189h-160l235 288h200l234 -288h-160z" />
    <glyph glyph-name="hcircumflex" unicode="&#x125;" horiz-adv-x="1201" 
d="M325 815q29 41 66 70t78.5 47t85.5 26t87 8q88 0 160.5 -27t124.5 -76.5t81 -119.5t29 -156v-587h-149v538q0 136 -71 211t-202 75q-60 0 -112.5 -20t-92 -57.5t-62.5 -91.5t-23 -121v-534h-150v1440h150v-625zM783 1546l-174 189l-175 -189h-160l235 288h200l234 -288
h-160z" />
    <glyph glyph-name="Hbar" unicode="&#x126;" horiz-adv-x="1619" 
d="M1558 1010h-163v-1010h-161v629h-847v-629h-161v1010h-165v136h165v254h161v-254h847v254h161v-254h163v-136zM1234 781v229h-847v-229h847z" />
    <glyph glyph-name="hbar" unicode="&#x127;" horiz-adv-x="1201" 
d="M717 1115h-392v-300q29 41 66 70t78.5 47t85.5 26t87 8q88 0 160.5 -27t124.5 -76.5t81 -119.5t29 -156v-587h-149v538q0 136 -71 211t-202 75q-60 0 -112.5 -20t-92 -57.5t-62.5 -91.5t-23 -121v-534h-150v1115h-176v136h176v189h150v-189h392v-136z" />
    <glyph glyph-name="Itilde" unicode="&#x128;" horiz-adv-x="565" 
d="M363 0h-161v1400h161v-1400zM-70 1649q45 56 96 83.5t123 27.5q51 0 86.5 -12.5t65 -27t56 -27t58.5 -12.5q38 0 68 16.5t62 50.5l89 -85q-45 -56 -96.5 -83.5t-122.5 -27.5q-50 0 -86 12.5t-65 27.5t-56 27.5t-59 12.5q-38 0 -68.5 -17t-62.5 -51z" />
    <glyph glyph-name="itilde" unicode="&#x129;" horiz-adv-x="500" 
d="M325 0h-150v947h150v-947zM-94 1234q45 56 96 83.5t123 27.5q51 0 86.5 -12.5t65 -27t56 -27t58.5 -12.5q38 0 68 16.5t62 50.5l89 -85q-45 -56 -96.5 -83.5t-122.5 -27.5q-50 0 -86 12.5t-65 27.5t-56 27.5t-59 12.5q-38 0 -68.5 -17t-62.5 -51z" />
    <glyph glyph-name="Imacron" unicode="&#x12a;" horiz-adv-x="565" 
d="M363 0h-161v1400h161v-1400zM-17 1711h598v-121h-598v121z" />
    <glyph glyph-name="imacron" unicode="&#x12b;" horiz-adv-x="500" 
d="M325 0h-150v947h150v-947zM-49 1296h598v-121h-598v121z" />
    <glyph glyph-name="Ibreve" unicode="&#x12c;" horiz-adv-x="565" 
d="M363 0h-161v1400h161v-1400zM61 1818q29 -97 84.5 -144t136.5 -47t137 47t85 144l120 -37q-38 -139 -127 -209.5t-215 -70.5q-125 0 -214 70.5t-127 209.5z" />
    <glyph glyph-name="ibreve" unicode="&#x12d;" horiz-adv-x="500" 
d="M325 0h-150v947h150v-947zM29 1403q29 -97 84.5 -144t136.5 -47t137 47t85 144l120 -37q-38 -139 -127 -209.5t-215 -70.5q-125 0 -214 70.5t-127 209.5z" />
    <glyph glyph-name="Iogonek" unicode="&#x12e;" horiz-adv-x="565" 
d="M363 0h-161v1400h161v-1400zM489 -332q-43 -43 -91.5 -63t-103.5 -20q-47 0 -86 12.5t-67 35t-44 55t-16 73.5q0 44 17 82.5t48.5 74.5t77 70.5t102.5 69.5l37 -58q-141 -115 -141 -209q0 -35 23.5 -56t61.5 -21q30 0 55 13t47 37z" />
    <glyph glyph-name="iogonek" unicode="&#x12f;" horiz-adv-x="500" 
d="M451 -332q-43 -43 -91.5 -63t-103.5 -20q-47 0 -86 12.5t-67 35t-44 55t-16 73.5q0 44 17 82.5t48.5 74.5t77 70.5t102.5 69.5l37 -58q-141 -115 -141 -209q0 -35 23.5 -56t61.5 -21q30 0 55 13t47 37zM325 0h-150v947h150v-947zM250 1389q22 0 41.5 -8t33.5 -22.5
t22.5 -34t8.5 -41.5q0 -23 -8.5 -42t-22.5 -33t-33.5 -22t-41.5 -8q-45 0 -75 30t-30 75t30 75.5t75 30.5z" />
    <glyph glyph-name="Idotaccent" unicode="&#x130;" horiz-adv-x="565" 
d="M363 0h-161v1400h161v-1400zM268.02 1764.41q22.7666 0 42.9463 -8.2793q20.1797 -8.27832 34.668 -23.2832q14.4873 -15.0059 23.2842 -35.1855q8.7959 -20.1797 8.7959 -42.9463q0 -23.8018 -8.7959 -43.4639q-8.79688 -19.6621 -23.2842 -34.1504
q-14.4883 -14.4873 -34.668 -22.7666q-20.1797 -8.27832 -42.9463 -8.27832q-46.5684 0 -77.6133 31.0449q-31.0459 31.0459 -31.0459 77.6143t31.0459 78.1318q31.0449 31.5625 77.6133 31.5625z" />
    <glyph glyph-name="dotlessi" unicode="&#x131;" horiz-adv-x="500" 
d="M325 0h-150v947h150v-947z" />
    <glyph glyph-name="IJ" unicode="&#x132;" horiz-adv-x="1715" 
d="M363 0h-161v1400h161v-1400zM1523 499q0 -125 -37 -221.5t-102 -162.5t-154 -100t-193 -34q-84 0 -151 17.5t-120 46t-92.5 63.5t-68.5 70l108 110q25 -31 57 -59t72 -49t88.5 -33t105.5 -12q73 0 133.5 24t103.5 72t66.5 119t23.5 165v885h160v-901z" />
    <glyph glyph-name="ij" unicode="&#x133;" horiz-adv-x="1004" 
d="M829 -156q0 -63 -17 -111.5t-47.5 -81t-74 -49.5t-97.5 -17q-37 0 -73.5 9t-62.5 23l36 129q18 -9 40.5 -14.5t46.5 -5.5q46 0 72.5 29.5t26.5 95.5v1096h150v-1103zM753 1389q22 0 41.5 -8t33.5 -22.5t22.5 -34t8.5 -41.5q0 -23 -8.5 -42t-22.5 -33t-33.5 -22t-41.5 -8
q-45 0 -75 30t-30 75t30 75.5t75 30.5zM325 0h-150v947h150v-947zM250 1389q22 0 41.5 -8t33.5 -22.5t22.5 -34t8.5 -41.5q0 -23 -8.5 -42t-22.5 -33t-33.5 -22t-41.5 -8q-45 0 -75 30t-30 75t30 75.5t75 30.5z" />
    <glyph glyph-name="Jcircumflex" unicode="&#x134;" horiz-adv-x="1150" 
d="M958 499q0 -125 -37 -221.5t-102 -162.5t-154 -100t-193 -34q-84 0 -151 17.5t-120 46t-92.5 63.5t-68.5 70l108 110q25 -31 57 -59t72 -49t88.5 -33t105.5 -12q73 0 133.5 24t103.5 72t66.5 119t23.5 165v885h160v-901zM1052 1508l-174 189l-175 -189h-160l235 288h200
l234 -288h-160z" />
    <glyph glyph-name="jcircumflex" unicode="&#x135;" horiz-adv-x="504" 
d="M329 -156q0 -63 -17 -111.5t-47.5 -81t-74 -49.5t-97.5 -17q-37 0 -73.5 9t-62.5 23l36 129q18 -9 40.5 -14.5t46.5 -5.5q46 0 72.5 29.5t26.5 95.5v1096h150v-1103zM427 1093l-174 189l-175 -189h-160l235 288h200l234 -288h-160z" />
    <glyph glyph-name="Kcommaaccent" unicode="&#x136;" horiz-adv-x="1388" 
d="M529 628h-166v-628h-161v1400h161v-620h169l581 620h208l-658 -687l701 -713h-219zM797 -88l-74 -350h-132l42 350h164z" />
    <glyph glyph-name="kcommaaccent" unicode="&#x137;" horiz-adv-x="1058" 
d="M325 563h137l365 384h187l-430 -446l437 -501h-189l-371 427h-136v-427h-150v1440h150v-877zM654 -88l-74 -350h-132l42 350h164z" />
    <glyph glyph-name="kgreenlandic" unicode="&#x138;" horiz-adv-x="1049" 
d="M325 563h133l359 384h188l-425 -446l432 -501h-189l-366 427h-132v-427h-150v947h150v-384z" />
    <glyph glyph-name="Lacute" unicode="&#x139;" horiz-adv-x="1213" 
d="M1173 0h-971v1400h161v-1248h810v-152zM141 1507l209 300h190l-251 -300h-148z" />
    <glyph glyph-name="lacute" unicode="&#x13a;" horiz-adv-x="500" 
d="M325 0h-150v1440h150v-1440zM84 1545l209 300h190l-251 -300h-148z" />
    <glyph glyph-name="Lcommaaccent" unicode="&#x13b;" horiz-adv-x="1213" 
d="M1173 0h-971v1400h161v-1248h810v-152zM781 -88l-74 -350h-132l42 350h164z" />
    <glyph glyph-name="lcommaaccent" unicode="&#x13c;" horiz-adv-x="500" 
d="M325 0h-150v1440h150v-1440zM345 -88l-74 -350h-132l42 350h164z" />
    <glyph glyph-name="Lcaron" unicode="&#x13d;" horiz-adv-x="1213" 
d="M1173 0h-971v1400h161v-1248h810v-152zM601 1012l7 389h153l-34 -389h-126z" />
    <glyph glyph-name="lcaron" unicode="&#x13e;" horiz-adv-x="543" 
d="M325 0h-150v1440h150v-1440zM432 1051l7 389h153l-34 -389h-126z" />
    <glyph glyph-name="Ldot" unicode="&#x13f;" horiz-adv-x="1213" 
d="M1173 0h-971v1400h161v-1248h810v-152zM857.02 815.408q22.7666 0 42.9463 -8.2793q20.1797 -8.27832 34.668 -23.2832q14.4873 -15.0059 23.2842 -35.1855q8.7959 -20.1797 8.7959 -42.9463q0 -23.8018 -8.7959 -43.4639q-8.79688 -19.6621 -23.2842 -34.1504
q-14.4883 -14.4873 -34.668 -22.7666q-20.1797 -8.27832 -42.9463 -8.27832q-46.5684 0 -77.6133 31.0449q-31.0459 31.0459 -31.0459 77.6143t31.0459 78.1318q31.0449 31.5625 77.6133 31.5625z" />
    <glyph glyph-name="ldot" unicode="&#x140;" horiz-adv-x="613" 
d="M325 0h-150v1440h150v-1440zM552 837q22 0 41.5 -8t33.5 -22.5t22.5 -34t8.5 -41.5q0 -23 -8.5 -42t-22.5 -33t-33.5 -22t-41.5 -8q-45 0 -75 30t-30 75t30 75.5t75 30.5z" />
    <glyph glyph-name="Lslash" unicode="&#x141;" horiz-adv-x="1346" 
d="M1306 0h-971v503l-214 -120v172l214 120v725h161v-635l517 290v-172l-517 -290v-441h810v-152z" />
    <glyph glyph-name="lslash" unicode="&#x142;" horiz-adv-x="670" 
d="M409 877l208 148v-155l-208 -148v-722h-150v616l-206 -146v155l206 146v669h150v-563z" />
    <glyph glyph-name="Nacute" unicode="&#x143;" horiz-adv-x="1577" 
d="M1375 0h-145l-867 1124v-1124h-161v1400h145l867 -1124v1124h161v-1400zM647 1507l209 300h190l-251 -300h-148z" />
    <glyph glyph-name="nacute" unicode="&#x144;" horiz-adv-x="1201" 
d="M642 966q88 0 160.5 -27t124.5 -76.5t81 -119.5t29 -156v-587h-149v538q0 136 -71 211t-202 75q-60 0 -112.5 -20t-92 -57.5t-62.5 -91.5t-23 -121v-534h-150v947h148v-135q29 42 66 71.5t79 48t86 26.5t88 8zM487 1092l209 300h190l-251 -300h-148z" />
    <glyph glyph-name="Ncommaaccent" unicode="&#x145;" horiz-adv-x="1577" 
d="M1375 0h-145l-867 1124v-1124h-161v1400h145l867 -1124v1124h161v-1400zM886 -88l-74 -350h-132l42 350h164z" />
    <glyph glyph-name="ncommaaccent" unicode="&#x146;" horiz-adv-x="1201" 
d="M642 966q88 0 160.5 -27t124.5 -76.5t81 -119.5t29 -156v-587h-149v538q0 136 -71 211t-202 75q-60 0 -112.5 -20t-92 -57.5t-62.5 -91.5t-23 -121v-534h-150v947h148v-135q29 42 66 71.5t79 48t86 26.5t88 8zM700 -88l-74 -350h-132l42 350h164z" />
    <glyph glyph-name="Ncaron" unicode="&#x147;" horiz-adv-x="1577" 
d="M1375 0h-145l-867 1124v-1124h-161v1400h145l867 -1124v1124h161v-1400zM613 1794l175 -189l174 189h160l-234 -288h-200l-235 288h160z" />
    <glyph glyph-name="ncaron" unicode="&#x148;" horiz-adv-x="1201" 
d="M642 966q88 0 160.5 -27t124.5 -76.5t81 -119.5t29 -156v-587h-149v538q0 136 -71 211t-202 75q-60 0 -112.5 -20t-92 -57.5t-62.5 -91.5t-23 -121v-534h-150v947h148v-135q29 42 66 71.5t79 48t86 26.5t88 8zM442 1379l175 -189l174 189h160l-234 -288h-200l-235 288
h160z" />
    <glyph glyph-name="napostrophe" unicode="&#x149;" horiz-adv-x="1476" 
d="M361 1440l-105 -507h-129l60 507h174zM917 966q88 0 160.5 -27t124.5 -76.5t81 -119.5t29 -156v-587h-149v538q0 136 -71 211t-202 75q-60 0 -112.5 -20t-92 -57.5t-62.5 -91.5t-23 -121v-534h-150v947h148v-135q29 42 66 71.5t79 48t86 26.5t88 8z" />
    <glyph glyph-name="Eng" unicode="&#x14a;" horiz-adv-x="1577" 
d="M1375 -37q0 -80 -19 -149t-60.5 -120t-106 -80t-154.5 -29q-81 0 -146 18t-116 46l59 140q38 -20 86 -34.5t100 -14.5t89 16.5t61 46.5t35 72.5t11 94.5v50l-851 1104v-1124h-161v1400h145l867 -1124v1124h161v-1437z" />
    <glyph glyph-name="eng" unicode="&#x14b;" horiz-adv-x="1201" 
d="M642 966q88 0 160.5 -27t124.5 -76.5t81 -119.5t29 -156v-664q0 -63 -16.5 -111.5t-47.5 -81t-74 -49.5t-97 -17q-37 0 -73.5 9t-62.5 23l36 129q18 -9 40 -14.5t46 -5.5q47 0 73.5 29.5t26.5 95.5v608q0 136 -71 211t-202 75q-60 0 -112.5 -20t-92 -57.5t-62.5 -91.5
t-23 -121v-534h-150v947h148v-135q29 42 66 71.5t79 48t86 26.5t88 8z" />
    <glyph glyph-name="Omacron" unicode="&#x14c;" horiz-adv-x="1689" 
d="M844 1420q156 0 288.5 -53.5t229 -149t151 -228t54.5 -289.5q0 -158 -54.5 -290t-151 -227.5t-229 -149t-288.5 -53.5t-288.5 53.5t-229 149t-151 227.5t-54.5 290q0 157 54.5 289.5t151 228t229 149t288.5 53.5zM844 1265q-118 0 -219 -41t-175.5 -115t-117 -178.5
t-42.5 -230.5t42.5 -230.5t117 -178.5t175.5 -115t219 -41t219.5 41t176 115t117 178.5t42.5 230.5t-42.5 230.5t-117 178.5t-176 115t-219.5 41zM545 1711h598v-121h-598v121z" />
    <glyph glyph-name="omacron" unicode="&#x14d;" horiz-adv-x="1203" 
d="M601 966q107 0 198.5 -37.5t158 -103.5t104.5 -156t38 -195t-38 -195.5t-104.5 -156.5t-158 -103.5t-198.5 -37.5t-198 37.5t-158 103.5t-104.5 156.5t-37.5 195.5t37.5 195t104.5 156t158 103.5t198 37.5zM601 826q-74 0 -137 -26.5t-109.5 -73t-73 -111.5t-26.5 -141
q0 -77 26.5 -141.5t73 -111.5t109.5 -73.5t137 -26.5q73 0 136.5 26.5t110 73.5t73 111.5t26.5 141.5q0 76 -26.5 141t-73 111.5t-110 73t-136.5 26.5zM302 1296h598v-121h-598v121z" />
    <glyph glyph-name="Obreve" unicode="&#x14e;" horiz-adv-x="1689" 
d="M844 1420q156 0 288.5 -53.5t229 -149t151 -228t54.5 -289.5q0 -158 -54.5 -290t-151 -227.5t-229 -149t-288.5 -53.5t-288.5 53.5t-229 149t-151 227.5t-54.5 290q0 157 54.5 289.5t151 228t229 149t288.5 53.5zM844 1265q-118 0 -219 -41t-175.5 -115t-117 -178.5
t-42.5 -230.5t42.5 -230.5t117 -178.5t175.5 -115t219 -41t219.5 41t176 115t117 178.5t42.5 230.5t-42.5 230.5t-117 178.5t-176 115t-219.5 41zM623 1818q29 -97 84.5 -144t136.5 -47t137 47t85 144l120 -37q-38 -139 -127 -209.5t-215 -70.5q-125 0 -214 70.5t-127 209.5
z" />
    <glyph glyph-name="obreve" unicode="&#x14f;" horiz-adv-x="1203" 
d="M601 966q107 0 198.5 -37.5t158 -103.5t104.5 -156t38 -195t-38 -195.5t-104.5 -156.5t-158 -103.5t-198.5 -37.5t-198 37.5t-158 103.5t-104.5 156.5t-37.5 195.5t37.5 195t104.5 156t158 103.5t198 37.5zM601 826q-74 0 -137 -26.5t-109.5 -73t-73 -111.5t-26.5 -141
q0 -77 26.5 -141.5t73 -111.5t109.5 -73.5t137 -26.5q73 0 136.5 26.5t110 73.5t73 111.5t26.5 141.5q0 76 -26.5 141t-73 111.5t-110 73t-136.5 26.5zM380 1403q29 -97 84.5 -144t136.5 -47t137 47t85 144l120 -37q-38 -139 -127 -209.5t-215 -70.5q-125 0 -214 70.5
t-127 209.5z" />
    <glyph glyph-name="Ohungarumlaut" unicode="&#x150;" horiz-adv-x="1689" 
d="M844 1420q156 0 288.5 -53.5t229 -149t151 -228t54.5 -289.5q0 -158 -54.5 -290t-151 -227.5t-229 -149t-288.5 -53.5t-288.5 53.5t-229 149t-151 227.5t-54.5 290q0 157 54.5 289.5t151 228t229 149t288.5 53.5zM844 1265q-118 0 -219 -41t-175.5 -115t-117 -178.5
t-42.5 -230.5t42.5 -230.5t117 -178.5t175.5 -115t219 -41t219.5 41t176 115t117 178.5t42.5 230.5t-42.5 230.5t-117 178.5t-176 115t-219.5 41zM912 1507l215 300h175l-240 -300h-150zM568 1507l200 300h169l-216 -300h-153z" />
    <glyph glyph-name="ohungarumlaut" unicode="&#x151;" horiz-adv-x="1203" 
d="M601 966q107 0 198.5 -37.5t158 -103.5t104.5 -156t38 -195t-38 -195.5t-104.5 -156.5t-158 -103.5t-198.5 -37.5t-198 37.5t-158 103.5t-104.5 156.5t-37.5 195.5t37.5 195t104.5 156t158 103.5t198 37.5zM601 826q-74 0 -137 -26.5t-109.5 -73t-73 -111.5t-26.5 -141
q0 -77 26.5 -141.5t73 -111.5t109.5 -73.5t137 -26.5q73 0 136.5 26.5t110 73.5t73 111.5t26.5 141.5q0 76 -26.5 141t-73 111.5t-110 73t-136.5 26.5zM684 1092l215 300h175l-240 -300h-150zM340 1092l200 300h169l-216 -300h-153z" />
    <glyph glyph-name="OE" unicode="&#x152;" horiz-adv-x="2257" 
d="M2096 0h-1228q-171 0 -309.5 49.5t-235.5 140.5t-149.5 220.5t-52.5 289.5t52.5 289.5t149.5 220.5t235.5 140.5t309.5 49.5h1219v-151h-815v-469h790v-150h-790v-479h824v-151zM290 700q0 -124 37 -225t110 -173t181 -111t250 -39h243v1096h-243q-142 0 -250 -39.5
t-181 -111.5t-110 -173t-37 -224z" />
    <glyph glyph-name="oe" unicode="&#x153;" horiz-adv-x="1965" 
d="M1417 966q96 0 177.5 -36t140.5 -100.5t92.5 -154.5t34.5 -198q0 -15 -1 -29t-2 -27h-759q8 -77 37 -134.5t74 -96.5t102.5 -58.5t121.5 -19.5q88 0 164 32t136 87l80 -102q-44 -42 -91 -70.5t-95.5 -46t-99.5 -24.5t-103 -7q-140 0 -246.5 61.5t-164.5 171.5
q-31 -53 -74.5 -96t-96.5 -73.5t-114.5 -47t-128.5 -16.5q-107 0 -198 37.5t-158 103.5t-104.5 156.5t-37.5 195.5t37.5 195t104.5 156t158 103.5t198 37.5q68 0 129.5 -17t115 -47.5t96.5 -74t74 -97.5q59 110 163 173t238 63zM601 826q-74 0 -137 -26.5t-109.5 -73
t-73 -111.5t-26.5 -141q0 -77 26.5 -141.5t73 -111.5t109.5 -73.5t137 -26.5q73 0 136.5 26.5t110 73.5t73 111.5t26.5 141.5q0 76 -26.5 141t-73 111.5t-110 73t-136.5 26.5zM1414 833q-66 0 -119.5 -21.5t-93 -60t-65 -92t-34.5 -117.5h608q-7 66 -31.5 119.5t-63 92
t-90 59t-111.5 20.5z" />
    <glyph glyph-name="Racute" unicode="&#x154;" horiz-adv-x="1353" 
d="M751 1400q118 0 209 -26t153.5 -76.5t94.5 -124t32 -168.5q0 -91 -34 -164t-97.5 -124.5t-153.5 -79.5t-202 -28h-23l503 -609h-200l-493 609h-177v-609h-161v1400h549zM363 1249v-494h386q161 0 242.5 63.5t81.5 186.5q0 122 -83 183t-241 61h-386zM522 1507l209 300
h190l-251 -300h-148z" />
    <glyph glyph-name="racute" unicode="&#x155;" horiz-adv-x="830" 
d="M604 966q51 0 93.5 -7.5t80.5 -24.5l-36 -147q-35 19 -78.5 28.5t-85.5 9.5q-56 0 -102.5 -21t-80 -59.5t-52.5 -93t-19 -121.5v-530h-149v947h148v-133q49 73 121 112.5t160 39.5zM345 1092l209 300h190l-251 -300h-148z" />
    <glyph glyph-name="Rcommaaccent" unicode="&#x156;" horiz-adv-x="1353" 
d="M751 1400q118 0 209 -26t153.5 -76.5t94.5 -124t32 -168.5q0 -91 -34 -164t-97.5 -124.5t-153.5 -79.5t-202 -28h-23l503 -609h-200l-493 609h-177v-609h-161v1400h549zM363 1249v-494h386q161 0 242.5 63.5t81.5 186.5q0 122 -83 183t-241 61h-386zM769 -88l-74 -350
h-132l42 350h164z" />
    <glyph glyph-name="rcommaaccent" unicode="&#x157;" horiz-adv-x="830" 
d="M604 966q51 0 93.5 -7.5t80.5 -24.5l-36 -147q-35 19 -78.5 28.5t-85.5 9.5q-56 0 -102.5 -21t-80 -59.5t-52.5 -93t-19 -121.5v-530h-149v947h148v-133q49 73 121 112.5t160 39.5zM346 -88l-74 -350h-132l42 350h164z" />
    <glyph glyph-name="Rcaron" unicode="&#x158;" horiz-adv-x="1353" 
d="M751 1400q118 0 209 -26t153.5 -76.5t94.5 -124t32 -168.5q0 -91 -34 -164t-97.5 -124.5t-153.5 -79.5t-202 -28h-23l503 -609h-200l-493 609h-177v-609h-161v1400h549zM363 1249v-494h386q161 0 242.5 63.5t81.5 186.5q0 122 -83 183t-241 61h-386zM488 1794l175 -189
l174 189h160l-234 -288h-200l-235 288h160z" />
    <glyph glyph-name="rcaron" unicode="&#x159;" horiz-adv-x="830" 
d="M604 966q51 0 93.5 -7.5t80.5 -24.5l-36 -147q-35 19 -78.5 28.5t-85.5 9.5q-56 0 -102.5 -21t-80 -59.5t-52.5 -93t-19 -121.5v-530h-149v947h148v-133q49 73 121 112.5t160 39.5zM300 1379l175 -189l174 189h160l-234 -288h-200l-235 288h160z" />
    <glyph glyph-name="Sacute" unicode="&#x15a;" horiz-adv-x="1346" 
d="M1116 1135q-85 58 -190 94.5t-232 36.5q-79 0 -145.5 -17.5t-114.5 -50t-75 -79.5t-27 -106q0 -98 79.5 -153t243.5 -74l133 -16q87 -11 166 -35.5t139 -68t96 -108.5t36 -156q0 -104 -44 -182.5t-119.5 -131.5t-176.5 -80t-214 -27q-76 0 -153 13t-148.5 36.5
t-135.5 56.5t-113 74l88 128q36 -31 87 -59t111.5 -49.5t127.5 -34.5t135 -13q81 0 152 16.5t123.5 48.5t82.5 79.5t30 110.5q0 102 -86.5 156t-252.5 73l-141 16q-90 10 -165.5 36.5t-130.5 71.5t-86 110t-31 152q0 100 41.5 177t113.5 130t168.5 80.5t206.5 27.5
q80 0 150.5 -11.5t132.5 -31.5t117 -48t103 -62zM572 1507l209 300h190l-251 -300h-148z" />
    <glyph glyph-name="sacute" unicode="&#x15b;" horiz-adv-x="987" 
d="M811 746q-23 16 -56 31.5t-73.5 28.5t-86.5 21t-94 8q-51 0 -92 -10.5t-70.5 -29.5t-45.5 -47t-16 -62q0 -60 49.5 -91t143.5 -42l112 -14q151 -20 234.5 -84t83.5 -180q0 -68 -29.5 -122t-83.5 -92t-131 -58.5t-173 -20.5q-46 0 -96.5 6t-102 20.5t-101.5 37.5t-95 57
l69 112q27 -21 59 -39.5t72 -33t88.5 -22.5t108.5 -8q120 0 190.5 39t70.5 114q0 57 -48.5 91.5t-149.5 46.5l-113 13q-161 20 -237 88t-76 174q0 67 27 120.5t76.5 90.5t119.5 56.5t155 19.5q112 0 209.5 -28.5t166.5 -74.5zM384 1092l209 300h190l-251 -300h-148z" />
    <glyph glyph-name="Scircumflex" unicode="&#x15c;" horiz-adv-x="1346" 
d="M1116 1135q-85 58 -190 94.5t-232 36.5q-79 0 -145.5 -17.5t-114.5 -50t-75 -79.5t-27 -106q0 -98 79.5 -153t243.5 -74l133 -16q87 -11 166 -35.5t139 -68t96 -108.5t36 -156q0 -104 -44 -182.5t-119.5 -131.5t-176.5 -80t-214 -27q-76 0 -153 13t-148.5 36.5
t-135.5 56.5t-113 74l88 128q36 -31 87 -59t111.5 -49.5t127.5 -34.5t135 -13q81 0 152 16.5t123.5 48.5t82.5 79.5t30 110.5q0 102 -86.5 156t-252.5 73l-141 16q-90 10 -165.5 36.5t-130.5 71.5t-86 110t-31 152q0 100 41.5 177t113.5 130t168.5 80.5t206.5 27.5
q80 0 150.5 -11.5t132.5 -31.5t117 -48t103 -62zM887 1508l-174 189l-175 -189h-160l235 288h200l234 -288h-160z" />
    <glyph glyph-name="scircumflex" unicode="&#x15d;" horiz-adv-x="987" 
d="M811 746q-23 16 -56 31.5t-73.5 28.5t-86.5 21t-94 8q-51 0 -92 -10.5t-70.5 -29.5t-45.5 -47t-16 -62q0 -60 49.5 -91t143.5 -42l112 -14q151 -20 234.5 -84t83.5 -180q0 -68 -29.5 -122t-83.5 -92t-131 -58.5t-173 -20.5q-46 0 -96.5 6t-102 20.5t-101.5 37.5t-95 57
l69 112q27 -21 59 -39.5t72 -33t88.5 -22.5t108.5 -8q120 0 190.5 39t70.5 114q0 57 -48.5 91.5t-149.5 46.5l-113 13q-161 20 -237 88t-76 174q0 67 27 120.5t76.5 90.5t119.5 56.5t155 19.5q112 0 209.5 -28.5t166.5 -74.5zM688 1093l-174 189l-175 -189h-160l235 288h200
l234 -288h-160z" />
    <glyph glyph-name="Scedilla" unicode="&#x15e;" horiz-adv-x="1346" 
d="M1116 1135q-85 58 -190 94.5t-232 36.5q-79 0 -145.5 -17.5t-114.5 -50t-75 -79.5t-27 -106q0 -98 79.5 -153t243.5 -74l133 -16q87 -11 166 -35.5t139 -68t96 -108.5t36 -156q0 -104 -44 -182.5t-119.5 -131.5t-176.5 -80t-214 -27q-76 0 -153 13t-148.5 36.5
t-135.5 56.5t-113 74l88 128q36 -31 87 -59t111.5 -49.5t127.5 -34.5t135 -13q81 0 152 16.5t123.5 48.5t82.5 79.5t30 110.5q0 102 -86.5 156t-252.5 73l-141 16q-90 10 -165.5 36.5t-130.5 71.5t-86 110t-31 152q0 100 41.5 177t113.5 130t168.5 80.5t206.5 27.5
q80 0 150.5 -11.5t132.5 -31.5t117 -48t103 -62zM673 -323h-163l111 329l155 -1z" />
    <glyph glyph-name="scedilla" unicode="&#x15f;" horiz-adv-x="987" 
d="M811 746q-23 16 -56 31.5t-73.5 28.5t-86.5 21t-94 8q-51 0 -92 -10.5t-70.5 -29.5t-45.5 -47t-16 -62q0 -60 49.5 -91t143.5 -42l112 -14q151 -20 234.5 -84t83.5 -180q0 -68 -29.5 -122t-83.5 -92t-131 -58.5t-173 -20.5q-46 0 -96.5 6t-102 20.5t-101.5 37.5t-95 57
l69 112q27 -21 59 -39.5t72 -33t88.5 -22.5t108.5 -8q120 0 190.5 39t70.5 114q0 57 -48.5 91.5t-149.5 46.5l-113 13q-161 20 -237 88t-76 174q0 67 27 120.5t76.5 90.5t119.5 56.5t155 19.5q112 0 209.5 -28.5t166.5 -74.5zM493 -323h-156l109 329l150 -1z" />
    <glyph glyph-name="Scaron" unicode="&#x160;" horiz-adv-x="1346" 
d="M1116 1135q-85 58 -190 94.5t-232 36.5q-79 0 -145.5 -17.5t-114.5 -50t-75 -79.5t-27 -106q0 -98 79.5 -153t243.5 -74l133 -16q87 -11 166 -35.5t139 -68t96 -108.5t36 -156q0 -104 -44 -182.5t-119.5 -131.5t-176.5 -80t-214 -27q-76 0 -153 13t-148.5 36.5
t-135.5 56.5t-113 74l88 128q36 -31 87 -59t111.5 -49.5t127.5 -34.5t135 -13q81 0 152 16.5t123.5 48.5t82.5 79.5t30 110.5q0 102 -86.5 156t-252.5 73l-141 16q-90 10 -165.5 36.5t-130.5 71.5t-86 110t-31 152q0 100 41.5 177t113.5 130t168.5 80.5t206.5 27.5
q80 0 150.5 -11.5t132.5 -31.5t117 -48t103 -62zM538 1794l175 -189l174 189h160l-234 -288h-200l-235 288h160z" />
    <glyph glyph-name="scaron" unicode="&#x161;" horiz-adv-x="987" 
d="M811 746q-23 16 -56 31.5t-73.5 28.5t-86.5 21t-94 8q-51 0 -92 -10.5t-70.5 -29.5t-45.5 -47t-16 -62q0 -60 49.5 -91t143.5 -42l112 -14q151 -20 234.5 -84t83.5 -180q0 -68 -29.5 -122t-83.5 -92t-131 -58.5t-173 -20.5q-46 0 -96.5 6t-102 20.5t-101.5 37.5t-95 57
l69 112q27 -21 59 -39.5t72 -33t88.5 -22.5t108.5 -8q120 0 190.5 39t70.5 114q0 57 -48.5 91.5t-149.5 46.5l-113 13q-161 20 -237 88t-76 174q0 67 27 120.5t76.5 90.5t119.5 56.5t155 19.5q112 0 209.5 -28.5t166.5 -74.5zM339 1379l175 -189l174 189h160l-234 -288h-200
l-235 288h160z" />
    <glyph glyph-name="Tcommaaccent" unicode="&#x162;" horiz-adv-x="1212" 
d="M1172 1248h-486v-1248h-160v1248h-486v152h1132v-152zM582 -323h-163l111 329l155 -1z" />
    <glyph glyph-name="tcommaaccent" unicode="&#x163;" horiz-adv-x="906" 
d="M818 812h-409v-478q0 -56 14 -96t39 -66t59.5 -38.5t75.5 -12.5q55 0 106 18.5t93 48.5l70 -113q-54 -41 -123.5 -67.5t-157.5 -26.5q-77 0 -137 21t-102 64.5t-64 109.5t-22 155v481h-207v135h207v301h149v-301h409v-135zM537 -323h-156l109 329l150 -1z" />
    <glyph glyph-name="Tcaron" unicode="&#x164;" horiz-adv-x="1212" 
d="M1172 1248h-486v-1248h-160v1248h-486v152h1132v-152zM431 1794l175 -189l174 189h160l-234 -288h-200l-235 288h160z" />
    <glyph glyph-name="tcaron" unicode="&#x165;" horiz-adv-x="906" 
d="M818 812h-409v-478q0 -56 14 -96t39 -66t59.5 -38.5t75.5 -12.5q55 0 106 18.5t93 48.5l70 -113q-54 -41 -123.5 -67.5t-157.5 -26.5q-77 0 -137 21t-102 64.5t-64 109.5t-22 155v481h-207v135h207v301h149v-301h409v-135zM535 1051l7 389h153l-34 -389h-126z" />
    <glyph glyph-name="Tbar" unicode="&#x166;" horiz-adv-x="1212" 
d="M1004 629h-318v-629h-160v629h-318v152h318v467h-486v152h1132v-152h-486v-467h318v-152z" />
    <glyph glyph-name="tbar" unicode="&#x167;" horiz-adv-x="906" 
d="M818 812h-409v-222h307v-136h-307v-120q0 -56 14 -96t39 -66t59.5 -38.5t75.5 -12.5q55 0 106 18.5t93 48.5l70 -113q-54 -41 -123.5 -67.5t-157.5 -26.5q-77 0 -137 21t-102 64.5t-64 109.5t-22 155v123h-199v136h199v222h-207v135h207v301h149v-301h409v-135z" />
    <glyph glyph-name="Utilde" unicode="&#x168;" horiz-adv-x="1517" 
d="M1335 548q0 -143 -45 -249t-123.5 -177t-183.5 -106t-225 -35t-225 35t-183 106t-123 177t-45 249v852h160v-840q0 -110 31.5 -190t87 -132.5t131.5 -77.5t166 -25t166 25t131.5 77.5t87 132.5t31.5 190v840h161v-852zM406 1649q45 56 96 83.5t123 27.5q51 0 86.5 -12.5
t65 -27t56 -27t58.5 -12.5q38 0 68 16.5t62 50.5l89 -85q-45 -56 -96.5 -83.5t-122.5 -27.5q-50 0 -86 12.5t-65 27.5t-56 27.5t-59 12.5q-38 0 -68.5 -17t-62.5 -51z" />
    <glyph glyph-name="utilde" unicode="&#x169;" horiz-adv-x="1188" 
d="M1024 395q0 -105 -35 -183t-94.5 -129.5t-137.5 -76.5t-163 -25q-86 0 -164 25t-137 76.5t-94 129.5t-35 183v552h149v-538q0 -74 21 -128t58.5 -89.5t89 -53t112.5 -17.5t112 17.5t88.5 53t58.5 89.5t21 128v538h150v-552zM250 1234q45 56 96 83.5t123 27.5
q51 0 86.5 -12.5t65 -27t56 -27t58.5 -12.5q38 0 68 16.5t62 50.5l89 -85q-45 -56 -96.5 -83.5t-122.5 -27.5q-50 0 -86 12.5t-65 27.5t-56 27.5t-59 12.5q-38 0 -68.5 -17t-62.5 -51z" />
    <glyph glyph-name="Umacron" unicode="&#x16a;" horiz-adv-x="1517" 
d="M1335 548q0 -143 -45 -249t-123.5 -177t-183.5 -106t-225 -35t-225 35t-183 106t-123 177t-45 249v852h160v-840q0 -110 31.5 -190t87 -132.5t131.5 -77.5t166 -25t166 25t131.5 77.5t87 132.5t31.5 190v840h161v-852zM459 1711h598v-121h-598v121z" />
    <glyph glyph-name="umacron" unicode="&#x16b;" horiz-adv-x="1188" 
d="M1024 395q0 -105 -35 -183t-94.5 -129.5t-137.5 -76.5t-163 -25q-86 0 -164 25t-137 76.5t-94 129.5t-35 183v552h149v-538q0 -74 21 -128t58.5 -89.5t89 -53t112.5 -17.5t112 17.5t88.5 53t58.5 89.5t21 128v538h150v-552zM295 1296h598v-121h-598v121z" />
    <glyph glyph-name="Ubreve" unicode="&#x16c;" horiz-adv-x="1517" 
d="M1335 548q0 -143 -45 -249t-123.5 -177t-183.5 -106t-225 -35t-225 35t-183 106t-123 177t-45 249v852h160v-840q0 -110 31.5 -190t87 -132.5t131.5 -77.5t166 -25t166 25t131.5 77.5t87 132.5t31.5 190v840h161v-852zM537 1818q29 -97 84.5 -144t136.5 -47t137 47
t85 144l120 -37q-38 -139 -127 -209.5t-215 -70.5q-125 0 -214 70.5t-127 209.5z" />
    <glyph glyph-name="ubreve" unicode="&#x16d;" horiz-adv-x="1188" 
d="M1024 395q0 -105 -35 -183t-94.5 -129.5t-137.5 -76.5t-163 -25q-86 0 -164 25t-137 76.5t-94 129.5t-35 183v552h149v-538q0 -74 21 -128t58.5 -89.5t89 -53t112.5 -17.5t112 17.5t88.5 53t58.5 89.5t21 128v538h150v-552zM373 1403q29 -97 84.5 -144t136.5 -47t137 47
t85 144l120 -37q-38 -139 -127 -209.5t-215 -70.5q-125 0 -214 70.5t-127 209.5z" />
    <glyph glyph-name="Uring" unicode="&#x16e;" horiz-adv-x="1517" 
d="M1335 548q0 -143 -45 -249t-123.5 -177t-183.5 -106t-225 -35t-225 35t-183 106t-123 177t-45 249v852h160v-840q0 -110 31.5 -190t87 -132.5t131.5 -77.5t166 -25t166 25t131.5 77.5t87 132.5t31.5 190v840h161v-852zM758 1487q-47 0 -88 17.5t-72 48.5t-49 71.5
t-18 87.5q0 46 18 87t49 71.5t72 48t88 17.5t88.5 -17.5t72.5 -48t49 -71.5t18 -87q0 -47 -18 -87.5t-49 -71.5t-72.5 -48.5t-88.5 -17.5zM758 1582q26 0 49.5 10t41 27.5t27.5 41.5t10 51t-10 50.5t-27.5 41t-41 27.5t-49.5 10t-49.5 -10t-40.5 -27.5t-27 -41t-10 -50.5
t10 -51t27 -41.5t40.5 -27.5t49.5 -10z" />
    <glyph glyph-name="uring" unicode="&#x16f;" horiz-adv-x="1188" 
d="M1024 395q0 -105 -35 -183t-94.5 -129.5t-137.5 -76.5t-163 -25q-86 0 -164 25t-137 76.5t-94 129.5t-35 183v552h149v-538q0 -74 21 -128t58.5 -89.5t89 -53t112.5 -17.5t112 17.5t88.5 53t58.5 89.5t21 128v538h150v-552zM593 1072q-47 0 -88 17.5t-72 48.5t-49 71.5
t-18 87.5q0 46 18 87t49 71.5t72 48t88 17.5t88.5 -17.5t72.5 -48t49 -71.5t18 -87q0 -47 -18 -87.5t-49 -71.5t-72.5 -48.5t-88.5 -17.5zM593 1167q26 0 49.5 10t41 27.5t27.5 41.5t10 51t-10 50.5t-27.5 41t-41 27.5t-49.5 10t-49.5 -10t-40.5 -27.5t-27 -41t-10 -50.5
t10 -51t27 -41.5t40.5 -27.5t49.5 -10z" />
    <glyph glyph-name="Uhungarumlaut" unicode="&#x170;" horiz-adv-x="1517" 
d="M1335 548q0 -143 -45 -249t-123.5 -177t-183.5 -106t-225 -35t-225 35t-183 106t-123 177t-45 249v852h160v-840q0 -110 31.5 -190t87 -132.5t131.5 -77.5t166 -25t166 25t131.5 77.5t87 132.5t31.5 190v840h161v-852zM826 1507l215 300h175l-240 -300h-150zM482 1507
l200 300h169l-216 -300h-153z" />
    <glyph glyph-name="uhungarumlaut" unicode="&#x171;" horiz-adv-x="1188" 
d="M1024 395q0 -105 -35 -183t-94.5 -129.5t-137.5 -76.5t-163 -25q-86 0 -164 25t-137 76.5t-94 129.5t-35 183v552h149v-538q0 -74 21 -128t58.5 -89.5t89 -53t112.5 -17.5t112 17.5t88.5 53t58.5 89.5t21 128v538h150v-552zM677 1092l215 300h175l-240 -300h-150z
M333 1092l200 300h169l-216 -300h-153z" />
    <glyph glyph-name="Uogonek" unicode="&#x172;" horiz-adv-x="1517" 
d="M1335 548q0 -143 -45 -249t-123.5 -177t-183.5 -106t-225 -35t-225 35t-183 106t-123 177t-45 249v852h160v-840q0 -110 31.5 -190t87 -132.5t131.5 -77.5t166 -25t166 25t131.5 77.5t87 132.5t31.5 190v840h161v-852zM1199 -325q-47 -45 -106.5 -67.5t-125.5 -22.5
q-59 0 -107 15.5t-82.5 43t-53 65.5t-18.5 82q0 54 23 97t66 78.5t105 65.5t141 59l14 -45q-101 -55 -152 -107.5t-51 -120.5q0 -46 33.5 -75t90.5 -29q80 0 143 58z" />
    <glyph glyph-name="uogonek" unicode="&#x173;" horiz-adv-x="1188" 
d="M1024 395q0 -105 -35 -183t-94.5 -129.5t-137.5 -76.5t-163 -25q-86 0 -164 25t-137 76.5t-94 129.5t-35 183v552h149v-538q0 -74 21 -128t58.5 -89.5t89 -53t112.5 -17.5t112 17.5t88.5 53t58.5 89.5t21 128v538h150v-552zM987 -325q-47 -45 -106.5 -67.5t-125.5 -22.5
q-59 0 -107 15.5t-82.5 43t-53 65.5t-18.5 82q0 54 23 97t66 78.5t105 65.5t141 59l14 -45q-101 -55 -152 -107.5t-51 -120.5q0 -46 33.5 -75t90.5 -29q80 0 143 58z" />
    <glyph glyph-name="Wcircumflex" unicode="&#x174;" horiz-adv-x="2197" 
d="M1684 0h-198l-388 1186l-388 -1186h-197l-455 1400h168l387 -1218l396 1218h182l395 -1219l388 1219h165zM1272 1508l-174 189l-175 -189h-160l235 288h200l234 -288h-160z" />
    <glyph glyph-name="wcircumflex" unicode="&#x175;" horiz-adv-x="1706" 
d="M1221 155l285 792h155l-350 -947h-177l-283 787l-282 -787h-174l-350 947h159l283 -791l282 791h168zM1027 1093l-174 189l-175 -189h-160l235 288h200l234 -288h-160z" />
    <glyph glyph-name="Ycircumflex" unicode="&#x176;" horiz-adv-x="1287" 
d="M725 587v-587h-160v589l-554 811h192l443 -664l443 664h187zM820 1508l-174 189l-175 -189h-160l235 288h200l234 -288h-160z" />
    <glyph glyph-name="ycircumflex" unicode="&#x177;" horiz-adv-x="1054" 
d="M268 -404h-165l353 609l-435 742h167l353 -594l334 594h164zM706 1093l-174 189l-175 -189h-160l235 288h200l234 -288h-160z" />
    <glyph glyph-name="Ydieresis" unicode="&#x178;" horiz-adv-x="1287" 
d="M725 587v-587h-160v589l-554 811h192l443 -664l443 664h187zM443 1758q22 0 41.5 -8.5t33.5 -22.5t22.5 -34t8.5 -42q0 -23 -8.5 -42t-22.5 -33t-33.5 -22t-41.5 -8q-45 0 -75.5 30t-30.5 75q0 22 8 42t22.5 34t33.5 22.5t42 8.5zM849 1758q22 0 41.5 -8.5t33.5 -22.5
t22.5 -34t8.5 -42q0 -23 -8.5 -42t-22.5 -33t-33.5 -22t-41.5 -8q-45 0 -75 30t-30 75q0 22 8 42t22 34t33 22.5t42 8.5z" />
    <glyph glyph-name="Zacute" unicode="&#x179;" horiz-adv-x="1314" 
d="M1190 1276l-855 -1124h858v-152h-1072v124l856 1124h-846v152h1059v-124zM520 1507l209 300h190l-251 -300h-148z" />
    <glyph glyph-name="zacute" unicode="&#x17a;" horiz-adv-x="1055" 
d="M924 838l-604 -703h613v-135h-811v108l610 704h-592v135h784v-109zM402 1092l209 300h190l-251 -300h-148z" />
    <glyph glyph-name="Zdotaccent" unicode="&#x17b;" horiz-adv-x="1314" 
d="M1190 1276l-855 -1124h858v-152h-1072v124l856 1124h-846v152h1059v-124zM647.02 1764.41q22.7666 0 42.9463 -8.2793q20.1797 -8.27832 34.668 -23.2832q14.4873 -15.0059 23.2842 -35.1855q8.7959 -20.1797 8.7959 -42.9463q0 -23.8018 -8.7959 -43.4639
q-8.79688 -19.6621 -23.2842 -34.1504q-14.4883 -14.4873 -34.668 -22.7666q-20.1797 -8.27832 -42.9463 -8.27832q-46.5684 0 -77.6133 31.0449q-31.0459 31.0459 -31.0459 77.6143t31.0459 78.1318q31.0449 31.5625 77.6133 31.5625z" />
    <glyph glyph-name="zdotaccent" unicode="&#x17c;" horiz-adv-x="1055" 
d="M924 838l-604 -703h613v-135h-811v108l610 704h-592v135h784v-109zM532 1389q22 0 41.5 -8t33.5 -22.5t22.5 -34t8.5 -41.5q0 -23 -8.5 -42t-22.5 -33t-33.5 -22t-41.5 -8q-45 0 -75 30t-30 75t30 75.5t75 30.5z" />
    <glyph glyph-name="Zcaron" unicode="&#x17d;" horiz-adv-x="1314" 
d="M1190 1276l-855 -1124h858v-152h-1072v124l856 1124h-846v152h1059v-124zM486 1794l175 -189l174 189h160l-234 -288h-200l-235 288h160z" />
    <glyph glyph-name="zcaron" unicode="&#x17e;" horiz-adv-x="1055" 
d="M924 838l-604 -703h613v-135h-811v108l610 704h-592v135h784v-109zM357 1379l175 -189l174 189h160l-234 -288h-200l-235 288h160z" />
    <glyph glyph-name="longs" unicode="&#x17f;" horiz-adv-x="645" 
d="M481 1459q81 0 144.5 -20t114.5 -51l-53 -125q-39 23 -90.5 39.5t-105.5 16.5q-92 0 -133.5 -55t-41.5 -155v-1109h-150v1109q0 76 17.5 140t56 110.5t98 73t143.5 26.5z" />
    <glyph glyph-name="uni018F" unicode="&#x18f;" horiz-adv-x="1622" 
d="M794 1419q150 0 279 -53.5t224 -149.5t149 -228t54 -288t-53 -288t-146 -228t-219.5 -149.5t-272.5 -53.5q-151 0 -277.5 53t-217.5 147t-142 224t-51 285q0 21 1 41.5t2 41.5h1207q-12 108 -58 198.5t-117.5 156t-163.5 101.5t-197 36q-73 0 -137.5 -15t-121.5 -43.5
t-106.5 -69t-92.5 -90.5l-112 110q107 121 248.5 191.5t320.5 70.5zM810 135q101 0 190.5 35.5t158.5 100t114 154.5t57 198h-1033q6 -106 47 -195.5t109 -154.5t159 -101.5t198 -36.5z" />
    <glyph glyph-name="florin" unicode="&#x192;" horiz-adv-x="1400" 
d="M1080 657h-311l-34 -348q-8 -74 -27.5 -134.5t-54.5 -103t-86.5 -66t-123.5 -23.5t-130 18t-103 47l51 120q34 -21 79.5 -35.5t93.5 -14.5q75 0 110.5 51t44.5 141l35 348h-261v136h275l30 298q7 74 27 134.5t55 103t86.5 66t122.5 23.5q72 0 130 -18t104 -47l-52 -120
q-34 21 -79.5 35.5t-93.5 14.5q-75 0 -110.5 -51t-44.5 -141l-30 -298h297v-136z" />
    <glyph glyph-name="uni01B5" unicode="&#x1b5;" horiz-adv-x="1314" 
d="M1057 625h-363l-359 -473h858v-152h-1072v124l385 506h-249v148h362l358 470h-846v152h1059v-124l-383 -503h250v-148z" />
    <glyph glyph-name="uni01B6" unicode="&#x1b6;" horiz-adv-x="1055" 
d="M853 422h-287l-246 -287h613v-135h-811v108l277 319h-191v115h289l236 270h-593v135h784v-109l-258 -301h187v-115z" />
    <glyph glyph-name="uni01CD" unicode="&#x1cd;" horiz-adv-x="1421" 
d="M1385 0h-172l-159 390h-693l-158 -390h-167l575 1400h199zM423 542h570l-285 699zM536 1794l175 -189l174 189h160l-234 -288h-200l-235 288h160z" />
    <glyph glyph-name="uni01CE" unicode="&#x1ce;" horiz-adv-x="1246" 
d="M1071 0h-149v141q-57 -73 -142.5 -116.5t-203.5 -43.5q-100 0 -186.5 37t-150 102.5t-100 156t-36.5 197.5q0 106 36.5 196.5t100 156t150 102.5t186.5 37q118 0 203.5 -44t142.5 -116v141h149v-947zM594 826q-76 0 -138.5 -27.5t-107 -75.5t-69 -112t-24.5 -137
q0 -74 24.5 -138t69.5 -112t107.5 -75.5t137.5 -27.5q74 0 136 27t106.5 74t69.5 112t25 140t-25 139.5t-69.5 111.5t-106.5 74t-136 27zM436 1379l175 -189l174 189h160l-234 -288h-200l-235 288h160z" />
    <glyph glyph-name="uni01CF" unicode="&#x1cf;" horiz-adv-x="565" 
d="M363 0h-161v1400h161v-1400zM107 1794l175 -189l174 189h160l-234 -288h-200l-235 288h160z" />
    <glyph glyph-name="uni01D0" unicode="&#x1d0;" horiz-adv-x="500" 
d="M325 0h-150v947h150v-947zM75 1379l175 -189l174 189h160l-234 -288h-200l-235 288h160z" />
    <glyph glyph-name="uni01D1" unicode="&#x1d1;" horiz-adv-x="1689" 
d="M844 1420q156 0 288.5 -53.5t229 -149t151 -228t54.5 -289.5q0 -158 -54.5 -290t-151 -227.5t-229 -149t-288.5 -53.5t-288.5 53.5t-229 149t-151 227.5t-54.5 290q0 157 54.5 289.5t151 228t229 149t288.5 53.5zM844 1265q-118 0 -219 -41t-175.5 -115t-117 -178.5
t-42.5 -230.5t42.5 -230.5t117 -178.5t175.5 -115t219 -41t219.5 41t176 115t117 178.5t42.5 230.5t-42.5 230.5t-117 178.5t-176 115t-219.5 41zM669 1794l175 -189l174 189h160l-234 -288h-200l-235 288h160z" />
    <glyph glyph-name="uni01D2" unicode="&#x1d2;" horiz-adv-x="1203" 
d="M601 966q107 0 198.5 -37.5t158 -103.5t104.5 -156t38 -195t-38 -195.5t-104.5 -156.5t-158 -103.5t-198.5 -37.5t-198 37.5t-158 103.5t-104.5 156.5t-37.5 195.5t37.5 195t104.5 156t158 103.5t198 37.5zM601 826q-74 0 -137 -26.5t-109.5 -73t-73 -111.5t-26.5 -141
q0 -77 26.5 -141.5t73 -111.5t109.5 -73.5t137 -26.5q73 0 136.5 26.5t110 73.5t73 111.5t26.5 141.5q0 76 -26.5 141t-73 111.5t-110 73t-136.5 26.5zM426 1379l175 -189l174 189h160l-234 -288h-200l-235 288h160z" />
    <glyph glyph-name="uni01D3" unicode="&#x1d3;" horiz-adv-x="1517" 
d="M1335 548q0 -143 -45 -249t-123.5 -177t-183.5 -106t-225 -35t-225 35t-183 106t-123 177t-45 249v852h160v-840q0 -110 31.5 -190t87 -132.5t131.5 -77.5t166 -25t166 25t131.5 77.5t87 132.5t31.5 190v840h161v-852zM583 1794l175 -189l174 189h160l-234 -288h-200
l-235 288h160z" />
    <glyph glyph-name="uni01D4" unicode="&#x1d4;" horiz-adv-x="1188" 
d="M1024 395q0 -105 -35 -183t-94.5 -129.5t-137.5 -76.5t-163 -25q-86 0 -164 25t-137 76.5t-94 129.5t-35 183v552h149v-538q0 -74 21 -128t58.5 -89.5t89 -53t112.5 -17.5t112 17.5t88.5 53t58.5 89.5t21 128v538h150v-552zM419 1379l175 -189l174 189h160l-234 -288
h-200l-235 288h160z" />
    <glyph glyph-name="uni01D5" unicode="&#x1d5;" horiz-adv-x="1517" 
d="M1335 548q0 -143 -45 -249t-123.5 -177t-183.5 -106t-225 -35t-225 35t-183 106t-123 177t-45 249v852h160v-840q0 -110 31.5 -190t87 -132.5t131.5 -77.5t166 -25t166 25t131.5 77.5t87 132.5t31.5 190v840h161v-852zM459 2045h598v-121h-598v121zM555 1758
q22 0 41.5 -8.5t33.5 -22.5t22.5 -34t8.5 -42q0 -23 -8.5 -42t-22.5 -33t-33.5 -22t-41.5 -8q-45 0 -75.5 30t-30.5 75q0 22 8 42t22.5 34t33.5 22.5t42 8.5zM961 1758q22 0 41.5 -8.5t33.5 -22.5t22.5 -34t8.5 -42q0 -23 -8.5 -42t-22.5 -33t-33.5 -22t-41.5 -8
q-45 0 -75 30t-30 75q0 22 8 42t22 34t33 22.5t42 8.5z" />
    <glyph glyph-name="uni01D6" unicode="&#x1d6;" horiz-adv-x="1188" 
d="M1024 395q0 -105 -35 -183t-94.5 -129.5t-137.5 -76.5t-163 -25q-86 0 -164 25t-137 76.5t-94 129.5t-35 183v552h149v-538q0 -74 21 -128t58.5 -89.5t89 -53t112.5 -17.5t112 17.5t88.5 53t58.5 89.5t21 128v538h150v-552zM391 1343q22 0 41.5 -8.5t33.5 -22.5t22.5 -34
t8.5 -42q0 -23 -8.5 -42t-22.5 -33t-33.5 -22t-41.5 -8q-45 0 -75.5 30t-30.5 75q0 22 8 42t22.5 34t33.5 22.5t42 8.5zM797 1343q22 0 41.5 -8.5t33.5 -22.5t22.5 -34t8.5 -42q0 -23 -8.5 -42t-22.5 -33t-33.5 -22t-41.5 -8q-45 0 -75 30t-30 75q0 22 8 42t22 34t33 22.5
t42 8.5zM295 1631h598v-121h-598v121z" />
    <glyph glyph-name="uni01D7" unicode="&#x1d7;" horiz-adv-x="1517" 
d="M1335 548q0 -143 -45 -249t-123.5 -177t-183.5 -106t-225 -35t-225 35t-183 106t-123 177t-45 249v852h160v-840q0 -110 31.5 -190t87 -132.5t131.5 -77.5t166 -25t166 25t131.5 77.5t87 132.5t31.5 190v840h161v-852zM617 1906l209 300h190l-251 -300h-148zM555 1758
q22 0 41.5 -8.5t33.5 -22.5t22.5 -34t8.5 -42q0 -23 -8.5 -42t-22.5 -33t-33.5 -22t-41.5 -8q-45 0 -75.5 30t-30.5 75q0 22 8 42t22.5 34t33.5 22.5t42 8.5zM961 1758q22 0 41.5 -8.5t33.5 -22.5t22.5 -34t8.5 -42q0 -23 -8.5 -42t-22.5 -33t-33.5 -22t-41.5 -8
q-45 0 -75 30t-30 75q0 22 8 42t22 34t33 22.5t42 8.5z" />
    <glyph glyph-name="uni01D8" unicode="&#x1d8;" horiz-adv-x="1188" 
d="M1024 395q0 -105 -35 -183t-94.5 -129.5t-137.5 -76.5t-163 -25q-86 0 -164 25t-137 76.5t-94 129.5t-35 183v552h149v-538q0 -74 21 -128t58.5 -89.5t89 -53t112.5 -17.5t112 17.5t88.5 53t58.5 89.5t21 128v538h150v-552zM391 1343q22 0 41.5 -8.5t33.5 -22.5t22.5 -34
t8.5 -42q0 -23 -8.5 -42t-22.5 -33t-33.5 -22t-41.5 -8q-45 0 -75.5 30t-30.5 75q0 22 8 42t22.5 34t33.5 22.5t42 8.5zM797 1343q22 0 41.5 -8.5t33.5 -22.5t22.5 -34t8.5 -42q0 -23 -8.5 -42t-22.5 -33t-33.5 -22t-41.5 -8q-45 0 -75 30t-30 75q0 22 8 42t22 34t33 22.5
t42 8.5zM453 1492l209 300h190l-251 -300h-148z" />
    <glyph glyph-name="uni01D9" unicode="&#x1d9;" horiz-adv-x="1517" 
d="M1335 548q0 -143 -45 -249t-123.5 -177t-183.5 -106t-225 -35t-225 35t-183 106t-123 177t-45 249v852h160v-840q0 -110 31.5 -190t87 -132.5t131.5 -77.5t166 -25t166 25t131.5 77.5t87 132.5t31.5 190v840h161v-852zM583 2193l175 -189l174 189h160l-234 -288h-200
l-235 288h160zM555 1758q22 0 41.5 -8.5t33.5 -22.5t22.5 -34t8.5 -42q0 -23 -8.5 -42t-22.5 -33t-33.5 -22t-41.5 -8q-45 0 -75.5 30t-30.5 75q0 22 8 42t22.5 34t33.5 22.5t42 8.5zM961 1758q22 0 41.5 -8.5t33.5 -22.5t22.5 -34t8.5 -42q0 -23 -8.5 -42t-22.5 -33
t-33.5 -22t-41.5 -8q-45 0 -75 30t-30 75q0 22 8 42t22 34t33 22.5t42 8.5z" />
    <glyph glyph-name="uni01DA" unicode="&#x1da;" horiz-adv-x="1188" 
d="M1024 395q0 -105 -35 -183t-94.5 -129.5t-137.5 -76.5t-163 -25q-86 0 -164 25t-137 76.5t-94 129.5t-35 183v552h149v-538q0 -74 21 -128t58.5 -89.5t89 -53t112.5 -17.5t112 17.5t88.5 53t58.5 89.5t21 128v538h150v-552zM391 1343q22 0 41.5 -8.5t33.5 -22.5t22.5 -34
t8.5 -42q0 -23 -8.5 -42t-22.5 -33t-33.5 -22t-41.5 -8q-45 0 -75.5 30t-30.5 75q0 22 8 42t22.5 34t33.5 22.5t42 8.5zM797 1343q22 0 41.5 -8.5t33.5 -22.5t22.5 -34t8.5 -42q0 -23 -8.5 -42t-22.5 -33t-33.5 -22t-41.5 -8q-45 0 -75 30t-30 75q0 22 8 42t22 34t33 22.5
t42 8.5zM419 1779l175 -189l174 189h160l-234 -288h-200l-235 288h160z" />
    <glyph glyph-name="uni01DB" unicode="&#x1db;" horiz-adv-x="1517" 
d="M1335 548q0 -143 -45 -249t-123.5 -177t-183.5 -106t-225 -35t-225 35t-183 106t-123 177t-45 249v852h160v-840q0 -110 31.5 -190t87 -132.5t131.5 -77.5t166 -25t166 25t131.5 77.5t87 132.5t31.5 190v840h161v-852zM490 2206h189l210 -300h-148zM555 1758
q22 0 41.5 -8.5t33.5 -22.5t22.5 -34t8.5 -42q0 -23 -8.5 -42t-22.5 -33t-33.5 -22t-41.5 -8q-45 0 -75.5 30t-30.5 75q0 22 8 42t22.5 34t33.5 22.5t42 8.5zM961 1758q22 0 41.5 -8.5t33.5 -22.5t22.5 -34t8.5 -42q0 -23 -8.5 -42t-22.5 -33t-33.5 -22t-41.5 -8
q-45 0 -75 30t-30 75q0 22 8 42t22 34t33 22.5t42 8.5z" />
    <glyph glyph-name="uni01DC" unicode="&#x1dc;" horiz-adv-x="1188" 
d="M1024 395q0 -105 -35 -183t-94.5 -129.5t-137.5 -76.5t-163 -25q-86 0 -164 25t-137 76.5t-94 129.5t-35 183v552h149v-538q0 -74 21 -128t58.5 -89.5t89 -53t112.5 -17.5t112 17.5t88.5 53t58.5 89.5t21 128v538h150v-552zM391 1343q22 0 41.5 -8.5t33.5 -22.5t22.5 -34
t8.5 -42q0 -23 -8.5 -42t-22.5 -33t-33.5 -22t-41.5 -8q-45 0 -75.5 30t-30.5 75q0 22 8 42t22.5 34t33.5 22.5t42 8.5zM797 1343q22 0 41.5 -8.5t33.5 -22.5t22.5 -34t8.5 -42q0 -23 -8.5 -42t-22.5 -33t-33.5 -22t-41.5 -8q-45 0 -75 30t-30 75q0 22 8 42t22 34t33 22.5
t42 8.5zM326 1792h189l210 -300h-148z" />
    <glyph glyph-name="uni01E2" unicode="&#x1e2;" horiz-adv-x="2283" 
d="M2122 0h-985v365h-638l-276 -365h-194l1064 1400h1020v-151h-815v-469h790v-150h-790v-479h824v-151zM1137 517v690l-523 -690h523zM1226 1711h598v-121h-598v121z" />
    <glyph glyph-name="uni01E3" unicode="&#x1e3;" horiz-adv-x="1800" 
d="M1252 965q96 0 177.5 -36t140.5 -100.5t92.5 -154t34.5 -197.5q0 -15 -1 -29t-2 -27h-759q8 -77 37 -134.5t74 -96.5t102 -58.5t122 -19.5q88 0 164 32t136 87l79 -102q-44 -42 -90.5 -70.5t-95.5 -46t-99.5 -24.5t-102.5 -7q-125 0 -224.5 49t-163.5 137
q-32 -39 -73.5 -73t-91.5 -59t-109.5 -39.5t-128.5 -14.5q-86 0 -154.5 21t-115.5 59t-72 90.5t-25 114.5q0 61 25.5 112.5t75 88.5t122 57.5t167.5 20.5h290v7q0 143 -73 211t-209 68q-43 0 -81.5 -8t-73 -21t-64.5 -30t-55 -36l-70 111q80 60 171 89.5t192 29.5
q128 0 221.5 -46.5t138.5 -152.5q28 45 68 82t88 62.5t102.5 39.5t113.5 14zM493 113q44 0 89 11t87 32t79 51.5t67 68.5q-13 34 -20.5 70t-11.5 75h-274q-68 0 -115 -12.5t-76.5 -33.5t-42.5 -49t-13 -60t14.5 -59.5t44 -48.5t72.5 -33t100 -12zM1249 833
q-66 0 -119.5 -21.5t-93 -60t-65 -92t-34.5 -117.5h607q-7 66 -31.5 119.5t-63 92t-89.5 59t-111 20.5zM596 1296h598v-121h-598v121z" />
    <glyph glyph-name="Gcaron" unicode="&#x1e6;" horiz-adv-x="1639" 
d="M844 1420q168 0 307 -62t236 -173l-119 -114q-75 91 -184 142.5t-240 51.5q-118 0 -219 -41t-175.5 -115t-117 -178.5t-42.5 -230.5t42.5 -230.5t116 -178.5t173.5 -115t215 -41q111 0 200 32t153.5 92t103 145.5t47.5 193.5h-436v150h610q1 -11 1.5 -21t0.5 -20
q0 -153 -47 -285.5t-135 -230.5t-214 -154t-284 -56q-138 0 -267 48.5t-229 141t-160 226t-60 303.5q0 105 25 199.5t71 174.5t111 144t145 109t174 69t197 24zM647 1794l175 -189l174 189h160l-234 -288h-200l-235 288h160z" />
    <glyph glyph-name="gcaron" unicode="&#x1e7;" horiz-adv-x="1235" 
d="M572 966q115 0 199.5 -43.5t138.5 -117.5v142h150v-882q0 -116 -37 -205.5t-103.5 -150.5t-158.5 -92.5t-202 -31.5q-57 0 -112.5 8.5t-107.5 25t-97.5 40t-81.5 53.5l66 120q68 -51 152 -81t181 -30q77 0 141.5 21.5t111 64.5t72.5 106t26 146v97q-54 -75 -138.5 -118
t-199.5 -43q-100 0 -185.5 35.5t-148.5 100t-99 153.5t-36 197q0 107 36 196.5t99 153.5t148.5 99.5t185.5 35.5zM589 826q-75 0 -137 -27t-105.5 -74t-67.5 -109.5t-24 -134.5t24 -135t67.5 -110t105.5 -74t137 -27q73 0 134.5 26.5t105.5 73t69 109.5t25 137q0 73 -25 136
t-69 109.5t-105.5 73t-134.5 26.5zM429 1379l175 -189l174 189h160l-234 -288h-200l-235 288h160z" />
    <glyph glyph-name="Aringacute" unicode="&#x1fa;" horiz-adv-x="1421" 
d="M1385 0h-172l-159 390h-693l-158 -390h-167l575 1400h199zM423 542h570l-285 699zM567 1823l209 300h190l-251 -300h-148zM708 1314q-47 0 -88 17.5t-72 48.5t-49 71.5t-18 87.5q0 46 18 87t49 71.5t72 48t88 17.5t88.5 -17.5t72.5 -48t49 -71.5t18 -87q0 -47 -18 -87.5
t-49 -71.5t-72.5 -48.5t-88.5 -17.5zM708 1409q26 0 49.5 10t41 27.5t27.5 41.5t10 51t-10 50.5t-27.5 41t-41 27.5t-49.5 10t-49.5 -10t-40.5 -27.5t-27 -41t-10 -50.5t10 -51t27 -41.5t40.5 -27.5t49.5 -10z" />
    <glyph glyph-name="aringacute" unicode="&#x1fb;" horiz-adv-x="1246" 
d="M1071 0h-149v141q-57 -73 -142.5 -116.5t-203.5 -43.5q-100 0 -186.5 37t-150 102.5t-100 156t-36.5 197.5q0 106 36.5 196.5t100 156t150 102.5t186.5 37q118 0 203.5 -44t142.5 -116v141h149v-947zM594 826q-76 0 -138.5 -27.5t-107 -75.5t-69 -112t-24.5 -137
q0 -74 24.5 -138t69.5 -112t107.5 -75.5t137.5 -27.5q74 0 136 27t106.5 74t69.5 112t25 140t-25 139.5t-69.5 111.5t-106.5 74t-136 27zM595 1039q-47 0 -88 17.5t-72 48.5t-49 71.5t-18 87.5q0 46 18 87t49 71.5t72 48t88 17.5t88.5 -17.5t72.5 -48t49 -71.5t18 -87
q0 -47 -18 -87.5t-49 -71.5t-72.5 -48.5t-88.5 -17.5zM595 1134q26 0 49.5 10t41 27.5t27.5 41.5t10 51t-10 50.5t-27.5 41t-41 27.5t-49.5 10t-49.5 -10t-40.5 -27.5t-27 -41t-10 -50.5t10 -51t27 -41.5t40.5 -27.5t49.5 -10zM455 1545l209 300h190l-251 -300h-148z" />
    <glyph glyph-name="AEacute" unicode="&#x1fc;" horiz-adv-x="2283" 
d="M2122 0h-985v365h-638l-276 -365h-194l1064 1400h1020v-151h-815v-469h790v-150h-790v-479h824v-151zM1137 517v690l-523 -690h523zM1384 1507l209 300h190l-251 -300h-148z" />
    <glyph glyph-name="aeacute" unicode="&#x1fd;" horiz-adv-x="1800" 
d="M1252 965q96 0 177.5 -36t140.5 -100.5t92.5 -154t34.5 -197.5q0 -15 -1 -29t-2 -27h-759q8 -77 37 -134.5t74 -96.5t102 -58.5t122 -19.5q88 0 164 32t136 87l79 -102q-44 -42 -90.5 -70.5t-95.5 -46t-99.5 -24.5t-102.5 -7q-125 0 -224.5 49t-163.5 137
q-32 -39 -73.5 -73t-91.5 -59t-109.5 -39.5t-128.5 -14.5q-86 0 -154.5 21t-115.5 59t-72 90.5t-25 114.5q0 61 25.5 112.5t75 88.5t122 57.5t167.5 20.5h290v7q0 143 -73 211t-209 68q-43 0 -81.5 -8t-73 -21t-64.5 -30t-55 -36l-70 111q80 60 171 89.5t192 29.5
q128 0 221.5 -46.5t138.5 -152.5q28 45 68 82t88 62.5t102.5 39.5t113.5 14zM493 113q44 0 89 11t87 32t79 51.5t67 68.5q-13 34 -20.5 70t-11.5 75h-274q-68 0 -115 -12.5t-76.5 -33.5t-42.5 -49t-13 -60t14.5 -59.5t44 -48.5t72.5 -33t100 -12zM1249 833
q-66 0 -119.5 -21.5t-93 -60t-65 -92t-34.5 -117.5h607q-7 66 -31.5 119.5t-63 92t-89.5 59t-111 20.5zM765 1092l209 300h190l-251 -300h-148z" />
    <glyph glyph-name="Oslashacute" unicode="&#x1fe;" horiz-adv-x="1689" 
d="M844 1420q135 0 251.5 -40t209.5 -113l152 152l106 -106l-152 -152q74 -92 115 -208t41 -253q0 -158 -54.5 -290t-151 -227.5t-229 -149t-288.5 -53.5q-136 0 -252 40t-209 113l-151 -151l-107 105l151 151q-74 92 -114.5 208.5t-40.5 253.5q0 157 54.5 289.5t151 228
t229 149t288.5 53.5zM1399 700q0 102 -27.5 188.5t-77.5 155.5l-796 -796q70 -55 158 -84t188 -29q118 0 219.5 41t176 115t117 178.5t42.5 230.5zM844 1265q-118 0 -219 -41t-175.5 -115t-117 -178.5t-42.5 -230.5q0 -102 27 -188.5t77 -155.5l796 796q-71 54 -158.5 83.5
t-187.5 29.5zM703 1507l209 300h190l-251 -300h-148z" />
    <glyph glyph-name="oslashacute" unicode="&#x1ff;" horiz-adv-x="1203" 
d="M601 966q88 0 165.5 -25.5t140.5 -72.5l111 111l90 -90l-110 -110q48 -63 75 -140t27 -165q0 -105 -38 -195.5t-104.5 -156.5t-158 -103.5t-198.5 -37.5q-88 0 -164.5 25t-139.5 72l-111 -111l-91 89l110 110q-49 63 -75.5 141t-26.5 167q0 105 37.5 195t104.5 156
t158 103.5t198 37.5zM601 826q-74 0 -137 -26.5t-109.5 -73t-73 -111.5t-26.5 -141q0 -58 15 -108.5t42 -92.5l491 491q-43 29 -94 45.5t-108 16.5zM947 474q0 57 -15 106.5t-41 91.5l-491 -491q42 -29 93 -44.5t108 -15.5q73 0 136.5 26.5t110 73.5t73 111.5t26.5 141.5z
M471 1092l209 300h190l-251 -300h-148z" />
    <glyph glyph-name="Scommaaccent" unicode="&#x218;" horiz-adv-x="1346" 
d="M1116 1135q-85 58 -190 94.5t-232 36.5q-79 0 -145.5 -17.5t-114.5 -50t-75 -79.5t-27 -106q0 -98 79.5 -153t243.5 -74l133 -16q87 -11 166 -35.5t139 -68t96 -108.5t36 -156q0 -104 -44 -182.5t-119.5 -131.5t-176.5 -80t-214 -27q-76 0 -153 13t-148.5 36.5
t-135.5 56.5t-113 74l88 128q36 -31 87 -59t111.5 -49.5t127.5 -34.5t135 -13q81 0 152 16.5t123.5 48.5t82.5 79.5t30 110.5q0 102 -86.5 156t-252.5 73l-141 16q-90 10 -165.5 36.5t-130.5 71.5t-86 110t-31 152q0 100 41.5 177t113.5 130t168.5 80.5t206.5 27.5
q80 0 150.5 -11.5t132.5 -31.5t117 -48t103 -62zM800 -88l-74 -350h-132l42 350h164z" />
    <glyph glyph-name="scommaaccent" unicode="&#x219;" horiz-adv-x="987" 
d="M811 746q-23 16 -56 31.5t-73.5 28.5t-86.5 21t-94 8q-51 0 -92 -10.5t-70.5 -29.5t-45.5 -47t-16 -62q0 -60 49.5 -91t143.5 -42l112 -14q151 -20 234.5 -84t83.5 -180q0 -68 -29.5 -122t-83.5 -92t-131 -58.5t-173 -20.5q-46 0 -96.5 6t-102 20.5t-101.5 37.5t-95 57
l69 112q27 -21 59 -39.5t72 -33t88.5 -22.5t108.5 -8q120 0 190.5 39t70.5 114q0 57 -48.5 91.5t-149.5 46.5l-113 13q-161 20 -237 88t-76 174q0 67 27 120.5t76.5 90.5t119.5 56.5t155 19.5q112 0 209.5 -28.5t166.5 -74.5zM602 -88l-74 -350h-132l42 350h164z" />
    <glyph glyph-name="uni021A" unicode="&#x21a;" horiz-adv-x="1212" 
d="M1172 1248h-486v-1248h-160v1248h-486v152h1132v-152zM709 -88l-74 -350h-132l42 350h164z" />
    <glyph glyph-name="uni021B" unicode="&#x21b;" horiz-adv-x="906" 
d="M818 812h-409v-478q0 -56 14 -96t39 -66t59.5 -38.5t75.5 -12.5q55 0 106 18.5t93 48.5l70 -113q-54 -41 -123.5 -67.5t-157.5 -26.5q-77 0 -137 21t-102 64.5t-64 109.5t-22 155v481h-207v135h207v301h149v-301h409v-135zM646 -88l-74 -350h-132l42 350h164z" />
    <glyph glyph-name="uni0232" unicode="&#x232;" horiz-adv-x="1287" 
d="M725 587v-587h-160v589l-554 811h192l443 -664l443 664h187zM347 1711h598v-121h-598v121z" />
    <glyph glyph-name="uni0233" unicode="&#x233;" horiz-adv-x="1054" 
d="M268 -404h-165l353 609l-435 742h167l353 -594l334 594h164zM233 1296h598v-121h-598v121z" />
    <glyph glyph-name="uni0237" unicode="&#x237;" horiz-adv-x="504" 
d="M329 -156q0 -63 -17 -111.5t-47.5 -81t-74 -49.5t-97.5 -17q-37 0 -73.5 9t-62.5 23l36 129q18 -9 40.5 -14.5t46.5 -5.5q46 0 72.5 29.5t26.5 95.5v1096h150v-1103z" />
    <glyph glyph-name="uni0259" unicode="&#x259;" horiz-adv-x="1121" 
d="M548 -19q-96 0 -177.5 36t-140.5 100.5t-92.5 154.5t-34.5 198q0 30 3 56h759q-8 76 -37 134t-74 97t-102.5 58.5t-121.5 19.5q-90 0 -166.5 -33t-138.5 -90l-75 106q44 42 91 70.5t95.5 46t99.5 24.5t103 7q105 0 193 -35.5t151.5 -100.5t99 -155.5t35.5 -200.5
q0 -109 -35.5 -199.5t-98.5 -156t-149 -101.5t-187 -36zM551 114q66 0 119.5 21.5t93 60t65 92t34.5 117.5h-608q7 -66 31.5 -120t63 -92t90 -58.5t111.5 -20.5z" />
    <glyph glyph-name="uni02BB" unicode="&#x2bb;" horiz-adv-x="494" 
d="M133 933l105 507h129l-60 -507h-174z" />
    <glyph glyph-name="afii57929" unicode="&#x2bc;" horiz-adv-x="494" 
d="M361 1440l-105 -507h-129l60 507h174z" />
    <glyph glyph-name="uni02BE" unicode="&#x2be;" horiz-adv-x="540" 
d="M142 884q42 0 79.5 17t65 46t44 68t16.5 84t-16.5 84.5t-44 69t-65 46t-79.5 16.5v138q72 0 136 -27.5t111.5 -75.5t75 -112.5t27.5 -138.5q0 -73 -27.5 -137.5t-75 -112.5t-111.5 -75.5t-136 -27.5v138z" />
    <glyph glyph-name="uni02BF" unicode="&#x2bf;" horiz-adv-x="540" 
d="M398 1315q-42 0 -79.5 -17t-65 -46t-44 -68t-16.5 -84t16.5 -84.5t44 -69t65 -46t79.5 -16.5v-138q-72 0 -136 27.5t-111.5 75.5t-75 112.5t-27.5 138.5q0 73 27.5 137.5t75 112.5t111.5 75.5t136 27.5v-138z" />
    <glyph glyph-name="circumflex" unicode="&#x2c6;" horiz-adv-x="939" 
d="M644 1093l-175 189l-174 -189h-160l234 288h200l235 -288h-160z" />
    <glyph glyph-name="caron" unicode="&#x2c7;" horiz-adv-x="939" 
d="M295 1379l175 -189l174 189h160l-234 -288h-200l-235 288h160z" />
    <glyph glyph-name="breve" unicode="&#x2d8;" horiz-adv-x="939" 
d="M248 1403q29 -97 85 -144t137 -47t136.5 47t84.5 144l120 -37q-38 -138 -126.5 -209t-214.5 -71t-215 71t-127 209z" />
    <glyph glyph-name="dotaccent" unicode="&#x2d9;" horiz-adv-x="561" 
d="M280 1389q22 0 41.5 -8t33.5 -22.5t22.5 -34t8.5 -41.5q0 -23 -8.5 -42t-22.5 -33t-33.5 -22t-41.5 -8q-45 0 -75 30t-30 75t30 75.5t75 30.5z" />
    <glyph glyph-name="ring" unicode="&#x2da;" horiz-adv-x="939" 
d="M470 1072q-47 0 -88.5 17.5t-72 48.5t-48.5 71.5t-18 87.5q0 46 18 87t48.5 71.5t72 48t88.5 17.5t88.5 -17.5t72.5 -48t49 -71.5t18 -87q0 -47 -18 -87.5t-49 -71.5t-72.5 -48.5t-88.5 -17.5zM470 1167q26 0 49.5 10t41 27.5t27.5 41.5t10 51t-10 50.5t-27.5 41
t-41 27.5t-49.5 10t-49.5 -10t-40.5 -27.5t-27 -41t-10 -50.5t10 -51t27 -41.5t40.5 -27.5t49.5 -10z" />
    <glyph glyph-name="ogonek" unicode="&#x2db;" horiz-adv-x="1088" 
d="M906 -325q-47 -45 -106.5 -67.5t-125.5 -22.5q-58 0 -105 16t-80.5 44.5t-52 69t-18.5 89.5q0 52 21 95t60.5 78.5t95.5 66t125 59.5l66 -84q-117 -48 -172 -94.5t-55 -106.5q0 -46 33.5 -75t90.5 -29q80 0 143 58z" />
    <glyph glyph-name="tilde" unicode="&#x2dc;" horiz-adv-x="939" 
d="M118 1234q45 56 96 83.5t123 27.5q51 0 86.5 -12.5t65 -27t56 -27t58.5 -12.5q38 0 68 16.5t62 50.5l89 -85q-45 -56 -96.5 -83.5t-122.5 -27.5q-50 0 -86 12.5t-65 27.5t-56 27.5t-59 12.5q-38 0 -68.5 -17t-62.5 -51z" />
    <glyph glyph-name="hungarumlaut" unicode="&#x2dd;" horiz-adv-x="939" 
d="M462 1092l209 300h189l-251 -300h-147zM80 1092l209 300h189l-251 -300h-147z" />
    <glyph glyph-name="gravecomb" unicode="&#x300;" 
d="M-883 1392h189l210 -300h-148z" />
    <glyph glyph-name="acutecomb" unicode="&#x301;" 
d="M-732 1092l209 300h190l-251 -300h-148z" />
    <glyph glyph-name="uni0302" unicode="&#x302;" 
d="M-428 1093l-174 189l-175 -189h-160l235 288h200l234 -288h-160z" />
    <glyph glyph-name="tildecomb" unicode="&#x303;" 
d="M-946 1234q45 56 96 83.5t123 27.5q51 0 86.5 -12.5t65 -27t56 -27t58.5 -12.5q38 0 68 16.5t62 50.5l89 -85q-45 -56 -96.5 -83.5t-122.5 -27.5q-50 0 -86 12.5t-65 27.5t-56 27.5t-59 12.5q-38 0 -68.5 -17t-62.5 -51z" />
    <glyph glyph-name="uni0304" unicode="&#x304;" 
d="M-901 1296h598v-121h-598v121z" />
    <glyph glyph-name="uni0306" unicode="&#x306;" 
d="M-823 1403q29 -97 84.5 -144t136.5 -47t137 47t85 144l120 -37q-38 -139 -127 -209.5t-215 -70.5q-125 0 -214 70.5t-127 209.5z" />
    <glyph glyph-name="uni0307" unicode="&#x307;" 
d="M-602 1389q22 0 41.5 -8t33.5 -22.5t22.5 -34t8.5 -41.5q0 -23 -8.5 -42t-22.5 -33t-33.5 -22t-41.5 -8q-45 0 -75 30t-30 75t30 75.5t75 30.5z" />
    <glyph glyph-name="uni0308" unicode="&#x308;" 
d="M-805 1343q22 0 41.5 -8.5t33.5 -22.5t22.5 -34t8.5 -42q0 -23 -8.5 -42t-22.5 -33t-33.5 -22t-41.5 -8q-45 0 -75.5 30t-30.5 75q0 22 8 42t22.5 34t33.5 22.5t42 8.5zM-399 1343q22 0 41.5 -8.5t33.5 -22.5t22.5 -34t8.5 -42q0 -23 -8.5 -42t-22.5 -33t-33.5 -22
t-41.5 -8q-45 0 -75 30t-30 75q0 22 8 42t22 34t33 22.5t42 8.5z" />
    <glyph glyph-name="uni030A" unicode="&#x30a;" 
d="M-603 1072q-47 0 -88 17.5t-72 48.5t-49 71.5t-18 87.5q0 46 18 87t49 71.5t72 48t88 17.5t88.5 -17.5t72.5 -48t49 -71.5t18 -87q0 -47 -18 -87.5t-49 -71.5t-72.5 -48.5t-88.5 -17.5zM-603 1167q26 0 49.5 10t41 27.5t27.5 41.5t10 51t-10 50.5t-27.5 41t-41 27.5
t-49.5 10t-49.5 -10t-40.5 -27.5t-27 -41t-10 -50.5t10 -51t27 -41.5t40.5 -27.5t49.5 -10z" />
    <glyph glyph-name="uni030B" unicode="&#x30b;" 
d="M-519 1092l215 300h175l-240 -300h-150zM-863 1092l200 300h169l-216 -300h-153z" />
    <glyph glyph-name="uni030C" unicode="&#x30c;" 
d="M-777 1379l175 -189l174 189h160l-234 -288h-200l-235 288h160z" />
    <glyph glyph-name="uni0312" unicode="&#x312;" 
d="M-693 1092l74 351h132l-42 -351h-164z" />
    <glyph glyph-name="dotbelowcomb" unicode="&#x323;" 
d="M-601 -158q22 0 41.5 -8t33.5 -22.5t22.5 -34t8.5 -41.5q0 -23 -8.5 -42t-22.5 -33t-33.5 -22t-41.5 -8q-45 0 -75 30t-30 75t30 75.5t75 30.5z" />
    <glyph glyph-name="uni0326" unicode="&#x326;" 
d="M-506 -88l-74 -350h-132l42 350h164z" />
    <glyph glyph-name="uni0327" unicode="&#x327;" 
d="M-574 -323h-156l109 329l150 -1z" />
    <glyph glyph-name="uni0328" unicode="&#x328;" 
d="M-354 -325q-47 -45 -106.5 -67.5t-125.5 -22.5q-59 0 -107 15.5t-82.5 43t-53 65.5t-18.5 82q0 54 23 97t66 78.5t105 65.5t141 59l14 -45q-101 -55 -152 -107.5t-51 -120.5q0 -46 33.5 -75t90.5 -29q80 0 143 58z" />
    <glyph glyph-name="uni032E" unicode="&#x32e;" 
d="M-823 -100q29 -97 85 -144t137 -47t136.5 47t84.5 144l120 -36q-38 -139 -126.5 -210t-214.5 -71t-215 71t-127 210z" />
    <glyph glyph-name="uni0331" unicode="&#x331;" 
d="M-899 -202h598v-122h-598v122z" />
    <glyph glyph-name="uni0335" unicode="&#x335;" 
d="M-242 461h-718v136h718v-136z" />
    <glyph glyph-name="uni0336" unicode="&#x336;" 
d="M148 461h-1497v136h1497v-136z" />
    <glyph glyph-name="Delta" unicode="&#x394;" horiz-adv-x="1412" 
d="M1331 124v-124h-1250v124l526 1278h198zM262 152h888l-444 1087z" />
    <glyph glyph-name="Omega" unicode="&#x3a9;" horiz-adv-x="1720" 
d="M423 152q-65 43 -118 100t-90.5 126t-57.5 148.5t-20 168.5q0 158 54.5 291t151 229.5t229 150.5t288.5 54t288.5 -54t229 -150.5t151 -229.5t54.5 -291q0 -89 -20 -168.5t-57.5 -148.5t-90.5 -126t-119 -100h343v-152h-602v131q84 27 153.5 78t119.5 122.5t77.5 161.5
t27.5 195q0 129 -42.5 235.5t-117 182.5t-176 117.5t-219.5 41.5t-219.5 -41.5t-176 -117.5t-117 -182.5t-42.5 -235.5q0 -105 27.5 -195t77.5 -161.5t119.5 -122.5t153.5 -78v-131h-602v152h342z" />
    <glyph glyph-name="mu" unicode="&#x3bc;" horiz-adv-x="1201" 
d="M164 -400v1347h149v-538q0 -136 71 -211t202 -75q60 0 112.5 20t92 57.5t62.5 91t23 121.5v534h150v-947h-148v135q-29 -42 -66 -71.5t-79 -48t-86.5 -26.5t-87.5 -8q-73 0 -139 24t-108 69v-474h-148z" />
    <glyph glyph-name="pi" unicode="&#x3c0;" horiz-adv-x="1201" 
d="M1037 0h-150v812h-562v-812h-150v947h862v-947z" />
    <glyph glyph-name="uni1E0C" unicode="&#x1e0c;" horiz-adv-x="1598" 
d="M729 1400q171 0 309.5 -49.5t235.5 -140.5t149.5 -220.5t52.5 -289.5t-52.5 -289.5t-149.5 -220.5t-235.5 -140.5t-309.5 -49.5h-527v1400h527zM363 1248v-1096h366q142 0 250 39.5t181 111.5t110 173t37 224q0 124 -37 225t-110 173t-181 111t-250 39h-366zM761 -158
q22 0 41.5 -8t33.5 -22.5t22.5 -34t8.5 -41.5q0 -23 -8.5 -42t-22.5 -33t-33.5 -22t-41.5 -8q-45 0 -75 30t-30 75t30 75.5t75 30.5z" />
    <glyph glyph-name="uni1E0D" unicode="&#x1e0d;" horiz-adv-x="1246" 
d="M576 966q118 0 203.5 -44t142.5 -116v634h149v-1440h-149v141q-57 -73 -142.5 -116.5t-203.5 -43.5q-100 0 -186.5 37t-150 102.5t-100 156t-36.5 197.5q0 106 36.5 196.5t100 156t150 102.5t186.5 37zM594 826q-76 0 -138.5 -27.5t-107 -75.5t-69 -112t-24.5 -137
q0 -74 24.5 -138t69.5 -112t107.5 -75.5t137.5 -27.5q74 0 136 27t106.5 74t69.5 112t25 140t-25 139.5t-69.5 111.5t-106.5 74t-136 27zM617 -158q22 0 41.5 -8t33.5 -22.5t22.5 -34t8.5 -41.5q0 -23 -8.5 -42t-22.5 -33t-33.5 -22t-41.5 -8q-45 0 -75 30t-30 75t30 75.5
t75 30.5z" />
    <glyph glyph-name="uni1E0E" unicode="&#x1e0e;" horiz-adv-x="1598" 
d="M729 1400q171 0 309.5 -49.5t235.5 -140.5t149.5 -220.5t52.5 -289.5t-52.5 -289.5t-149.5 -220.5t-235.5 -140.5t-309.5 -49.5h-527v1400h527zM363 1248v-1096h366q142 0 250 39.5t181 111.5t110 173t37 224q0 124 -37 225t-110 173t-181 111t-250 39h-366zM464 -202
h598v-122h-598v122z" />
    <glyph glyph-name="uni1E0F" unicode="&#x1e0f;" horiz-adv-x="1246" 
d="M576 966q118 0 203.5 -44t142.5 -116v634h149v-1440h-149v141q-57 -73 -142.5 -116.5t-203.5 -43.5q-100 0 -186.5 37t-150 102.5t-100 156t-36.5 197.5q0 106 36.5 196.5t100 156t150 102.5t186.5 37zM594 826q-76 0 -138.5 -27.5t-107 -75.5t-69 -112t-24.5 -137
q0 -74 24.5 -138t69.5 -112t107.5 -75.5t137.5 -27.5q74 0 136 27t106.5 74t69.5 112t25 140t-25 139.5t-69.5 111.5t-106.5 74t-136 27zM319 -202h598v-122h-598v122z" />
    <glyph glyph-name="uni1E24" unicode="&#x1e24;" horiz-adv-x="1573" 
d="M363 781h847v619h161v-1400h-161v629h-847v-629h-161v1400h161v-619zM785 -158q22 0 41.5 -8t33.5 -22.5t22.5 -34t8.5 -41.5q0 -23 -8.5 -42t-22.5 -33t-33.5 -22t-41.5 -8q-45 0 -75 30t-30 75t30 75.5t75 30.5z" />
    <glyph glyph-name="uni1E25" unicode="&#x1e25;" horiz-adv-x="1201" 
d="M325 815q29 41 66 70t78.5 47t85.5 26t87 8q88 0 160.5 -27t124.5 -76.5t81 -119.5t29 -156v-587h-149v538q0 136 -71 211t-202 75q-60 0 -112.5 -20t-92 -57.5t-62.5 -91.5t-23 -121v-534h-150v1440h150v-625zM607 -158q22 0 41.5 -8t33.5 -22.5t22.5 -34t8.5 -41.5
q0 -23 -8.5 -42t-22.5 -33t-33.5 -22t-41.5 -8q-45 0 -75 30t-30 75t30 75.5t75 30.5z" />
    <glyph glyph-name="uni1E28" unicode="&#x1e28;" horiz-adv-x="1573" 
d="M363 781h847v619h161v-1400h-161v629h-847v-629h-161v1400h161v-619zM258 -323h-163l111 329l155 -1z" />
    <glyph glyph-name="uni1E29" unicode="&#x1e29;" horiz-adv-x="1201" 
d="M325 815q29 41 66 70t78.5 47t85.5 26t87 8q88 0 160.5 -27t124.5 -76.5t81 -119.5t29 -156v-587h-149v538q0 136 -71 211t-202 75q-60 0 -112.5 -20t-92 -57.5t-62.5 -91.5t-23 -121v-534h-150v1440h150v-625zM222 -323h-156l109 329l150 -1z" />
    <glyph glyph-name="uni1E2A" unicode="&#x1e2a;" horiz-adv-x="1573" 
d="M363 781h847v619h161v-1400h-161v629h-847v-629h-161v1400h161v-619zM564 -100q29 -97 85 -144t137 -47t136.5 47t84.5 144l120 -36q-38 -139 -126.5 -210t-214.5 -71t-215 71t-127 210z" />
    <glyph glyph-name="uni1E2B" unicode="&#x1e2b;" horiz-adv-x="1201" 
d="M325 815q29 41 66 70t78.5 47t85.5 26t87 8q88 0 160.5 -27t124.5 -76.5t81 -119.5t29 -156v-587h-149v538q0 136 -71 211t-202 75q-60 0 -112.5 -20t-92 -57.5t-62.5 -91.5t-23 -121v-534h-150v1440h150v-625zM385 -100q29 -97 85 -144t137 -47t136.5 47t84.5 144
l120 -36q-38 -139 -126.5 -210t-214.5 -71t-215 71t-127 210z" />
    <glyph glyph-name="uni1E32" unicode="&#x1e32;" horiz-adv-x="1388" 
d="M529 628h-166v-628h-161v1400h161v-620h169l581 620h208l-658 -687l701 -713h-219zM693 -158q22 0 41.5 -8t33.5 -22.5t22.5 -34t8.5 -41.5q0 -23 -8.5 -42t-22.5 -33t-33.5 -22t-41.5 -8q-45 0 -75 30t-30 75t30 75.5t75 30.5z" />
    <glyph glyph-name="uni1E33" unicode="&#x1e33;" horiz-adv-x="1058" 
d="M325 563h137l365 384h187l-430 -446l437 -501h-189l-371 427h-136v-427h-150v1440h150v-877zM559 -158q22 0 41.5 -8t33.5 -22.5t22.5 -34t8.5 -41.5q0 -23 -8.5 -42t-22.5 -33t-33.5 -22t-41.5 -8q-45 0 -75 30t-30 75t30 75.5t75 30.5z" />
    <glyph glyph-name="uni1E36" unicode="&#x1e36;" horiz-adv-x="1213" 
d="M1173 0h-971v1400h161v-1248h810v-152zM677 -158q22 0 41.5 -8t33.5 -22.5t22.5 -34t8.5 -41.5q0 -23 -8.5 -42t-22.5 -33t-33.5 -22t-41.5 -8q-45 0 -75 30t-30 75t30 75.5t75 30.5z" />
    <glyph glyph-name="uni1E37" unicode="&#x1e37;" horiz-adv-x="500" 
d="M325 0h-150v1440h150v-1440zM250 -158q22 0 41.5 -8t33.5 -22.5t22.5 -34t8.5 -41.5q0 -23 -8.5 -42t-22.5 -33t-33.5 -22t-41.5 -8q-45 0 -75 30t-30 75t30 75.5t75 30.5z" />
    <glyph glyph-name="uni1E38" unicode="&#x1e38;" horiz-adv-x="1213" 
d="M1173 0h-971v1400h161v-1248h810v-152zM677 -158q22 0 41.5 -8t33.5 -22.5t22.5 -34t8.5 -41.5q0 -23 -8.5 -42t-22.5 -33t-33.5 -22t-41.5 -8q-45 0 -75 30t-30 75t30 75.5t75 30.5zM-17 1711h598v-121h-598v121z" />
    <glyph glyph-name="uni1E39" unicode="&#x1e39;" horiz-adv-x="500" 
d="M325 0h-150v1440h150v-1440zM-67 1731h598v-121h-598v121zM250 -158q22 0 41.5 -8t33.5 -22.5t22.5 -34t8.5 -41.5q0 -23 -8.5 -42t-22.5 -33t-33.5 -22t-41.5 -8q-45 0 -75 30t-30 75t30 75.5t75 30.5z" />
    <glyph glyph-name="uni1E3A" unicode="&#x1e3a;" horiz-adv-x="1213" 
d="M1173 0h-971v1400h161v-1248h810v-152zM380 -202h598v-122h-598v122z" />
    <glyph glyph-name="uni1E3B" unicode="&#x1e3b;" horiz-adv-x="500" 
d="M325 0h-150v1440h150v-1440zM-48 -202h598v-122h-598v122z" />
    <glyph glyph-name="uni1E40" unicode="&#x1e40;" horiz-adv-x="1870" 
d="M1668 0h-161v1220l-488 -1065h-169l-487 1057v-1212h-161v1400h244l489 -1058l488 1058h245v-1400zM921.02 1764.41q22.7666 0 42.9463 -8.2793q20.1797 -8.27832 34.668 -23.2832q14.4873 -15.0059 23.2842 -35.1855q8.7959 -20.1797 8.7959 -42.9463
q0 -23.8018 -8.7959 -43.4639q-8.79688 -19.6621 -23.2842 -34.1504q-14.4883 -14.4873 -34.668 -22.7666q-20.1797 -8.27832 -42.9463 -8.27832q-46.5684 0 -77.6133 31.0449q-31.0459 31.0459 -31.0459 77.6143t31.0459 78.1318q31.0449 31.5625 77.6133 31.5625z" />
    <glyph glyph-name="uni1E41" unicode="&#x1e41;" horiz-adv-x="1914" 
d="M1354 966q88 0 161 -27t125 -76.5t81 -119.5t29 -156v-587h-149v538q0 136 -71.5 211t-202.5 75q-60 0 -112.5 -20t-92 -57.5t-62.5 -91.5t-23 -121v-534h-149v538q0 136 -71 211t-202 75q-60 0 -112.5 -20t-92 -57.5t-62.5 -91.5t-23 -121v-534h-150v947h148v-135
q29 42 66 71.5t79 48t86 26.5t88 8q125 0 217 -52.5t138 -146.5q28 55 69 93t88 61.5t98.5 34t101.5 10.5zM963 1400q22 0 41.5 -8t33.5 -22.5t22.5 -34t8.5 -41.5q0 -23 -8.5 -42t-22.5 -33t-33.5 -22t-41.5 -8q-45 0 -75 30t-30 75t30 75.5t75 30.5z" />
    <glyph glyph-name="uni1E42" unicode="&#x1e42;" horiz-adv-x="1870" 
d="M1668 0h-161v1220l-488 -1065h-169l-487 1057v-1212h-161v1400h244l489 -1058l488 1058h245v-1400zM934 -158q22 0 41.5 -8t33.5 -22.5t22.5 -34t8.5 -41.5q0 -23 -8.5 -42t-22.5 -33t-33.5 -22t-41.5 -8q-45 0 -75 30t-30 75t30 75.5t75 30.5z" />
    <glyph glyph-name="uni1E43" unicode="&#x1e43;" horiz-adv-x="1914" 
d="M1354 966q88 0 161 -27t125 -76.5t81 -119.5t29 -156v-587h-149v538q0 136 -71.5 211t-202.5 75q-60 0 -112.5 -20t-92 -57.5t-62.5 -91.5t-23 -121v-534h-149v538q0 136 -71 211t-202 75q-60 0 -112.5 -20t-92 -57.5t-62.5 -91.5t-23 -121v-534h-150v947h148v-135
q29 42 66 71.5t79 48t86 26.5t88 8q125 0 217 -52.5t138 -146.5q28 55 69 93t88 61.5t98.5 34t101.5 10.5zM963 -158q22 0 41.5 -8t33.5 -22.5t22.5 -34t8.5 -41.5q0 -23 -8.5 -42t-22.5 -33t-33.5 -22t-41.5 -8q-45 0 -75 30t-30 75t30 75.5t75 30.5z" />
    <glyph glyph-name="uni1E44" unicode="&#x1e44;" horiz-adv-x="1577" 
d="M1375 0h-145l-867 1124v-1124h-161v1400h145l867 -1124v1124h161v-1400zM774.02 1764.41q22.7666 0 42.9463 -8.2793q20.1797 -8.27832 34.668 -23.2832q14.4873 -15.0059 23.2842 -35.1855q8.7959 -20.1797 8.7959 -42.9463q0 -23.8018 -8.7959 -43.4639
q-8.79688 -19.6621 -23.2842 -34.1504q-14.4883 -14.4873 -34.668 -22.7666q-20.1797 -8.27832 -42.9463 -8.27832q-46.5684 0 -77.6133 31.0449q-31.0459 31.0459 -31.0459 77.6143t31.0459 78.1318q31.0449 31.5625 77.6133 31.5625z" />
    <glyph glyph-name="uni1E45" unicode="&#x1e45;" horiz-adv-x="1201" 
d="M642 966q88 0 160.5 -27t124.5 -76.5t81 -119.5t29 -156v-587h-149v538q0 136 -71 211t-202 75q-60 0 -112.5 -20t-92 -57.5t-62.5 -91.5t-23 -121v-534h-150v947h148v-135q29 42 66 71.5t79 48t86 26.5t88 8zM617 1389q22 0 41.5 -8t33.5 -22.5t22.5 -34t8.5 -41.5
q0 -23 -8.5 -42t-22.5 -33t-33.5 -22t-41.5 -8q-45 0 -75 30t-30 75t30 75.5t75 30.5z" />
    <glyph glyph-name="uni1E46" unicode="&#x1e46;" horiz-adv-x="1577" 
d="M1375 0h-145l-867 1124v-1124h-161v1400h145l867 -1124v1124h161v-1400zM782 -158q22 0 41.5 -8t33.5 -22.5t22.5 -34t8.5 -41.5q0 -23 -8.5 -42t-22.5 -33t-33.5 -22t-41.5 -8q-45 0 -75 30t-30 75t30 75.5t75 30.5z" />
    <glyph glyph-name="uni1E47" unicode="&#x1e47;" horiz-adv-x="1201" 
d="M642 966q88 0 160.5 -27t124.5 -76.5t81 -119.5t29 -156v-587h-149v538q0 136 -71 211t-202 75q-60 0 -112.5 -20t-92 -57.5t-62.5 -91.5t-23 -121v-534h-150v947h148v-135q29 42 66 71.5t79 48t86 26.5t88 8zM605 -158q22 0 41.5 -8t33.5 -22.5t22.5 -34t8.5 -41.5
q0 -23 -8.5 -42t-22.5 -33t-33.5 -22t-41.5 -8q-45 0 -75 30t-30 75t30 75.5t75 30.5z" />
    <glyph glyph-name="uni1E48" unicode="&#x1e48;" horiz-adv-x="1577" 
d="M1375 0h-145l-867 1124v-1124h-161v1400h145l867 -1124v1124h161v-1400zM485 -202h598v-122h-598v122z" />
    <glyph glyph-name="uni1E49" unicode="&#x1e49;" horiz-adv-x="1201" 
d="M642 966q88 0 160.5 -27t124.5 -76.5t81 -119.5t29 -156v-587h-149v538q0 136 -71 211t-202 75q-60 0 -112.5 -20t-92 -57.5t-62.5 -91.5t-23 -121v-534h-150v947h148v-135q29 42 66 71.5t79 48t86 26.5t88 8zM307 -202h598v-122h-598v122z" />
    <glyph glyph-name="uni1E58" unicode="&#x1e58;" horiz-adv-x="1353" 
d="M751 1400q118 0 209 -26t153.5 -76.5t94.5 -124t32 -168.5q0 -91 -34 -164t-97.5 -124.5t-153.5 -79.5t-202 -28h-23l503 -609h-200l-493 609h-177v-609h-161v1400h549zM363 1249v-494h386q161 0 242.5 63.5t81.5 186.5q0 122 -83 183t-241 61h-386zM649.02 1764.41
q22.7666 0 42.9463 -8.2793q20.1797 -8.27832 34.668 -23.2832q14.4873 -15.0059 23.2842 -35.1855q8.7959 -20.1797 8.7959 -42.9463q0 -23.8018 -8.7959 -43.4639q-8.79688 -19.6621 -23.2842 -34.1504q-14.4883 -14.4873 -34.668 -22.7666
q-20.1797 -8.27832 -42.9463 -8.27832q-46.5684 0 -77.6133 31.0449q-31.0459 31.0459 -31.0459 77.6143t31.0459 78.1318q31.0449 31.5625 77.6133 31.5625z" />
    <glyph glyph-name="uni1E59" unicode="&#x1e59;" horiz-adv-x="830" 
d="M604 966q51 0 93.5 -7.5t80.5 -24.5l-36 -147q-35 19 -78.5 28.5t-85.5 9.5q-56 0 -102.5 -21t-80 -59.5t-52.5 -93t-19 -121.5v-530h-149v947h148v-133q49 73 121 112.5t160 39.5zM475 1389q22 0 41.5 -8t33.5 -22.5t22.5 -34t8.5 -41.5q0 -23 -8.5 -42t-22.5 -33
t-33.5 -22t-41.5 -8q-45 0 -75 30t-30 75t30 75.5t75 30.5z" />
    <glyph glyph-name="uni1E5A" unicode="&#x1e5a;" horiz-adv-x="1353" 
d="M751 1400q118 0 209 -26t153.5 -76.5t94.5 -124t32 -168.5q0 -91 -34 -164t-97.5 -124.5t-153.5 -79.5t-202 -28h-23l503 -609h-200l-493 609h-177v-609h-161v1400h549zM363 1249v-494h386q161 0 242.5 63.5t81.5 186.5q0 122 -83 183t-241 61h-386zM665 -158
q22 0 41.5 -8t33.5 -22.5t22.5 -34t8.5 -41.5q0 -23 -8.5 -42t-22.5 -33t-33.5 -22t-41.5 -8q-45 0 -75 30t-30 75t30 75.5t75 30.5z" />
    <glyph glyph-name="uni1E5B" unicode="&#x1e5b;" horiz-adv-x="830" 
d="M604 966q51 0 93.5 -7.5t80.5 -24.5l-36 -147q-35 19 -78.5 28.5t-85.5 9.5q-56 0 -102.5 -21t-80 -59.5t-52.5 -93t-19 -121.5v-530h-149v947h148v-133q49 73 121 112.5t160 39.5zM251 -158q22 0 41.5 -8t33.5 -22.5t22.5 -34t8.5 -41.5q0 -23 -8.5 -42t-22.5 -33
t-33.5 -22t-41.5 -8q-45 0 -75 30t-30 75t30 75.5t75 30.5z" />
    <glyph glyph-name="uni1E5C" unicode="&#x1e5c;" horiz-adv-x="1353" 
d="M751 1400q118 0 209 -26t153.5 -76.5t94.5 -124t32 -168.5q0 -91 -34 -164t-97.5 -124.5t-153.5 -79.5t-202 -28h-23l503 -609h-200l-493 609h-177v-609h-161v1400h549zM363 1249v-494h386q161 0 242.5 63.5t81.5 186.5q0 122 -83 183t-241 61h-386zM665 -158
q22 0 41.5 -8t33.5 -22.5t22.5 -34t8.5 -41.5q0 -23 -8.5 -42t-22.5 -33t-33.5 -22t-41.5 -8q-45 0 -75 30t-30 75t30 75.5t75 30.5zM364 1711h598v-121h-598v121z" />
    <glyph glyph-name="uni1E5D" unicode="&#x1e5d;" horiz-adv-x="830" 
d="M604 966q51 0 93.5 -7.5t80.5 -24.5l-36 -147q-35 19 -78.5 28.5t-85.5 9.5q-56 0 -102.5 -21t-80 -59.5t-52.5 -93t-19 -121.5v-530h-149v947h148v-133q49 73 121 112.5t160 39.5zM176 1296h598v-121h-598v121zM251 -158q22 0 41.5 -8t33.5 -22.5t22.5 -34t8.5 -41.5
q0 -23 -8.5 -42t-22.5 -33t-33.5 -22t-41.5 -8q-45 0 -75 30t-30 75t30 75.5t75 30.5z" />
    <glyph glyph-name="uni1E5E" unicode="&#x1e5e;" horiz-adv-x="1353" 
d="M751 1400q118 0 209 -26t153.5 -76.5t94.5 -124t32 -168.5q0 -91 -34 -164t-97.5 -124.5t-153.5 -79.5t-202 -28h-23l503 -609h-200l-493 609h-177v-609h-161v1400h549zM363 1249v-494h386q161 0 242.5 63.5t81.5 186.5q0 122 -83 183t-241 61h-386zM368 -202h598v-122
h-598v122z" />
    <glyph glyph-name="uni1E5F" unicode="&#x1e5f;" horiz-adv-x="830" 
d="M604 966q51 0 93.5 -7.5t80.5 -24.5l-36 -147q-35 19 -78.5 28.5t-85.5 9.5q-56 0 -102.5 -21t-80 -59.5t-52.5 -93t-19 -121.5v-530h-149v947h148v-133q49 73 121 112.5t160 39.5zM-47 -202h598v-122h-598v122z" />
    <glyph glyph-name="uni1E62" unicode="&#x1e62;" horiz-adv-x="1346" 
d="M1116 1135q-85 58 -190 94.5t-232 36.5q-79 0 -145.5 -17.5t-114.5 -50t-75 -79.5t-27 -106q0 -98 79.5 -153t243.5 -74l133 -16q87 -11 166 -35.5t139 -68t96 -108.5t36 -156q0 -104 -44 -182.5t-119.5 -131.5t-176.5 -80t-214 -27q-76 0 -153 13t-148.5 36.5
t-135.5 56.5t-113 74l88 128q36 -31 87 -59t111.5 -49.5t127.5 -34.5t135 -13q81 0 152 16.5t123.5 48.5t82.5 79.5t30 110.5q0 102 -86.5 156t-252.5 73l-141 16q-90 10 -165.5 36.5t-130.5 71.5t-86 110t-31 152q0 100 41.5 177t113.5 130t168.5 80.5t206.5 27.5
q80 0 150.5 -11.5t132.5 -31.5t117 -48t103 -62zM696 -158q22 0 41.5 -8t33.5 -22.5t22.5 -34t8.5 -41.5q0 -23 -8.5 -42t-22.5 -33t-33.5 -22t-41.5 -8q-45 0 -75 30t-30 75t30 75.5t75 30.5z" />
    <glyph glyph-name="uni1E63" unicode="&#x1e63;" horiz-adv-x="987" 
d="M811 746q-23 16 -56 31.5t-73.5 28.5t-86.5 21t-94 8q-51 0 -92 -10.5t-70.5 -29.5t-45.5 -47t-16 -62q0 -60 49.5 -91t143.5 -42l112 -14q151 -20 234.5 -84t83.5 -180q0 -68 -29.5 -122t-83.5 -92t-131 -58.5t-173 -20.5q-46 0 -96.5 6t-102 20.5t-101.5 37.5t-95 57
l69 112q27 -21 59 -39.5t72 -33t88.5 -22.5t108.5 -8q120 0 190.5 39t70.5 114q0 57 -48.5 91.5t-149.5 46.5l-113 13q-161 20 -237 88t-76 174q0 67 27 120.5t76.5 90.5t119.5 56.5t155 19.5q112 0 209.5 -28.5t166.5 -74.5zM507 -158q22 0 41.5 -8t33.5 -22.5t22.5 -34
t8.5 -41.5q0 -23 -8.5 -42t-22.5 -33t-33.5 -22t-41.5 -8q-45 0 -75 30t-30 75t30 75.5t75 30.5z" />
    <glyph glyph-name="uni1E6C" unicode="&#x1e6c;" horiz-adv-x="1212" 
d="M1172 1248h-486v-1248h-160v1248h-486v152h1132v-152zM605 -158q22 0 41.5 -8t33.5 -22.5t22.5 -34t8.5 -41.5q0 -23 -8.5 -42t-22.5 -33t-33.5 -22t-41.5 -8q-45 0 -75 30t-30 75t30 75.5t75 30.5z" />
    <glyph glyph-name="uni1E6D" unicode="&#x1e6d;" horiz-adv-x="906" 
d="M818 812h-409v-478q0 -56 14 -96t39 -66t59.5 -38.5t75.5 -12.5q55 0 106 18.5t93 48.5l70 -113q-54 -41 -123.5 -67.5t-157.5 -26.5q-77 0 -137 21t-102 64.5t-64 109.5t-22 155v481h-207v135h207v301h149v-301h409v-135zM551 -158q22 0 41.5 -8t33.5 -22.5t22.5 -34
t8.5 -41.5q0 -23 -8.5 -42t-22.5 -33t-33.5 -22t-41.5 -8q-45 0 -75 30t-30 75t30 75.5t75 30.5z" />
    <glyph glyph-name="uni1E6E" unicode="&#x1e6e;" horiz-adv-x="1212" 
d="M1172 1248h-486v-1248h-160v1248h-486v152h1132v-152zM308 -202h598v-122h-598v122z" />
    <glyph glyph-name="uni1E6F" unicode="&#x1e6f;" horiz-adv-x="906" 
d="M818 812h-409v-478q0 -56 14 -96t39 -66t59.5 -38.5t75.5 -12.5q55 0 106 18.5t93 48.5l70 -113q-54 -41 -123.5 -67.5t-157.5 -26.5q-77 0 -137 21t-102 64.5t-64 109.5t-22 155v481h-207v135h207v301h149v-301h409v-135zM253 -202h598v-122h-598v122z" />
    <glyph glyph-name="Wgrave" unicode="&#x1e80;" horiz-adv-x="2197" 
d="M1684 0h-198l-388 1186l-388 -1186h-197l-455 1400h168l387 -1218l396 1218h182l395 -1219l388 1219h165zM830 1807h189l210 -300h-148z" />
    <glyph glyph-name="wgrave" unicode="&#x1e81;" horiz-adv-x="1706" 
d="M1221 155l285 792h155l-350 -947h-177l-283 787l-282 -787h-174l-350 947h159l283 -791l282 791h168zM572 1392h189l210 -300h-148z" />
    <glyph glyph-name="Wacute" unicode="&#x1e82;" horiz-adv-x="2197" 
d="M1684 0h-198l-388 1186l-388 -1186h-197l-455 1400h168l387 -1218l396 1218h182l395 -1219l388 1219h165zM957 1507l209 300h190l-251 -300h-148z" />
    <glyph glyph-name="wacute" unicode="&#x1e83;" horiz-adv-x="1706" 
d="M1221 155l285 792h155l-350 -947h-177l-283 787l-282 -787h-174l-350 947h159l283 -791l282 791h168zM723 1092l209 300h190l-251 -300h-148z" />
    <glyph glyph-name="Wdieresis" unicode="&#x1e84;" horiz-adv-x="2197" 
d="M1684 0h-198l-388 1186l-388 -1186h-197l-455 1400h168l387 -1218l396 1218h182l395 -1219l388 1219h165zM895 1758q22 0 41.5 -8.5t33.5 -22.5t22.5 -34t8.5 -42q0 -23 -8.5 -42t-22.5 -33t-33.5 -22t-41.5 -8q-45 0 -75.5 30t-30.5 75q0 22 8 42t22.5 34t33.5 22.5
t42 8.5zM1301 1758q22 0 41.5 -8.5t33.5 -22.5t22.5 -34t8.5 -42q0 -23 -8.5 -42t-22.5 -33t-33.5 -22t-41.5 -8q-45 0 -75 30t-30 75q0 22 8 42t22 34t33 22.5t42 8.5z" />
    <glyph glyph-name="wdieresis" unicode="&#x1e85;" horiz-adv-x="1706" 
d="M1221 155l285 792h155l-350 -947h-177l-283 787l-282 -787h-174l-350 947h159l283 -791l282 791h168zM650 1343q22 0 41.5 -8.5t33.5 -22.5t22.5 -34t8.5 -42q0 -23 -8.5 -42t-22.5 -33t-33.5 -22t-41.5 -8q-45 0 -75.5 30t-30.5 75q0 22 8 42t22.5 34t33.5 22.5t42 8.5z
M1056 1343q22 0 41.5 -8.5t33.5 -22.5t22.5 -34t8.5 -42q0 -23 -8.5 -42t-22.5 -33t-33.5 -22t-41.5 -8q-45 0 -75 30t-30 75q0 22 8 42t22 34t33 22.5t42 8.5z" />
    <glyph glyph-name="uni1E88" unicode="&#x1e88;" horiz-adv-x="2197" 
d="M1684 0h-198l-388 1186l-388 -1186h-197l-455 1400h168l387 -1218l396 1218h182l395 -1219l388 1219h165zM1098 -158q22 0 41.5 -8t33.5 -22.5t22.5 -34t8.5 -41.5q0 -23 -8.5 -42t-22.5 -33t-33.5 -22t-41.5 -8q-45 0 -75 30t-30 75t30 75.5t75 30.5z" />
    <glyph glyph-name="uni1E89" unicode="&#x1e89;" horiz-adv-x="1706" 
d="M1221 155l285 792h155l-350 -947h-177l-283 787l-282 -787h-174l-350 947h159l283 -791l282 791h168zM852 -158q22 0 41.5 -8t33.5 -22.5t22.5 -34t8.5 -41.5q0 -23 -8.5 -42t-22.5 -33t-33.5 -22t-41.5 -8q-45 0 -75 30t-30 75t30 75.5t75 30.5z" />
    <glyph glyph-name="uni1E92" unicode="&#x1e92;" horiz-adv-x="1314" 
d="M1190 1276l-855 -1124h858v-152h-1072v124l856 1124h-846v152h1059v-124zM656 -158q22 0 41.5 -8t33.5 -22.5t22.5 -34t8.5 -41.5q0 -23 -8.5 -42t-22.5 -33t-33.5 -22t-41.5 -8q-45 0 -75 30t-30 75t30 75.5t75 30.5z" />
    <glyph glyph-name="uni1E93" unicode="&#x1e93;" horiz-adv-x="1055" 
d="M924 838l-604 -703h613v-135h-811v108l610 704h-592v135h784v-109zM528 -158q22 0 41.5 -8t33.5 -22.5t22.5 -34t8.5 -41.5q0 -23 -8.5 -42t-22.5 -33t-33.5 -22t-41.5 -8q-45 0 -75 30t-30 75t30 75.5t75 30.5z" />
    <glyph glyph-name="uni1E94" unicode="&#x1e94;" horiz-adv-x="1314" 
d="M1190 1276l-855 -1124h858v-152h-1072v124l856 1124h-846v152h1059v-124zM359 -202h598v-122h-598v122z" />
    <glyph glyph-name="uni1E95" unicode="&#x1e95;" horiz-adv-x="1055" 
d="M924 838l-604 -703h613v-135h-811v108l610 704h-592v135h784v-109zM230 -202h598v-122h-598v122z" />
    <glyph glyph-name="uni1E96" unicode="&#x1e96;" horiz-adv-x="1201" 
d="M325 815q29 41 66 70t78.5 47t85.5 26t87 8q88 0 160.5 -27t124.5 -76.5t81 -119.5t29 -156v-587h-149v538q0 136 -71 211t-202 75q-60 0 -112.5 -20t-92 -57.5t-62.5 -91.5t-23 -121v-534h-150v1440h150v-625zM309 -202h598v-122h-598v122z" />
    <glyph glyph-name="uni1E9E" unicode="&#x1e9e;" horiz-adv-x="1464" 
d="M705 750l363 400q-50 52 -129.5 83.5t-201.5 31.5q-91 0 -164 -24.5t-124 -70t-78.5 -110.5t-27.5 -145v-915h-161v924q0 104 35.5 194.5t105.5 157t174.5 105t242.5 38.5q103 0 185.5 -17.5t148.5 -49.5t118.5 -77.5t95.5 -101.5l-373 -405q91 -11 169 -42t135.5 -80.5
t90 -116.5t32.5 -150q0 -92 -40.5 -165.5t-110 -125t-162 -79t-196.5 -27.5q-101 0 -169.5 11.5t-125.5 30.5l39 152q47 -17 103.5 -28.5t128.5 -11.5q83 0 150 16.5t114.5 47.5t73 76t25.5 103q0 59 -26 105.5t-75 79t-118.5 49.5t-156.5 17h-91v120z" />
    <glyph glyph-name="Ygrave" unicode="&#x1ef2;" horiz-adv-x="1287" 
d="M725 587v-587h-160v589l-554 811h192l443 -664l443 664h187zM378 1807h189l210 -300h-148z" />
    <glyph glyph-name="ygrave" unicode="&#x1ef3;" horiz-adv-x="1054" 
d="M268 -404h-165l353 609l-435 742h167l353 -594l334 594h164zM251 1392h189l210 -300h-148z" />
    <glyph glyph-name="uni1EF4" unicode="&#x1ef4;" horiz-adv-x="1287" 
d="M725 587v-587h-160v589l-554 811h192l443 -664l443 664h187zM644 -158q22 0 41.5 -8t33.5 -22.5t22.5 -34t8.5 -41.5q0 -23 -8.5 -42t-22.5 -33t-33.5 -22t-41.5 -8q-45 0 -75 30t-30 75t30 75.5t75 30.5z" />
    <glyph glyph-name="uni1EF5" unicode="&#x1ef5;" horiz-adv-x="1054" 
d="M268 -404h-165l353 609l-435 742h167l353 -594l334 594h164zM762 -158q22 0 41.5 -8t33.5 -22.5t22.5 -34t8.5 -41.5q0 -23 -8.5 -42t-22.5 -33t-33.5 -22t-41.5 -8q-45 0 -75 30t-30 75t30 75.5t75 30.5z" />
    <glyph glyph-name="uni2007" unicode="&#x2007;" horiz-adv-x="1419" 
 />
    <glyph glyph-name="uni2008" unicode="&#x2008;" horiz-adv-x="523" 
 />
    <glyph glyph-name="uni2009" unicode="&#x2009;" horiz-adv-x="178" 
 />
    <glyph glyph-name="uni200B" unicode="&#x200b;" horiz-adv-x="0" 
 />
    <glyph glyph-name="uni2010" unicode="&#x2010;" horiz-adv-x="838" 
d="M697 461h-556v136h556v-136z" />
    <glyph glyph-name="uni2011" unicode="&#x2011;" horiz-adv-x="838" 
d="M697 461h-556v136h556v-136z" />
    <glyph glyph-name="figuredash" unicode="&#x2012;" horiz-adv-x="1200" 
d="M1075 461h-950v136h950v-136z" />
    <glyph glyph-name="endash" unicode="&#x2013;" horiz-adv-x="1192" 
d="M1071 461h-950v136h950v-136z" />
    <glyph glyph-name="emdash" unicode="&#x2014;" horiz-adv-x="1622" 
d="M1561 461h-1500v136h1500v-136z" />
    <glyph glyph-name="quoteleft" unicode="&#x2018;" horiz-adv-x="494" 
d="M133 933l105 507h129l-60 -507h-174z" />
    <glyph glyph-name="quoteright" unicode="&#x2019;" horiz-adv-x="494" 
d="M361 1440l-105 -507h-129l60 507h174z" />
    <glyph glyph-name="quotesinglbase" unicode="&#x201a;" horiz-adv-x="494" 
d="M361 248l-105 -507h-129l60 507h174z" />
    <glyph glyph-name="quotedblleft" unicode="&#x201c;" horiz-adv-x="849" 
d="M133 933l105 507h129l-60 -507h-174zM488 933l105 507h129l-60 -507h-174z" />
    <glyph glyph-name="quotedblright" unicode="&#x201d;" horiz-adv-x="848" 
d="M715 1440l-105 -507h-129l60 507h174zM361 1440l-105 -507h-129l60 507h174z" />
    <glyph glyph-name="quotedblbase" unicode="&#x201e;" horiz-adv-x="848" 
d="M715 248l-105 -507h-129l60 507h174zM361 248l-105 -507h-129l60 507h174z" />
    <glyph glyph-name="dagger" unicode="&#x2020;" horiz-adv-x="741" 
d="M309 673v439h-208v120h208v208h123v-208h208v-120h-208v-439h-123z" />
    <glyph glyph-name="daggerdbl" unicode="&#x2021;" horiz-adv-x="741" 
d="M432 1260h208v-120h-208v-166h208v-121h-208v-180h-123v180h-208v121h208v166h-208v120h208v180h123v-180z" />
    <glyph glyph-name="bullet" unicode="&#x2022;" horiz-adv-x="864" 
d="M433 756q46 0 87.5 -18t72.5 -48.5t49 -72t18 -88.5t-18 -88.5t-49 -72t-72.5 -48.5t-87.5 -18q-48 0 -89 18t-72 48.5t-48.5 72t-17.5 88.5t17.5 88.5t48.5 72t72 48.5t89 18z" />
    <glyph glyph-name="uni2023" unicode="&#x2023;" horiz-adv-x="1015" 
d="M259 181v698l603 -349z" />
    <glyph glyph-name="ellipsis" unicode="&#x2026;" horiz-adv-x="1490" 
d="M263 233q25 0 47.5 -10t39.5 -27.5t27 -40t10 -47.5t-10 -48t-27 -40t-39.5 -27.5t-47.5 -10.5t-48 10.5t-40 27.5t-27.5 40t-10.5 48t10.5 47.5t27.5 40t40 27.5t48 10zM746 233q25 0 47.5 -10t40 -27.5t27.5 -40t10 -47.5t-10 -48t-27.5 -40t-40 -27.5t-47.5 -10.5
t-47.5 10.5t-40 27.5t-27.5 40t-10 48t10 47.5t27.5 40t40 27.5t47.5 10zM1229 233q25 0 47.5 -10t40 -27.5t27.5 -40t10 -47.5t-10 -48t-27.5 -40t-40 -27.5t-47.5 -10.5t-47.5 10.5t-40 27.5t-27.5 40t-10 48t10 47.5t27.5 40t40 27.5t47.5 10z" />
    <glyph glyph-name="perthousand" unicode="&#x2030;" horiz-adv-x="2777" 
d="M463 1419q79 0 147 -27.5t117.5 -76t77.5 -115t28 -143.5q0 -78 -28 -144.5t-77.5 -115.5t-117.5 -76.5t-147 -27.5q-78 0 -145 27.5t-116 76.5t-77 115.5t-28 144.5q0 77 28 143.5t77 115t116 76t145 27.5zM463 1287q-48 0 -89.5 -17t-71.5 -47.5t-47.5 -73t-17.5 -92.5
q0 -51 17.5 -93.5t47.5 -73.5t71.5 -48t89.5 -17q49 0 91 17t73 48t48 73.5t17 93.5q0 50 -17 92.5t-48 73t-73 47.5t-91 17zM605 0h-156l883 1400h156zM1471 707q79 0 147 -28t117.5 -77t77.5 -115.5t28 -142.5q0 -78 -28 -144.5t-77.5 -115t-117.5 -76t-147 -27.5
q-78 0 -145 27.5t-116 76t-77 115t-28 144.5q0 77 28 143.5t77 115t116 76.5t145 28zM1471 575q-48 0 -89.5 -17t-71.5 -48t-47.5 -73t-17.5 -93t17.5 -93t47.5 -73t71.5 -48t89.5 -17q49 0 91.5 17t73 48t48 73t17.5 93t-17.5 93t-48 73t-73 48t-91.5 17zM2310 707
q79 0 147 -28t117.5 -76.5t77.5 -115t28 -143.5q0 -78 -28 -144.5t-77.5 -115t-117.5 -76t-147 -27.5q-78 0 -145 27.5t-116 76t-77 115t-28 144.5q0 77 28 143.5t77 115t116 76.5t145 28zM2310 575q-48 0 -89.5 -17t-72 -48t-47.5 -73t-17 -93t17 -93t47.5 -73t72 -48
t89.5 -17q49 0 91 17t73 48t48 73t17 93t-17 93t-48 73t-73 48t-91 17z" />
    <glyph glyph-name="minute" unicode="&#x2032;" horiz-adv-x="537" 
d="M404 1400l-134 -632h-143l135 632h142z" />
    <glyph glyph-name="second" unicode="&#x2033;" horiz-adv-x="850" 
d="M717 1400l-134 -632h-143l135 632h142zM404 1400l-134 -632h-143l135 632h142z" />
    <glyph glyph-name="uni2034" unicode="&#x2034;" horiz-adv-x="1116" 
d="M694 1400l-134 -632h-143l135 632h142zM983 1400l-134 -632h-143l135 632h142zM404 1400l-134 -632h-143l135 632h142z" />
    <glyph glyph-name="guilsinglleft" unicode="&#x2039;" horiz-adv-x="625" 
d="M478 159h-160l-192 370l192 370h160l-191 -370z" />
    <glyph glyph-name="guilsinglright" unicode="&#x203a;" horiz-adv-x="625" 
d="M147 899h160l192 -370l-192 -370h-160l191 370z" />
    <glyph glyph-name="fraction" unicode="&#x2044;" horiz-adv-x="436" 
d="M-149 0h-149l883 1400h149z" />
    <glyph glyph-name="uni2070" unicode="&#x2070;" horiz-adv-x="871" 
d="M435 1410q70 0 131 -27.5t106.5 -79t72 -126.5t26.5 -169t-26.5 -168.5t-72 -126.5t-106.5 -79.5t-131 -27.5q-69 0 -130 27.5t-106.5 79.5t-72 126.5t-26.5 168.5t26.5 169t72 126.5t106.5 79t130 27.5zM435 1292q-43 0 -81 -18.5t-66 -54.5t-44 -89t-16 -122t16 -122
t44 -89t66 -54.5t81 -18.5t81 18.5t66.5 54.5t44.5 89t16 122t-16 122t-44.5 89t-66.5 54.5t-81 18.5z" />
    <glyph glyph-name="uni2071" unicode="&#x2071;" horiz-adv-x="374" 
d="M248 617h-123v662h123v-662zM186 1584q35 0 59 -23.5t24 -58.5t-24 -58.5t-59 -23.5t-58 23.5t-23 58.5t23 58.5t58 23.5z" />
    <glyph glyph-name="uni2074" unicode="&#x2074;" horiz-adv-x="690" 
d="M529 882h121v-113h-121v-152h-124v152h-365v89l276 541h137l-267 -517h219v217h124v-217z" />
    <glyph glyph-name="uni2075" unicode="&#x2075;" horiz-adv-x="712" 
d="M582 1285h-336l-6 -189h94q71 0 125 -17.5t90.5 -48.5t55 -73.5t18.5 -92.5q0 -60 -21.5 -108t-59.5 -81t-90 -51t-113 -18q-87 0 -156.5 29.5t-117.5 83.5l73 82q36 -36 89 -58.5t111 -22.5q75 0 116 37.5t41 97.5q0 28 -10 51.5t-32.5 41t-58 27.5t-85.5 10h-182
l12 414h443v-114z" />
    <glyph glyph-name="uni2076" unicode="&#x2076;" horiz-adv-x="709" 
d="M305 1116q30 8 65 8q61 0 112 -20t87 -54.5t56 -81t20 -100.5q0 -57 -22 -105t-61.5 -83t-93 -54.5t-116.5 -19.5t-116.5 19.5t-92.5 54t-61 82t-22 103.5q0 49 16.5 95t47.5 93l226 346h149zM352 1019q-35 0 -65 -11.5t-52 -31.5t-34.5 -48t-12.5 -61t12.5 -61t34.5 -48
t52 -31.5t65 -11.5q36 0 66 11.5t51.5 31.5t34 48t12.5 61t-12.5 61t-34 48t-51.5 31.5t-66 11.5z" />
    <glyph glyph-name="uni2077" unicode="&#x2077;" horiz-adv-x="663" 
d="M613 1303l-340 -686h-146l340 667h-407v115h553v-96z" />
    <glyph glyph-name="uni2078" unicode="&#x2078;" horiz-adv-x="776" 
d="M388 1410q58 0 110 -14.5t90 -42t60.5 -68t22.5 -91.5q0 -35 -10.5 -63.5t-28.5 -51t-42.5 -39t-52.5 -27.5q32 -11 60 -27.5t49 -39.5t33 -53t12 -67q0 -53 -24 -93.5t-65.5 -69t-96.5 -43t-117 -14.5q-63 0 -118 14.5t-96 43t-65 69t-24 93.5q0 37 12 67t32.5 52.5
t48.5 39t60 27.5q-57 22 -95.5 66.5t-38.5 115.5q0 51 22.5 91.5t61 68t90 42t110.5 14.5zM388 963q-35 0 -66 -8t-54 -24t-36.5 -39t-13.5 -53q0 -32 13.5 -55.5t36.5 -39.5t54 -24t66 -8q34 0 65 8t54 24t36.5 39.5t13.5 55.5q0 30 -13.5 53t-36.5 39t-54 24t-65 8z
M388 1302q-32 0 -59.5 -7.5t-48.5 -22.5t-33 -37.5t-12 -52.5q0 -29 12 -51.5t33 -37.5t48.5 -22.5t59.5 -7.5q31 0 58.5 7.5t48.5 22.5t33 37.5t12 51.5q0 30 -12 52.5t-33 37.5t-48.5 22.5t-58.5 7.5z" />
    <glyph glyph-name="uni2079" unicode="&#x2079;" horiz-adv-x="709" 
d="M404 900q-30 -8 -64 -8q-62 0 -112.5 20t-86.5 54.5t-56 81t-20 100.5q0 57 22 105t61 83t92.5 54.5t116.5 19.5t116.5 -19.5t92.5 -54t61.5 -82t22.5 -103.5q0 -48 -17 -93.5t-48 -93.5l-226 -347h-148zM357 997q36 0 65.5 11.5t51.5 31.5t34 48t12 61t-12.5 61t-34 48
t-51.5 31.5t-65 11.5t-65 -11t-52 -31.5t-34.5 -48.5t-12.5 -61t12.5 -61t34.5 -48t52 -31.5t65 -11.5z" />
    <glyph glyph-name="uni207F" unicode="&#x207f;" horiz-adv-x="850" 
d="M465 1292q59 0 108 -18.5t84.5 -53t55 -83t19.5 -108.5v-412h-123v373q0 88 -45.5 137t-130.5 49q-38 0 -72 -13t-59 -37t-39.5 -59t-14.5 -79v-371h-123v662h120v-108q36 65 95 93t125 28z" />
    <glyph glyph-name="uni2080" unicode="&#x2080;" horiz-adv-x="871" 
d="M435 423q70 0 131 -27.5t106.5 -79t72 -126.5t26.5 -169t-26.5 -168.5t-72 -126.5t-106.5 -79.5t-131 -27.5q-69 0 -130 27.5t-106.5 79.5t-72 126.5t-26.5 168.5t26.5 169t72 126.5t106.5 79t130 27.5zM435 305q-43 0 -81 -18.5t-66 -54.5t-44 -89t-16 -122t16 -122
t44 -89t66 -54.5t81 -18.5t81 18.5t66.5 54.5t44.5 89t16 122t-16 122t-44.5 89t-66.5 54.5t-81 18.5z" />
    <glyph glyph-name="uni2081" unicode="&#x2081;" horiz-adv-x="550" 
d="M391 -370h-124v620l-217 -87v122l341 137v-792z" />
    <glyph glyph-name="uni2082" unicode="&#x2082;" horiz-adv-x="681" 
d="M65 290q16 22 39 45.5t55 43t73.5 32t94.5 12.5q61 0 109.5 -18t82 -50.5t51 -77.5t17.5 -98q0 -71 -31.5 -125t-83.5 -106l-201 -203h340v-115h-517v97l291 291q34 34 54 70.5t20 80.5q0 59 -38 97.5t-105 38.5q-31 0 -56 -7.5t-45.5 -20.5t-37.5 -29.5t-32 -34.5z" />
    <glyph glyph-name="uni2083" unicode="&#x2083;" horiz-adv-x="685" 
d="M308 423q61 0 111.5 -15.5t86.5 -44t56 -68.5t20 -88q0 -67 -34.5 -113.5t-93.5 -69.5q66 -23 105.5 -69.5t39.5 -112.5q0 -57 -24 -98.5t-64 -69.5t-91 -41.5t-106 -13.5q-86 0 -152.5 27.5t-111.5 78.5l72 82q35 -37 82.5 -57t103.5 -20q33 0 62.5 7.5t52 22.5t35.5 38
t13 54q0 28 -13.5 50t-37 37t-54.5 23t-66 8h-100v110h100q33 0 61 7.5t48.5 22t32.5 36.5t12 51q0 54 -42.5 84.5t-109.5 30.5q-59 0 -102.5 -24.5t-71.5 -58.5l-74 79q40 51 102 83t152 32z" />
    <glyph glyph-name="uni2084" unicode="&#x2084;" horiz-adv-x="690" 
d="M529 -105h121v-113h-121v-152h-124v152h-365v89l276 541h137l-267 -517h219v217h124v-217z" />
    <glyph glyph-name="uni2085" unicode="&#x2085;" horiz-adv-x="712" 
d="M582 298h-336l-6 -189h94q71 0 125 -17.5t90.5 -48.5t55 -73.5t18.5 -92.5q0 -60 -21.5 -108t-59.5 -81t-90 -51t-113 -18q-87 0 -156.5 29.5t-117.5 83.5l73 82q36 -36 89 -58.5t111 -22.5q75 0 116 37.5t41 97.5q0 28 -10 51.5t-32.5 41t-58 27.5t-85.5 10h-182l12 414
h443v-114z" />
    <glyph glyph-name="uni2086" unicode="&#x2086;" horiz-adv-x="709" 
d="M305 129q30 8 65 8q61 0 112 -20t87 -54.5t56 -81t20 -100.5q0 -57 -22 -105t-61.5 -83t-93 -54.5t-116.5 -19.5t-116.5 19.5t-92.5 54t-61 82t-22 103.5q0 49 16.5 95t47.5 93l226 346h149zM352 32q-35 0 -65 -11.5t-52 -31.5t-34.5 -48t-12.5 -61t12.5 -61t34.5 -48
t52 -31.5t65 -11.5q36 0 66 11.5t51.5 31.5t34 48t12.5 61t-12.5 61t-34 48t-51.5 31.5t-66 11.5z" />
    <glyph glyph-name="uni2087" unicode="&#x2087;" horiz-adv-x="663" 
d="M613 316l-340 -686h-146l340 667h-407v115h553v-96z" />
    <glyph glyph-name="uni2088" unicode="&#x2088;" horiz-adv-x="776" 
d="M388 423q58 0 110 -14.5t90 -42t60.5 -68t22.5 -91.5q0 -35 -10.5 -63.5t-28.5 -51t-42.5 -39t-52.5 -27.5q32 -11 60 -27.5t49 -39.5t33 -53t12 -67q0 -53 -24 -93.5t-65.5 -69t-96.5 -43t-117 -14.5q-63 0 -118 14.5t-96 43t-65 69t-24 93.5q0 37 12 67t32.5 52.5
t48.5 39t60 27.5q-57 22 -95.5 66.5t-38.5 115.5q0 51 22.5 91.5t61 68t90 42t110.5 14.5zM388 -24q-35 0 -66 -8t-54 -24t-36.5 -39t-13.5 -53q0 -32 13.5 -55.5t36.5 -39.5t54 -24t66 -8q34 0 65 8t54 24t36.5 39.5t13.5 55.5q0 30 -13.5 53t-36.5 39t-54 24t-65 8z
M388 315q-32 0 -59.5 -7.5t-48.5 -22.5t-33 -37.5t-12 -52.5q0 -29 12 -51.5t33 -37.5t48.5 -22.5t59.5 -7.5q31 0 58.5 7.5t48.5 22.5t33 37.5t12 51.5q0 30 -12 52.5t-33 37.5t-48.5 22.5t-58.5 7.5z" />
    <glyph glyph-name="uni2089" unicode="&#x2089;" horiz-adv-x="709" 
d="M404 -87q-30 -8 -64 -8q-62 0 -112.5 20t-86.5 54.5t-56 81t-20 100.5q0 57 22 105t61 83t92.5 54.5t116.5 19.5t116.5 -19.5t92.5 -54t61.5 -82t22.5 -103.5q0 -48 -17 -93.5t-48 -93.5l-226 -347h-148zM357 10q36 0 65.5 11.5t51.5 31.5t34 48t12 61t-12.5 61t-34 48
t-51.5 31.5t-65 11.5t-65 -11t-52 -31.5t-34.5 -48.5t-12.5 -61t12.5 -61t34.5 -48t52 -31.5t65 -11.5z" />
    <glyph glyph-name="Euro" unicode="&#x20ac;" horiz-adv-x="1400" 
d="M1044 478h-630q22 -83 61.5 -148t94 -111t124 -70t152.5 -24q64 0 119.5 14.5t102.5 41.5t85.5 64t68.5 82l99 -103q-80 -113 -197.5 -177.5t-277.5 -64.5q-116 0 -214 34.5t-173.5 99t-128 156.5t-78.5 206h-175v124h156q-2 23 -3 47.5t-1 50.5q0 25 1 49.5t3 48.5h-156
v124h175q26 114 78.5 205.5t128 156t173.5 99.5t214 35q159 0 279 -63.5t199 -173.5l-104 -108q-60 90 -153 146t-221 56q-83 0 -153 -24.5t-124.5 -70t-93.5 -111t-61 -147.5h630v-124h-652q-2 -24 -3.5 -48t-1.5 -50t1.5 -50.5t3.5 -47.5h652v-124z" />
    <glyph glyph-name="uni20BA" unicode="&#x20ba;" horiz-adv-x="1400" 
d="M1000 672l-509 -237v-286h233q70 0 130 15.5t113 49.5t99.5 88t88.5 131l132 -73q-54 -98 -114.5 -166t-130.5 -111.5t-151.5 -63t-178.5 -19.5h-375v363l-195 -90v132l195 90v193l-195 -90v132l195 91v579h154v-507l509 237v-133l-509 -237v-193l509 237v-132z" />
    <glyph glyph-name="uni2100" unicode="&#x2100;" horiz-adv-x="1909" 
d="M489 1419q67 0 121 -17t92.5 -52t59.5 -87.5t21 -122.5v-396h-121v89q-39 -44 -97 -73.5t-136 -29.5q-54 0 -97.5 15t-74 42.5t-46.5 65t-16 82.5q0 91 71 144t202 53h191q-2 91 -49 134t-135 43q-63 0 -112 -21t-85 -50l-49 95q52 40 117 63t143 23zM457 832
q61 0 113.5 28t90.5 72v113h-175q-44 0 -74.5 -8.5t-50 -23t-28.5 -34t-9 -41.5q0 -43 33.5 -74.5t99.5 -31.5zM635 0h-149l883 1400h149zM1461 671q78 0 143.5 -29.5t110.5 -84.5l-87 -76q-35 36 -77 55.5t-93 19.5q-46 0 -85.5 -17t-68.5 -47.5t-45.5 -72.5t-16.5 -92
q0 -51 16.5 -93t45.5 -72t68 -47t85 -17q52 0 96 20.5t77 55.5l85 -78q-46 -54 -111 -84t-143 -30q-77 0 -140 26t-109 72.5t-71 109.5t-25 137t25 137t71 109t109 72t140 26z" />
    <glyph glyph-name="uni2101" unicode="&#x2101;" horiz-adv-x="1909" 
d="M493 1419q67 0 121 -17t92.5 -52t59.5 -87.5t21 -122.5v-396h-121v89q-39 -44 -97 -73.5t-136 -29.5q-54 0 -97.5 15t-74 42.5t-46.5 65t-16 82.5q0 91 71 144t202 53h191q-2 91 -49 134t-135 43q-63 0 -112 -21t-85 -50l-49 95q52 40 117 63t143 23zM461 832
q61 0 113.5 28t90.5 72v113h-175q-44 0 -74.5 -8.5t-50 -23t-28.5 -34t-9 -41.5q0 -43 33.5 -74.5t99.5 -31.5zM639 0h-149l883 1400h149zM1642 505q-18 11 -43 22t-53.5 19.5t-60 14t-62.5 5.5q-66 0 -104.5 -25t-38.5 -69q0 -38 34 -57.5t99 -27.5l71 -9
q105 -14 162.5 -59.5t57.5 -126.5q0 -49 -20.5 -88t-58.5 -66t-92.5 -41.5t-121.5 -14.5q-36 0 -73.5 4.5t-74 14t-70.5 25t-64 36.5l51 94q41 -29 96.5 -49.5t136.5 -20.5q77 0 121.5 24.5t44.5 72.5q0 37 -33 58.5t-102 29.5l-70 8q-114 13 -168 61.5t-54 125.5
q0 48 19 86t54 64t84.5 40t110.5 14q79 0 145 -18.5t122 -50.5z" />
    <glyph glyph-name="afii61248" unicode="&#x2105;" horiz-adv-x="1909" 
d="M502 1419q78 0 143.5 -29.5t110.5 -84.5l-87 -76q-35 36 -77 55.5t-93 19.5q-46 0 -85.5 -17t-68.5 -47.5t-45.5 -72.5t-16.5 -92q0 -51 16.5 -93t45.5 -72t68 -47t85 -17q52 0 96 20.5t77 55.5l85 -78q-46 -54 -111 -84t-143 -30q-77 0 -140 26t-109 72.5t-71 109.5
t-25 137t25 137t71 109t109 72t140 26zM579 0h-149l883 1400h149zM1404 671q75 0 139 -26t110.5 -72t73 -109t26.5 -137t-26.5 -137t-73 -109.5t-110.5 -72.5t-139 -26t-139 26t-110.5 72.5t-73 109.5t-26.5 137t26.5 137t73 109t110.5 72t139 26zM1404 556q-48 0 -88.5 -17
t-70.5 -47.5t-47 -72.5t-17 -92t17 -92t47 -72.5t70.5 -47.5t88.5 -17t89 17t71 47.5t47 72.5t17 92t-17 92t-47 72.5t-71 47.5t-89 17z" />
    <glyph glyph-name="uni2106" unicode="&#x2106;" horiz-adv-x="1909" 
d="M499 1419q78 0 143.5 -29.5t110.5 -84.5l-87 -76q-35 36 -77 55.5t-93 19.5q-46 0 -85.5 -17t-68.5 -47.5t-45.5 -72.5t-16.5 -92q0 -51 16.5 -93t45.5 -72t68 -47t85 -17q52 0 96 20.5t77 55.5l85 -78q-46 -54 -111 -84t-143 -30q-77 0 -140 26t-109 72.5t-71 109.5
t-25 137t25 137t71 109t109 72t140 26zM576 0h-149l883 1400h149zM1756 273q0 -74 -24.5 -128.5t-66 -90.5t-96.5 -54t-117 -18t-117 18t-96 54t-65.5 90.5t-24.5 128.5v385h123v-374q0 -47 13.5 -82t37.5 -58t57 -34.5t72 -11.5q40 0 73.5 11.5t57.5 34.5t37.5 58t13.5 82
v374h122v-385z" />
    <glyph glyph-name="afii61289" unicode="&#x2113;" horiz-adv-x="1072" 
d="M142 506q87 35 163 76l1 505q0 80 22 148.5t61.5 118t96 77.5t127.5 28q66 0 121 -22.5t94 -63.5t61 -97.5t22 -123.5q0 -99 -34.5 -189.5t-96 -171.5t-145 -152t-181.5 -131v-175q0 -56 13.5 -96t37.5 -65.5t57 -38t72 -12.5q56 0 107.5 20t93.5 52l60 -119
q-52 -40 -120 -67t-154 -27q-149 0 -233 86t-84 265v95q-26 -13 -53 -25t-54 -23zM454 674q70 49 126 104.5t95.5 116t61 125t21.5 132.5q0 78 -38 122.5t-107 44.5q-35 0 -64 -16t-50 -46t-32.5 -73t-11.5 -97z" />
    <glyph glyph-name="afii61352" unicode="&#x2116;" horiz-adv-x="2433" 
d="M2338 444h-664v135h664v-135zM2006 1414q75 0 138.5 -26t110 -72t73 -109t26.5 -136t-26.5 -135.5t-73 -108.5t-110 -72t-138.5 -26t-138.5 26t-110 72t-72.5 108.5t-26 135.5t26 136t72.5 109t110 72t138.5 26zM2006 1300q-48 0 -88.5 -17t-70.5 -47.5t-47 -72.5
t-17 -92t17 -92t47 -72t70.5 -47t88.5 -17t89 17t71 47t47 72t17 92t-17 92t-47 72.5t-71 47.5t-89 17zM1375 0h-145l-867 1124v-1124h-161v1400h145l867 -1124v1124h161v-1400z" />
    <glyph glyph-name="uni2117" unicode="&#x2117;" horiz-adv-x="1903" 
d="M951 1508q111 0 214 -28.5t192.5 -81t163 -125.5t126 -161.5t81.5 -191t29 -212.5t-29 -212.5t-81.5 -191.5t-126 -162.5t-163 -126t-192.5 -81t-214 -28.5t-214.5 28.5t-193 81t-163 126t-126 162.5t-81 191t-28.5 213q0 110 28.5 212.5t81 191t126 161.5t163 125.5
t192.5 81t215 28.5zM951 1376q-139 0 -261 -52.5t-213 -143t-143.5 -212t-52.5 -260.5t52.5 -261t143.5 -213t213 -143.5t261 -52.5q92 0 178 24t160.5 67.5t135.5 104.5t104.5 135.5t67.5 160t24 178.5q0 92 -24 177.5t-67.5 160t-104.5 135.5t-135.5 104t-160.5 67
t-178 24zM1013 1124q161 0 247.5 -70t86.5 -193q0 -60 -22 -108.5t-65 -82.5t-105 -52t-141 -18h-215v-321h-133v845h347zM799 1003v-284h211q96 0 148 36t52 106t-52 106t-148 36h-211z" />
    <glyph glyph-name="uni2120" unicode="&#x2120;" horiz-adv-x="1485" 
d="M560 1262q-36 19 -82.5 34.5t-104.5 15.5q-59 0 -98.5 -20.5t-39.5 -57.5q0 -35 37.5 -51.5t103.5 -23.5l47 -5q91 -9 147 -48t56 -110q0 -50 -21.5 -86.5t-58.5 -60t-85 -34.5t-100 -11q-74 0 -143 18t-117 50l53 88q35 -22 89 -40t119 -18q31 0 58 4.5t47 14.5t31.5 25
t11.5 35q0 36 -36.5 51.5t-106.5 23.5l-52 5q-94 9 -146 50t-52 113q0 43 19 77t53 58t80.5 37t100.5 13q77 0 133.5 -16.5t104.5 -41.5zM1297 815v442l-165 -381h-113l-165 380v-441h-108v585h153l177 -402l176 402h152v-585h-107z" />
    <glyph glyph-name="trademark" unicode="&#x2122;" horiz-adv-x="1434" 
d="M1245 815v443l-165 -382h-112l-165 381v-442h-108v586h153l176 -403l176 403h153v-586h-108zM277 815v486h-196v99h499v-99h-196v-486h-107z" />
    <glyph glyph-name="uni2126" unicode="&#x2126;" horiz-adv-x="1720" 
d="M423 152q-65 43 -118 100t-90.5 126t-57.5 148.5t-20 168.5q0 158 54.5 291t151 229.5t229 150.5t288.5 54t288.5 -54t229 -150.5t151 -229.5t54.5 -291q0 -89 -20 -168.5t-57.5 -148.5t-90.5 -126t-119 -100h343v-152h-602v131q84 27 153.5 78t119.5 122.5t77.5 161.5
t27.5 195q0 129 -42.5 235.5t-117 182.5t-176 117.5t-219.5 41.5t-219.5 -41.5t-176 -117.5t-117 -182.5t-42.5 -235.5q0 -105 27.5 -195t77.5 -161.5t119.5 -122.5t153.5 -78v-131h-602v152h342z" />
    <glyph glyph-name="estimated" unicode="&#x212e;" horiz-adv-x="2000" 
d="M451 326q0 -74 22 -130t82 -100q94 -69 206.5 -105t238.5 -36q97 0 187 21.5t169 62.5t145 100t115 134l47 -36q-54 -80 -125.5 -143.5t-156.5 -107.5t-181.5 -67t-199.5 -23q-165 0 -310 58t-253.5 163.5t-171.5 253.5t-63 329t63 329t171.5 253.5t253.5 163.5t310 58
t310 -58t253.5 -163.5t171.5 -253.5t63 -329v-15q0 -7 -1 -14h-1346v-345zM1558 729v335q0 74 -21 130t-79 101q-95 73 -211 111.5t-247 38.5q-126 0 -238.5 -36t-206.5 -105q-60 -44 -82 -100t-22 -130v-345h1107z" />
    <glyph glyph-name="uni214D" unicode="&#x214d;" horiz-adv-x="1909" 
d="M843 671h-132l-64 173h-325l-63 -173h-129l282 729h148zM1704 562q-40 24 -94.5 43.5t-125.5 19.5q-35 0 -64 -6.5t-51 -19.5t-34 -32t-12 -43q0 -45 46 -67t124 -31l54 -6q108 -12 170.5 -60.5t62.5 -135.5q0 -62 -25.5 -106t-67.5 -72.5t-97.5 -42t-115.5 -13.5
q-89 0 -168 23.5t-133 61.5l59 101q21 -13 46.5 -26t56.5 -23.5t66 -17t75 -6.5q36 0 67 6t54 19t36 32.5t13 46.5q0 47 -42 67t-125 30l-58 7q-230 27 -230 202q0 52 21.5 93.5t60 70.5t91 45t115.5 16q46 0 85 -5.5t73 -15.5t63.5 -23.5t56.5 -29.5zM364 957h242l-121 328
zM662 0h-149l883 1400h149z" />
    <glyph glyph-name="uni2150" unicode="&#x2150;" horiz-adv-x="1700" 
d="M425 0h-149l883 1400h149zM1650 686l-340 -686h-146l340 667h-407v115h553v-96zM391 617h-124v620l-217 -87v122l341 137v-792z" />
    <glyph glyph-name="uni2151" unicode="&#x2151;" horiz-adv-x="1719" 
d="M425 0h-149l883 1400h149zM1414 283q-30 -8 -64 -8q-62 0 -112.5 20t-86.5 54.5t-56 81t-20 100.5q0 57 22 105t61 83t92.5 54.5t116.5 19.5t116.5 -19.5t92.5 -54t61.5 -82t22.5 -103.5q0 -48 -17 -93.5t-48 -93.5l-226 -347h-148zM1367 380q36 0 65.5 11.5t51.5 31.5
t34 48t12 61t-12.5 61t-34 48t-51.5 31.5t-65 11.5t-65 -11t-52 -31.5t-34.5 -48.5t-12.5 -61t12.5 -61t34.5 -48t52 -31.5t65 -11.5zM391 617h-124v620l-217 -87v122l341 137v-792z" />
    <glyph glyph-name="uni2152" unicode="&#x2152;" horiz-adv-x="2451" 
d="M425 0h-149l883 1400h149zM1421 0h-124v620l-217 -87v122l341 137v-792zM2015 793q70 0 131 -27.5t106.5 -79t72 -126.5t26.5 -169t-26.5 -168.5t-72 -126.5t-106.5 -79.5t-131 -27.5q-69 0 -130 27.5t-106.5 79.5t-72 126.5t-26.5 168.5t26.5 169t72 126.5t106.5 79
t130 27.5zM2015 675q-43 0 -81 -18.5t-66 -54.5t-44 -89t-16 -122t16 -122t44 -89t66 -54.5t81 -18.5t81 18.5t66.5 54.5t44.5 89t16 122t-16 122t-44.5 89t-66.5 54.5t-81 18.5zM391 617h-124v620l-217 -87v122l341 137v-792z" />
    <glyph glyph-name="onethird" unicode="&#x2153;" horiz-adv-x="1694" 
d="M425 0h-149l883 1400h149zM1318 793q61 0 111.5 -15.5t86.5 -44t56 -68.5t20 -88q0 -67 -34.5 -113.5t-93.5 -69.5q66 -23 105.5 -69.5t39.5 -112.5q0 -57 -24 -98.5t-64 -69.5t-91 -41.5t-106 -13.5q-86 0 -152.5 27.5t-111.5 78.5l72 82q35 -37 82.5 -57t103.5 -20
q33 0 62.5 7.5t52 22.5t35.5 38t13 54q0 28 -13.5 50t-37 37t-54.5 23t-66 8h-100v110h100q33 0 61 7.5t48.5 22t32.5 36.5t12 51q0 54 -42.5 84.5t-109.5 30.5q-59 0 -102.5 -24.5t-71.5 -58.5l-74 79q40 51 102 83t152 32zM391 617h-124v620l-217 -87v122l341 137v-792z
" />
    <glyph glyph-name="twothirds" unicode="&#x2154;" horiz-adv-x="1831" 
d="M562 0h-149l883 1400h149zM1454 793q61 0 111.5 -15.5t86.5 -44t56 -68.5t20 -88q0 -67 -34.5 -113.5t-93.5 -69.5q66 -23 105.5 -69.5t39.5 -112.5q0 -57 -24 -98.5t-64 -69.5t-91 -41.5t-106 -13.5q-86 0 -152.5 27.5t-111.5 78.5l72 82q35 -37 82.5 -57t103.5 -20
q33 0 62.5 7.5t52 22.5t35.5 38t13 54q0 28 -13.5 50t-37 37t-54.5 23t-66 8h-100v110h100q33 0 61 7.5t48.5 22t32.5 36.5t12 51q0 54 -42.5 84.5t-109.5 30.5q-59 0 -102.5 -24.5t-71.5 -58.5l-74 79q40 51 102 83t152 32zM65 1277q16 22 39 45.5t55 43t73.5 32t94.5 12.5
q61 0 109.5 -18t82 -50.5t51 -77.5t17.5 -98q0 -71 -31.5 -125t-83.5 -106l-201 -203h340v-115h-517v97l291 291q34 34 54 70.5t20 80.5q0 59 -38 97.5t-105 38.5q-31 0 -56 -7.5t-45.5 -20.5t-37.5 -29.5t-32 -34.5z" />
    <glyph glyph-name="uni2155" unicode="&#x2155;" horiz-adv-x="1722" 
d="M425 0h-149l883 1400h149zM1592 668h-336l-6 -189h94q71 0 125 -17.5t90.5 -48.5t55 -73.5t18.5 -92.5q0 -60 -21.5 -108t-59.5 -81t-90 -51t-113 -18q-87 0 -156.5 29.5t-117.5 83.5l73 82q36 -36 89 -58.5t111 -22.5q75 0 116 37.5t41 97.5q0 28 -10 51.5t-32.5 41
t-58 27.5t-85.5 10h-182l12 414h443v-114zM391 617h-124v620l-217 -87v122l341 137v-792z" />
    <glyph glyph-name="uni2156" unicode="&#x2156;" horiz-adv-x="1859" 
d="M562 0h-149l883 1400h149zM1728 668h-336l-6 -189h94q71 0 125 -17.5t90.5 -48.5t55 -73.5t18.5 -92.5q0 -60 -21.5 -108t-59.5 -81t-90 -51t-113 -18q-87 0 -156.5 29.5t-117.5 83.5l73 82q36 -36 89 -58.5t111 -22.5q75 0 116 37.5t41 97.5q0 28 -10 51.5t-32.5 41
t-58 27.5t-85.5 10h-182l12 414h443v-114zM65 1277q16 22 39 45.5t55 43t73.5 32t94.5 12.5q61 0 109.5 -18t82 -50.5t51 -77.5t17.5 -98q0 -71 -31.5 -125t-83.5 -106l-201 -203h340v-115h-517v97l291 291q34 34 54 70.5t20 80.5q0 59 -38 97.5t-105 38.5q-31 0 -56 -7.5
t-45.5 -20.5t-37.5 -29.5t-32 -34.5z" />
    <glyph glyph-name="uni2157" unicode="&#x2157;" horiz-adv-x="1833" 
d="M536 0h-149l883 1400h149zM1702 668h-336l-6 -189h94q71 0 125 -17.5t90.5 -48.5t55 -73.5t18.5 -92.5q0 -60 -21.5 -108t-59.5 -81t-90 -51t-113 -18q-87 0 -156.5 29.5t-117.5 83.5l73 82q36 -36 89 -58.5t111 -22.5q75 0 116 37.5t41 97.5q0 28 -10 51.5t-32.5 41
t-58 27.5t-85.5 10h-182l12 414h443v-114zM308 1410q61 0 111.5 -15.5t86.5 -44t56 -68.5t20 -88q0 -67 -34.5 -113.5t-93.5 -69.5q66 -23 105.5 -69.5t39.5 -112.5q0 -57 -24 -98.5t-64 -69.5t-91 -41.5t-106 -13.5q-86 0 -152.5 27.5t-111.5 78.5l72 82q35 -37 82.5 -57
t103.5 -20q33 0 62.5 7.5t52 22.5t35.5 38t13 54q0 28 -13.5 50t-37 37t-54.5 23t-66 8h-100v110h100q33 0 61 7.5t48.5 22t32.5 36.5t12 51q0 54 -42.5 84.5t-109.5 30.5q-59 0 -102.5 -24.5t-71.5 -58.5l-74 79q40 51 102 83t152 32z" />
    <glyph glyph-name="uni2158" unicode="&#x2158;" horiz-adv-x="1838" 
d="M541 0h-149l883 1400h149zM1708 668h-336l-6 -189h94q71 0 125 -17.5t90.5 -48.5t55 -73.5t18.5 -92.5q0 -60 -21.5 -108t-59.5 -81t-90 -51t-113 -18q-87 0 -156.5 29.5t-117.5 83.5l73 82q36 -36 89 -58.5t111 -22.5q75 0 116 37.5t41 97.5q0 28 -10 51.5t-32.5 41
t-58 27.5t-85.5 10h-182l12 414h443v-114zM529 882h121v-113h-121v-152h-124v152h-365v89l276 541h137l-267 -517h219v217h124v-217z" />
    <glyph glyph-name="uni2159" unicode="&#x2159;" horiz-adv-x="1635" 
d="M425 0h-149l883 1400h149zM1231 499q30 8 65 8q61 0 112 -20t87 -54.5t56 -81t20 -100.5q0 -57 -22 -105t-61.5 -83t-93 -54.5t-116.5 -19.5t-116.5 19.5t-92.5 54t-61 82t-22 103.5q0 49 16.5 95t47.5 93l226 346h149zM1278 402q-35 0 -65 -11.5t-52 -31.5t-34.5 -48
t-12.5 -61t12.5 -61t34.5 -48t52 -31.5t65 -11.5q36 0 66 11.5t51.5 31.5t34 48t12.5 61t-12.5 61t-34 48t-51.5 31.5t-66 11.5zM391 617h-124v620l-217 -87v122l341 137v-792z" />
    <glyph glyph-name="uni215A" unicode="&#x215a;" horiz-adv-x="1766" 
d="M556 0h-149l883 1400h149zM1362 499q30 8 65 8q61 0 112 -20t87 -54.5t56 -81t20 -100.5q0 -57 -22 -105t-61.5 -83t-93 -54.5t-116.5 -19.5t-116.5 19.5t-92.5 54t-61 82t-22 103.5q0 49 16.5 95t47.5 93l226 346h149zM1409 402q-35 0 -65 -11.5t-52 -31.5t-34.5 -48
t-12.5 -61t12.5 -61t34.5 -48t52 -31.5t65 -11.5q36 0 66 11.5t51.5 31.5t34 48t12.5 61t-12.5 61t-34 48t-51.5 31.5t-66 11.5zM582 1285h-336l-6 -189h94q71 0 125 -17.5t90.5 -48.5t55 -73.5t18.5 -92.5q0 -60 -21.5 -108t-59.5 -81t-90 -51t-113 -18q-87 0 -156.5 29.5
t-117.5 83.5l73 82q36 -36 89 -58.5t111 -22.5q75 0 116 37.5t41 97.5q0 28 -10 51.5t-32.5 41t-58 27.5t-85.5 10h-182l12 414h443v-114z" />
    <glyph glyph-name="oneeighth" unicode="&#x215b;" horiz-adv-x="1759" 
d="M425 0h-149l883 1400h149zM1371 793q58 0 110 -14.5t90 -42t60.5 -68t22.5 -91.5q0 -35 -10.5 -63.5t-28.5 -51t-42.5 -39t-52.5 -27.5q32 -11 60 -27.5t49 -39.5t33 -53t12 -67q0 -53 -24 -93.5t-65.5 -69t-96.5 -43t-117 -14.5q-63 0 -118 14.5t-96 43t-65 69t-24 93.5
q0 37 12 67t32.5 52.5t48.5 39t60 27.5q-57 22 -95.5 66.5t-38.5 115.5q0 51 22.5 91.5t61 68t90 42t110.5 14.5zM1371 346q-35 0 -66 -8t-54 -24t-36.5 -39t-13.5 -53q0 -32 13.5 -55.5t36.5 -39.5t54 -24t66 -8q34 0 65 8t54 24t36.5 39.5t13.5 55.5q0 30 -13.5 53
t-36.5 39t-54 24t-65 8zM1371 685q-32 0 -59.5 -7.5t-48.5 -22.5t-33 -37.5t-12 -52.5q0 -29 12 -51.5t33 -37.5t48.5 -22.5t59.5 -7.5q31 0 58.5 7.5t48.5 22.5t33 37.5t12 51.5q0 30 -12 52.5t-33 37.5t-48.5 22.5t-58.5 7.5zM391 617h-124v620l-217 -87v122l341 137v-792
z" />
    <glyph glyph-name="threeeighths" unicode="&#x215c;" horiz-adv-x="1869" 
d="M536 0h-149l883 1400h149zM1481 793q58 0 110 -14.5t90 -42t60.5 -68t22.5 -91.5q0 -35 -10.5 -63.5t-28.5 -51t-42.5 -39t-52.5 -27.5q32 -11 60 -27.5t49 -39.5t33 -53t12 -67q0 -53 -24 -93.5t-65.5 -69t-96.5 -43t-117 -14.5q-63 0 -118 14.5t-96 43t-65 69t-24 93.5
q0 37 12 67t32.5 52.5t48.5 39t60 27.5q-57 22 -95.5 66.5t-38.5 115.5q0 51 22.5 91.5t61 68t90 42t110.5 14.5zM1481 346q-35 0 -66 -8t-54 -24t-36.5 -39t-13.5 -53q0 -32 13.5 -55.5t36.5 -39.5t54 -24t66 -8q34 0 65 8t54 24t36.5 39.5t13.5 55.5q0 30 -13.5 53
t-36.5 39t-54 24t-65 8zM1481 685q-32 0 -59.5 -7.5t-48.5 -22.5t-33 -37.5t-12 -52.5q0 -29 12 -51.5t33 -37.5t48.5 -22.5t59.5 -7.5q31 0 58.5 7.5t48.5 22.5t33 37.5t12 51.5q0 30 -12 52.5t-33 37.5t-48.5 22.5t-58.5 7.5zM308 1410q61 0 111.5 -15.5t86.5 -44
t56 -68.5t20 -88q0 -67 -34.5 -113.5t-93.5 -69.5q66 -23 105.5 -69.5t39.5 -112.5q0 -57 -24 -98.5t-64 -69.5t-91 -41.5t-106 -13.5q-86 0 -152.5 27.5t-111.5 78.5l72 82q35 -37 82.5 -57t103.5 -20q33 0 62.5 7.5t52 22.5t35.5 38t13 54q0 28 -13.5 50t-37 37t-54.5 23
t-66 8h-100v110h100q33 0 61 7.5t48.5 22t32.5 36.5t12 51q0 54 -42.5 84.5t-109.5 30.5q-59 0 -102.5 -24.5t-71.5 -58.5l-74 79q40 51 102 83t152 32z" />
    <glyph glyph-name="fiveeighths" unicode="&#x215d;" horiz-adv-x="1890" 
d="M556 0h-149l883 1400h149zM1502 793q58 0 110 -14.5t90 -42t60.5 -68t22.5 -91.5q0 -35 -10.5 -63.5t-28.5 -51t-42.5 -39t-52.5 -27.5q32 -11 60 -27.5t49 -39.5t33 -53t12 -67q0 -53 -24 -93.5t-65.5 -69t-96.5 -43t-117 -14.5q-63 0 -118 14.5t-96 43t-65 69t-24 93.5
q0 37 12 67t32.5 52.5t48.5 39t60 27.5q-57 22 -95.5 66.5t-38.5 115.5q0 51 22.5 91.5t61 68t90 42t110.5 14.5zM1502 346q-35 0 -66 -8t-54 -24t-36.5 -39t-13.5 -53q0 -32 13.5 -55.5t36.5 -39.5t54 -24t66 -8q34 0 65 8t54 24t36.5 39.5t13.5 55.5q0 30 -13.5 53
t-36.5 39t-54 24t-65 8zM1502 685q-32 0 -59.5 -7.5t-48.5 -22.5t-33 -37.5t-12 -52.5q0 -29 12 -51.5t33 -37.5t48.5 -22.5t59.5 -7.5q31 0 58.5 7.5t48.5 22.5t33 37.5t12 51.5q0 30 -12 52.5t-33 37.5t-48.5 22.5t-58.5 7.5zM582 1285h-336l-6 -189h94q71 0 125 -17.5
t90.5 -48.5t55 -73.5t18.5 -92.5q0 -60 -21.5 -108t-59.5 -81t-90 -51t-113 -18q-87 0 -156.5 29.5t-117.5 83.5l73 82q36 -36 89 -58.5t111 -22.5q75 0 116 37.5t41 97.5q0 28 -10 51.5t-32.5 41t-58 27.5t-85.5 10h-182l12 414h443v-114z" />
    <glyph glyph-name="seveneighths" unicode="&#x215e;" horiz-adv-x="1735" 
d="M401 0h-149l883 1400h149zM1347 793q58 0 110 -14.5t90 -42t60.5 -68t22.5 -91.5q0 -35 -10.5 -63.5t-28.5 -51t-42.5 -39t-52.5 -27.5q32 -11 60 -27.5t49 -39.5t33 -53t12 -67q0 -53 -24 -93.5t-65.5 -69t-96.5 -43t-117 -14.5q-63 0 -118 14.5t-96 43t-65 69t-24 93.5
q0 37 12 67t32.5 52.5t48.5 39t60 27.5q-57 22 -95.5 66.5t-38.5 115.5q0 51 22.5 91.5t61 68t90 42t110.5 14.5zM1347 346q-35 0 -66 -8t-54 -24t-36.5 -39t-13.5 -53q0 -32 13.5 -55.5t36.5 -39.5t54 -24t66 -8q34 0 65 8t54 24t36.5 39.5t13.5 55.5q0 30 -13.5 53
t-36.5 39t-54 24t-65 8zM1347 685q-32 0 -59.5 -7.5t-48.5 -22.5t-33 -37.5t-12 -52.5q0 -29 12 -51.5t33 -37.5t48.5 -22.5t59.5 -7.5q31 0 58.5 7.5t48.5 22.5t33 37.5t12 51.5q0 30 -12 52.5t-33 37.5t-48.5 22.5t-58.5 7.5zM613 1303l-340 -686h-146l340 667h-407v115
h553v-96z" />
    <glyph glyph-name="uni215F" unicode="&#x215f;" horiz-adv-x="1010" 
d="M425 0h-149l883 1400h149zM391 617h-124v620l-217 -87v122l341 137v-792z" />
    <glyph glyph-name="uni2189" unicode="&#x2189;" horiz-adv-x="1937" 
d="M668 0h-149l883 1400h149zM1560 793q61 0 111.5 -15.5t86.5 -44t56 -68.5t20 -88q0 -67 -34.5 -113.5t-93.5 -69.5q66 -23 105.5 -69.5t39.5 -112.5q0 -57 -24 -98.5t-64 -69.5t-91 -41.5t-106 -13.5q-86 0 -152.5 27.5t-111.5 78.5l72 82q35 -37 82.5 -57t103.5 -20
q33 0 62.5 7.5t52 22.5t35.5 38t13 54q0 28 -13.5 50t-37 37t-54.5 23t-66 8h-100v110h100q33 0 61 7.5t48.5 22t32.5 36.5t12 51q0 54 -42.5 84.5t-109.5 30.5q-59 0 -102.5 -24.5t-71.5 -58.5l-74 79q40 51 102 83t152 32zM435 1410q70 0 131 -27.5t106.5 -79t72 -126.5
t26.5 -169t-26.5 -168.5t-72 -126.5t-106.5 -79.5t-131 -27.5q-69 0 -130 27.5t-106.5 79.5t-72 126.5t-26.5 168.5t26.5 169t72 126.5t106.5 79t130 27.5zM435 1292q-43 0 -81 -18.5t-66 -54.5t-44 -89t-16 -122t16 -122t44 -89t66 -54.5t81 -18.5t81 18.5t66.5 54.5
t44.5 89t16 122t-16 122t-44.5 89t-66.5 54.5t-81 18.5z" />
    <glyph glyph-name="arrowleft" unicode="&#x2190;" horiz-adv-x="2000" 
d="M611 585q-20 0 -43 0.5t-49.5 2t-60.5 3.5q51 -42 100.5 -89t90.5 -88l287 -287l-96 -96l-621 622l621 622l96 -96l-287 -287q-41 -41 -90.5 -88t-100.5 -89q34 2 60.5 3.5t49.5 2t43 0.5h1171v-136h-1171z" />
    <glyph glyph-name="arrowup" unicode="&#x2191;" horiz-adv-x="2000" 
d="M933 1092q0 21 0.5 44t1.5 49.5t3 61.5q-42 -52 -89 -101t-88 -90l-287 -288l-96 96l622 622l622 -622l-96 -96l-286 288q-41 42 -88.5 90.5t-89.5 100.5q2 -35 3.5 -61.5t2 -49.5t0.5 -44v-1169h-135v1169z" />
    <glyph glyph-name="arrowright" unicode="&#x2192;" horiz-adv-x="2000" 
d="M1388 721q21 0 44 -0.5t49.5 -2t60.5 -3.5q-51 42 -100 89t-91 88l-287 287l96 96l622 -622l-622 -622l-96 96l287 287q42 41 91 88t100 89q-34 -2 -60.5 -3.5t-49.5 -2t-44 -0.5h-1169v136h1169z" />
    <glyph glyph-name="arrowdown" unicode="&#x2193;" horiz-adv-x="2000" 
d="M1068 314q0 -20 -0.5 -43t-2 -50t-3.5 -61q42 52 89 101t88 90l287 288l96 -96l-622 -622l-622 622l96 96l287 -288q41 -41 88 -90t89 -101q-2 34 -3.5 61t-2 50t-0.5 43v1170h136v-1170z" />
    <glyph glyph-name="uni2196" unicode="&#x2196;" horiz-adv-x="2000" 
d="M652 889q-14 15 -29.5 31.5t-33.5 36t-41 45.5q7 -66 8.5 -134.5t1.5 -125.5v-406h-135v879l879 1v-136h-406q-58 0 -126 1.5t-134 8.5q26 -23 45.5 -41t36 -33.5t30.5 -30.5l828 -827l-96 -96z" />
    <glyph glyph-name="uni2197" unicode="&#x2197;" horiz-adv-x="2000" 
d="M1227 976q15 15 31.5 30.5t35.5 33.5t45 41q-65 -7 -133.5 -8.5t-126.5 -1.5h-406v135h880v-879h-136v406q0 57 1.5 125.5t9.5 134.5q-23 -26 -41.5 -46t-34 -36.5t-30.5 -31.5l-29 -29l-798 -797l-95 96z" />
    <glyph glyph-name="uni2198" unicode="&#x2198;" horiz-adv-x="2000" 
d="M1293 456q15 -16 29.5 -30.5t30.5 -31t34 -36t41 -44.5q-7 66 -8.5 134t-1.5 126v406h135v-880h-879v136h406q58 0 126 -1.5t134 -9.5q-26 23 -45.5 41.5t-36 34t-31.5 29.5l-827 828l96 96z" />
    <glyph glyph-name="uni2199" unicode="&#x2199;" horiz-adv-x="2000" 
d="M749 319q-14 -14 -30.5 -29.5t-36 -33.5t-44.5 -41q65 7 133.5 8.5t126.5 1.5h406v-135h-880v879h136v-405q0 -58 -1.5 -126.5t-9.5 -134.5q23 26 41.5 45.5t34 36t30 31.5t29.5 30l798 798l95 -97z" />
    <glyph glyph-name="partialdiff" unicode="&#x2202;" horiz-adv-x="1192" 
d="M346 1450q151 -61 264.5 -140t195.5 -167t135.5 -180t85.5 -179t44.5 -164.5t12.5 -136.5q0 -107 -38 -199t-104.5 -159.5t-158 -105.5t-198.5 -38t-198 37t-158 101.5t-104.5 152.5t-37.5 191q0 104 36 193t99.5 154t149.5 102t187 37q96 0 177.5 -40t138.5 -112
q-32 77 -82 149.5t-122.5 140t-169.5 129t-222 115.5zM585 808q-74 0 -137 -25.5t-109 -71t-72.5 -108.5t-26.5 -139q0 -75 26.5 -138t72.5 -108.5t109 -71t137 -25.5t137 25.5t109.5 71t73 108.5t26.5 138q0 76 -26.5 139t-73 108.5t-109.5 71t-137 25.5z" />
    <glyph glyph-name="emptyset" unicode="&#x2205;" horiz-adv-x="1429" 
d="M1227 937l-128 -128q45 -61 71 -134.5t26 -154.5q0 -99 -38 -187t-103 -153.5t-153 -103.5t-187 -38q-82 0 -155.5 25.5t-134.5 71.5l-127 -128l-96 96l127 127q-46 61 -71.5 134.5t-25.5 155.5q0 99 38 187t103.5 153.5t153.5 104t188 38.5q81 0 154.5 -26t134.5 -72
l127 128zM367 520q0 -56 16.5 -106.5t46.5 -92.5l482 483q-42 30 -92 46.5t-105 16.5q-72 0 -135.5 -27.5t-110.5 -74.5t-74.5 -110t-27.5 -135zM715 174q71 0 134 27t110 74t74.5 110t27.5 135q0 55 -16.5 105t-45.5 92l-481 -482q42 -29 92 -45t105 -16z" />
    <glyph glyph-name="emptyset" unicode="&#x2300;" horiz-adv-x="1429" 
d="M1227 937l-128 -128q45 -61 71 -134.5t26 -154.5q0 -99 -38 -187t-103 -153.5t-153 -103.5t-187 -38q-82 0 -155.5 25.5t-134.5 71.5l-127 -128l-96 96l127 127q-46 61 -71.5 134.5t-25.5 155.5q0 99 38 187t103.5 153.5t153.5 104t188 38.5q81 0 154.5 -26t134.5 -72
l127 128zM367 520q0 -56 16.5 -106.5t46.5 -92.5l482 483q-42 30 -92 46.5t-105 16.5q-72 0 -135.5 -27.5t-110.5 -74.5t-74.5 -110t-27.5 -135zM715 174q71 0 134 27t110 74t74.5 110t27.5 135q0 55 -16.5 105t-45.5 92l-481 -482q42 -29 92 -45t105 -16z" />
    <glyph glyph-name="uni2206" unicode="&#x2206;" horiz-adv-x="1412" 
d="M1331 124v-124h-1250v124l526 1278h198zM262 152h888l-444 1087z" />
    <glyph glyph-name="product" unicode="&#x220f;" horiz-adv-x="1467" 
d="M1265 -265h-161v1513h-741v-1513h-161v1665h1063v-1665z" />
    <glyph glyph-name="summation" unicode="&#x2211;" horiz-adv-x="1314" 
d="M1190 1248h-830l554 -625v-89l-558 -647h837v-152h-1072v125l622 715l-618 700v125h1065v-152z" />
    <glyph glyph-name="minus" unicode="&#x2212;" horiz-adv-x="1200" 
d="M1035 461h-870v136h870v-136z" />
    <glyph glyph-name="uni2219" unicode="&#x2219;" horiz-adv-x="1200" 
d="M600 756q46 0 87.5 -18t72.5 -48.5t49 -72t18 -88.5t-18 -88.5t-49 -72t-72.5 -48.5t-87.5 -18q-48 0 -89 18t-72 48.5t-48.5 72t-17.5 88.5t17.5 88.5t48.5 72t72 48.5t89 18z" />
    <glyph glyph-name="radical" unicode="&#x221a;" horiz-adv-x="1238" 
d="M629 -265h-199l-400 1000h177l322 -811l509 1516h164z" />
    <glyph glyph-name="infinity" unicode="&#x221e;" horiz-adv-x="1642" 
d="M52 520q0 87 29 157t78.5 119t115 75.5t138.5 26.5q59 0 109.5 -20.5t98 -57.5t96 -87.5t103.5 -111.5q55 61 103.5 111.5t96.5 87.5t98 57.5t109 20.5q73 0 138.5 -26.5t115 -75.5t79 -119t29.5 -157t-29.5 -157t-79 -119t-115 -75.5t-138.5 -26.5q-59 0 -109 20.5
t-98 57t-96.5 87.5t-103.5 112q-55 -61 -103.5 -112t-96 -87.5t-98 -57t-109.5 -20.5q-73 0 -138.5 26.5t-115 75.5t-78.5 119t-29 157zM194 520q0 -58 17 -103t47 -76t70 -47t85 -16q37 0 70 15t69 45t78.5 75.5t98.5 106.5q-54 61 -96.5 106.5t-79.5 75.5t-70.5 45
t-69.5 15q-45 0 -85 -16t-70 -47t-47 -76t-17 -103zM1446 520q0 58 -17 103t-47 76t-70 47t-85 16q-36 0 -69 -15t-69 -45t-79 -75.5t-98 -106.5q55 -61 98 -106.5t79 -75.5t69 -45t69 -15q45 0 85 16t70 47t47 76t17 103z" />
    <glyph glyph-name="integral" unicode="&#x222b;" horiz-adv-x="667" 
d="M611 1271q-16 4 -31.5 6t-32.5 2q-87 0 -126.5 -52.5t-39.5 -148.5v-1021q0 -74 -17.5 -136t-54.5 -108t-95 -71.5t-139 -25.5q-62 0 -114 12l41 136q32 -8 63 -8q87 0 126.5 52.5t39.5 148.5v1021q0 73 17.5 135.5t54.5 108.5t95 71.5t139 25.5q61 0 114 -12z" />
    <glyph glyph-name="congruent" unicode="&#x2245;" horiz-adv-x="1200" 
d="M1035 276h-870v136h870v-136zM1035 646h-870v136h870v-136zM1048 1098q-55 -60 -116.5 -89t-147.5 -29q-47 0 -82.5 6.5t-65 16t-55 20.5t-52.5 20.5t-56.5 16t-67.5 6.5q-49 0 -88.5 -20.5t-83.5 -62.5l-81 94q54 60 115.5 89t147.5 29q47 0 82.5 -6.5t65 -16
t55.5 -20.5t52.5 -20.5t56 -16t67.5 -6.5q49 0 88.5 20.5t83.5 62.5z" />
    <glyph glyph-name="approxequal" unicode="&#x2248;" horiz-adv-x="1200" 
d="M1048 723q-55 -60 -116.5 -89t-147.5 -29q-47 0 -82.5 6.5t-65 16t-55 20.5t-52.5 20.5t-56.5 16t-67.5 6.5q-49 0 -88.5 -20.5t-83.5 -62.5l-81 94q54 60 115.5 89t147.5 29q47 0 82.5 -6.5t65 -16t55.5 -20.5t52.5 -20.5t56 -16t67.5 -6.5q49 0 88.5 20.5t83.5 62.5z
M1048 356q-55 -60 -116.5 -89t-147.5 -29q-47 0 -82.5 6.5t-65 16t-55 20.5t-52.5 20.5t-56.5 16t-67.5 6.5q-49 0 -88.5 -20.5t-83.5 -62.5l-81 94q54 60 115.5 89t147.5 29q47 0 82.5 -6.5t65 -16t55.5 -20.5t52.5 -20.5t56 -16t67.5 -6.5q49 0 88.5 20.5t83.5 62.5z" />
    <glyph glyph-name="uni2259" unicode="&#x2259;" horiz-adv-x="1200" 
d="M1035 276h-870v136h870v-136zM1035 646h-870v136h870v-136zM774 964l-174 189l-175 -189h-160l235 288h200l234 -288h-160z" />
    <glyph glyph-name="notequal" unicode="&#x2260;" horiz-adv-x="1200" 
d="M1035 276h-487l-123 -252h-143l123 252h-240v136h306l114 234h-420v136h487l123 252h143l-123 -252h240v-136h-307l-114 -234h421v-136z" />
    <glyph glyph-name="lessequal" unicode="&#x2264;" horiz-adv-x="1200" 
d="M994 930l-626 -253l626 -253v-158l-787 337v147l787 338v-158zM207 181h787v-136h-787v136z" />
    <glyph glyph-name="greaterequal" unicode="&#x2265;" horiz-adv-x="1200" 
d="M207 1088l787 -338v-147l-787 -337v158l626 253l-626 253v158zM994 45h-787v136h787v-136z" />
    <glyph glyph-name="dotmath" unicode="&#x22c5;" horiz-adv-x="1200" 
d="M601 654q25 0 47.5 -10t39.5 -27t27 -39.5t10 -47.5q0 -26 -10 -48.5t-27 -40t-39.5 -27.5t-47.5 -10t-48 10t-40 27.5t-27.5 40t-10.5 48.5q0 25 10.5 47.5t27.5 39.5t40 27t48 10z" />
    </font>
</defs>
</svg>
